<svg width="153" height="36" viewBox="0 0 153 36" fill="none" xmlns="http://www.w3.org/2000/svg">
<g clip-path="url(#clip0)">
<path d="M51.3648 23.1366H54.3955V16.0597H58.5578V13.4844H47.2025V16.0597H51.3648V23.1366Z" fill="black"/>
<path d="M67.7518 13.4844L62.7005 19.1013V13.4844H59.7708V23.1366H62.357L67.4083 17.5197V23.1366H70.338V13.4844H67.7518Z" fill="black"/>
<path d="M75.4866 19.5474H80.1944V23.1366H83.1242V13.4844H80.1944V17.0127H75.4866V13.4844H72.5569V23.1366H75.4866V19.5474Z" fill="black"/>
<path d="M91.2832 23.1366C91.95 23.1366 92.5561 23.0758 93.1219 22.9135C94.6373 22.4877 95.6273 21.2508 95.6273 19.5677C95.6273 17.9658 94.7787 16.8505 93.425 16.3435C92.7784 16.1002 92.0106 16.0799 91.2832 16.0799H88.2726V13.4844H85.3429V23.1366H91.2832ZM88.2726 18.351H90.7781C91.1822 18.351 91.5661 18.351 91.9096 18.4727C92.3945 18.6349 92.6774 19.0405 92.6774 19.5272C92.6774 20.0341 92.3945 20.4599 91.9298 20.6627C91.6065 20.8047 91.2832 20.8047 90.7781 20.8047H88.2726V18.351Z" fill="black"/>
<path d="M100.072 19.4866H100.88L104.376 23.1366H108.276L103.406 18.1077L108.094 13.4844H104.416L100.88 17.1141H100.072V13.4844H97.1423V23.1366H100.072V19.4866Z" fill="black"/>
<path d="M114.304 13.2207C110.364 13.2207 108 15.4513 108 18.3307C108 21.2101 110.364 23.4407 114.304 23.4407C118.224 23.4407 120.588 21.2101 120.588 18.3307C120.588 15.4513 118.224 13.2207 114.304 13.2207ZM114.304 21.0885C112.344 21.0885 111.091 19.9124 111.091 18.3307C111.091 16.749 112.344 15.5932 114.304 15.5932C116.243 15.5932 117.516 16.749 117.516 18.3307C117.516 19.9124 116.243 21.0885 114.304 21.0885Z" fill="black"/>
<path d="M130.345 13.9108V12.9375H127.415V13.9108C123.738 13.9919 121.535 15.5533 121.535 18.3111C121.535 21.0689 123.738 22.5086 127.415 22.5897V23.5631H130.345V22.5897C134.042 22.5086 136.244 21.0689 136.244 18.3111C136.244 15.5533 134.042 13.9919 130.345 13.9108ZM127.415 20.5214C125.394 20.4403 124.505 19.6089 124.505 18.3111C124.505 17.0133 125.394 16.0806 127.415 15.9994V20.5214ZM130.345 20.5214V15.9994C132.385 16.0806 133.254 17.0133 133.254 18.3111C133.254 19.6089 132.385 20.4403 130.345 20.5214Z" fill="black"/>
<path d="M145.991 13.9108V12.9375H143.062V13.9108C139.384 13.9919 137.182 15.5533 137.182 18.3111C137.182 21.0689 139.384 22.5086 143.062 22.5897V23.5631H145.991V22.5897C149.689 22.5086 151.891 21.0689 151.891 18.3111C151.891 15.5533 149.689 13.9919 145.991 13.9108ZM143.062 20.5214C141.041 20.4403 140.152 19.6089 140.152 18.3111C140.152 17.0133 141.041 16.0806 143.062 15.9994V20.5214ZM145.991 20.5214V15.9994C148.032 16.0806 148.901 17.0133 148.901 18.3111C148.901 19.6089 148.032 20.4403 145.991 20.5214Z" fill="black"/>
<path fill-rule="evenodd" clip-rule="evenodd" d="M38.6226 16.8945L39.1205 15.2913L37.4722 15.3437C37.3332 15.3437 36.321 15.3142 35.3387 14.5987C35.4124 14.6049 35.485 14.6159 35.5605 14.6159C36.5711 14.6159 37.5501 14.004 37.9417 13.1282L38.6505 11.5469C37.7609 11.5588 36.9482 11.4457 36.9482 11.4457C36.9415 11.4452 36.3006 11.3617 35.56 10.6004C35.0288 10.0553 34.3712 9.76658 33.6592 9.76658C33.3472 9.76658 33.0686 9.82338 32.8283 9.89974C32.8663 9.77136 32.901 9.64153 32.9223 9.50741C33.1483 8.02732 32.2017 6.89899 32.2012 6.89994L30.9612 5.35637L30.1926 7.16962C30.1903 7.17534 29.9956 7.60061 29.649 7.80776C29.5446 7.27461 29.2868 6.67561 28.737 6.10285C27.6998 5.02369 26.4374 4.86188 25.777 4.86188C25.4708 4.86188 25.252 4.89578 25.1993 4.90437L23.7029 5.20029C23.7893 4.86428 23.9735 4.27816 24.3097 3.7517L25.1352 2.4587L23.0577 2.69592L22.3955 1.28312L21.1141 1.94752L19.9288 0.770508L18.7471 1.94752L17.4624 1.28312L16.8021 2.69592L14.7251 2.45775L15.5521 3.75217C15.8887 4.27816 16.0719 4.86285 16.1574 5.19791L14.7294 4.91487L14.6805 4.90724C14.6088 4.89578 14.3919 4.86188 14.0842 4.86188C13.4238 4.86188 12.162 5.02369 11.1271 6.10238C10.5764 6.67466 10.3181 7.27461 10.2127 7.80776C9.86807 7.60253 9.67532 7.18393 9.67532 7.18393L8.9053 5.36019L7.64629 6.91331C7.49201 7.1133 6.73337 8.17432 6.9394 9.50932C6.96077 9.64248 6.99542 9.77136 7.03246 9.89974C6.79367 9.8229 6.51499 9.76658 6.20356 9.76658C5.49098 9.76658 4.83347 10.0553 4.30128 10.6004C3.56259 11.3583 2.92597 11.4443 2.93118 11.4443C2.93118 11.4443 2.25706 11.5665 1.21453 11.5469L1.91952 13.1282C2.31213 14.004 3.29151 14.6159 4.30033 14.6159C4.37629 14.6159 4.44893 14.6049 4.52346 14.5987C3.5436 15.3142 2.53145 15.3437 2.40897 15.3442L0.730774 15.2913L1.23922 16.8941C1.49558 17.7202 2.3501 19.0886 3.987 19.2362C3.80898 19.9864 3.41447 20.8279 2.5476 21.1897L1.29666 21.7076L1.97886 22.9018C2.3634 23.5456 3.26731 24.2988 4.55337 24.2988C4.83157 24.2979 5.10026 24.2697 5.35948 24.2144C5.42547 24.5084 5.50807 24.8033 5.60587 25.0959C5.9885 26.2423 5.65856 27.0414 5.65524 27.0504L5.03761 28.3506L6.41577 28.7157C6.43286 28.721 6.84921 28.8365 7.37047 28.8365C7.60642 28.8365 7.83334 28.8116 8.0446 28.7605C8.20459 28.7229 8.35888 28.6732 8.50699 28.6126C8.68549 28.9343 8.90198 29.2278 9.15453 29.4908C10.0375 30.402 11.2895 30.8635 12.8742 30.8635H12.8793L14.0111 30.8487L11.6731 31.8262L13.4481 32.6887C14.0932 33.0047 14.8576 33.3784 15.6366 33.6643L15.415 34.2739L16.0264 34.5545C16.081 34.5792 17.2579 35.1081 19.2133 35.2207C19.2133 35.2207 19.6852 35.2427 19.9453 35.2427C20.205 35.2427 20.6717 35.2193 20.6717 35.2193C22.6143 35.1038 23.7817 34.5792 23.8363 34.5545L24.4497 34.2733L24.2261 33.6629C25.0264 33.3684 25.8198 32.9798 26.4379 32.6763L28.1801 31.8253L25.8497 30.8487L26.9862 30.8635C28.5732 30.8635 29.8251 30.4015 30.7067 29.4894C30.9583 29.2288 31.1743 28.9357 31.3538 28.6126C31.5024 28.6732 31.6576 28.7229 31.8181 28.7615C32.0289 28.8116 32.2553 28.8365 32.4913 28.8365C33.0035 28.8365 33.4246 28.7224 33.4355 28.7186L34.8199 28.3506L34.2169 27.0743C34.2027 27.0414 33.8727 26.2423 34.2554 25.0949C34.3527 24.8023 34.4348 24.5079 34.5018 24.2144C34.7615 24.2697 35.0325 24.2979 35.3132 24.2988C36.9519 24.2988 37.7376 23.1399 37.8895 22.8884L38.5646 21.7066L37.3146 21.1906C36.4454 20.8279 36.0514 19.9869 35.8752 19.2371C37.4908 19.0958 38.3572 17.726 38.6226 16.8945Z" fill="#FFFFFE"/>
<path fill-rule="evenodd" clip-rule="evenodd" d="M19.9291 5.68066C18.6051 5.6821 17.6119 6.11787 17.3963 6.63144L19.9291 7.63663L22.4627 6.63144C22.2482 6.11787 21.255 5.6821 19.9291 5.68066Z" fill="#FFFFFE"/>
<path fill-rule="evenodd" clip-rule="evenodd" d="M19.956 32.2842H19.9051C19.1029 32.2895 17.9972 32.1243 17.466 31.9678L16.8251 33.7099C17.2472 33.8612 18.678 34.151 19.9318 34.151C21.1832 34.151 22.6145 33.8612 23.0361 33.7099L22.3966 31.9678C21.8625 32.1243 20.7583 32.2895 19.956 32.2842Z" fill="#FFFFFE"/>
<path fill-rule="evenodd" clip-rule="evenodd" d="M24.8023 30.5508C24.3256 30.8219 23.2613 31.2295 22.6428 31.4185L23.162 32.8575C24.1197 32.5946 24.9106 32.2877 25.5628 31.9583L24.4843 31.5979L24.8023 30.5508Z" fill="#FFFFFE"/>
<path fill-rule="evenodd" clip-rule="evenodd" d="M15.0582 30.5508L15.3772 31.5979L14.2977 31.9583C14.949 32.2877 15.7432 32.5946 16.6974 32.8575L17.2178 31.4185C16.6001 31.2295 15.5343 30.8219 15.0582 30.5508Z" fill="#FFFFFE"/>
<path fill-rule="evenodd" clip-rule="evenodd" d="M19.9291 4.01532C20.9275 4.01532 21.906 4.2554 22.6589 4.67685C22.7277 4.44536 22.8241 4.16375 22.9546 3.8683L22.6693 3.90268L22.3712 3.93418L22.2449 3.66068L21.8637 2.85214L21.1701 3.21585L20.8995 3.35379L20.6834 3.13996L19.9291 2.38965L19.1762 3.13996L18.9612 3.35379L18.691 3.21585L17.9931 2.85214L17.6176 3.66068L17.4885 3.93418L17.1904 3.90268L16.9065 3.8683C17.037 4.16375 17.1325 4.44536 17.2022 4.67685C17.958 4.2554 18.9355 4.01532 19.9291 4.01532Z" fill="#FFFFFE"/>
<path fill-rule="evenodd" clip-rule="evenodd" d="M35.1687 13.3598C35.2984 13.4046 35.4299 13.4247 35.5604 13.4247C36.1254 13.4247 36.6708 13.0572 36.8584 12.6376C36.8584 12.6376 35.8234 12.5747 34.7102 11.4382C34.3555 11.0703 33.9805 10.96 33.6586 10.96C33.1587 10.96 32.7836 11.2249 32.7836 11.2249C34.1286 11.9451 34.403 13.0997 35.1687 13.3598Z" fill="#FFFFFE"/>
<path fill-rule="evenodd" clip-rule="evenodd" d="M4.29986 13.4247C4.43041 13.4247 4.56239 13.4046 4.68915 13.3593C5.45679 13.0997 5.73357 11.9451 7.07661 11.2253C7.07661 11.2253 6.70061 10.96 6.20356 10.96C5.87979 10.96 5.50522 11.0702 5.14917 11.4387C4.03733 12.5747 3.00287 12.6381 3.00287 12.6381C3.18849 13.0572 3.7354 13.4247 4.29986 13.4247Z" fill="#FFFFFE"/>
<path fill-rule="evenodd" clip-rule="evenodd" d="M34.7628 21.6508C33.7226 21.1348 33.0651 19.766 32.9065 19.2729C32.7338 21.9878 31.4159 23.8712 29.8754 25.6849C29.0758 26.6251 28.7967 27.5392 28.7967 27.5392C28.7967 27.5392 28.951 26.5035 29.6422 25.6605C31.0798 23.9246 32.4461 21.7625 32.5476 19.2634C32.6174 17.5184 32.1717 16.1041 31.4752 14.9381C31.865 16.1524 31.8094 17.6391 30.4873 19.027C30.4873 19.027 33.1202 15.8555 29.439 12.6037C27.9664 11.366 26.3537 10.6019 25.5244 10.0606C28.5223 11.0439 29.9864 9.96133 29.9864 9.96133C29.0294 10.7956 27.7898 10.7813 27.0208 10.661C27.2296 10.7632 27.4466 10.8701 27.6797 10.9961C30.2076 12.3764 32.4793 14.6479 32.8666 17.7932V17.7694C33.4544 20.858 34.7628 21.6508 34.7628 21.6508ZM35.5328 18.052C35.556 18.0534 35.576 18.0534 35.5998 18.0534C37.0088 18.0534 37.4863 16.5361 37.4863 16.5361H37.4588C37.2001 16.5361 35.1051 16.475 33.6239 14.5825C32.6497 13.3382 31.8502 12.2442 30.2727 11.8137L30.1174 11.7861L30.0838 11.6271C30.04 11.3851 30.2057 11.1574 30.5803 10.9126C32.7579 9.47927 31.2787 7.65075 31.2787 7.65075C31.2787 7.65075 30.6572 9.1127 29.2663 9.1127C29.2325 9.1127 29.1974 9.11079 29.1627 9.11079C29.0051 9.10268 28.8523 9.09695 28.6989 9.06402L28.4426 9.0139C28.4426 9.0139 28.8394 7.92901 27.8819 6.93337C27.1608 6.18162 26.2835 6.05371 25.777 6.05371C25.5215 6.05371 25.3596 6.08664 25.3596 6.08664C25.8405 6.71859 26.188 7.76768 25.6331 8.4149C25.1531 8.97094 23.981 8.99767 23.981 9.82674C23.981 10.178 24.3071 10.5875 24.893 10.9556C26.6547 12.071 28.4036 13.5515 29.1314 15.5352C30.04 18.009 29.016 19.6519 27.5548 20.5936C27.5548 20.5936 28.0135 21.0179 28.6776 21.0723C28.8134 21.0852 28.9453 21.0914 29.0683 21.0914C30.4716 21.0914 31.1975 20.4299 31.1975 20.4299C31.1975 20.4299 31.0774 21.3439 30.3477 22.1925C29.6736 22.9757 28.79 23.4378 27.4404 23.4568C27.4404 23.4568 27.3981 24.0859 27.9954 24.631C28.3781 24.9747 29.2601 25.0864 29.2601 25.0864C29.2601 25.0864 27.6075 25.4234 27.4252 27.8776C27.326 29.2073 26.9879 29.6693 26.9879 29.6693H27.0174C30.8528 29.6693 30.7546 26.3621 30.7546 26.3621C30.7546 26.3621 31.0214 27.3415 32.0915 27.5969C32.2206 27.6308 32.3587 27.6442 32.4902 27.6442C32.8344 27.6442 33.1339 27.5626 33.1339 27.5626C33.1339 27.5626 32.5732 26.3746 33.1292 24.7126C33.5902 23.3332 33.5161 22.3113 33.5161 22.3113C33.5161 22.3113 34.0322 23.097 35.314 23.1042H35.3268C36.3935 23.1042 36.8583 22.2914 36.8583 22.2914C34.3013 21.2236 34.5539 17.7795 34.5539 17.7795C34.5539 17.7795 34.8857 18.0286 35.5328 18.052Z" fill="#FFFFFE"/>
<path fill-rule="evenodd" clip-rule="evenodd" d="M9.98417 25.6849C8.44365 23.8712 7.12624 21.9878 6.95201 19.2729C6.79298 19.766 6.13784 21.1348 5.09816 21.6508C5.09816 21.6508 6.40512 20.858 6.99237 17.7694V17.7932C7.38118 14.6484 9.65233 12.3764 12.1808 10.9965C12.4125 10.8696 12.6313 10.7632 12.8388 10.6615C12.0702 10.7813 10.8306 10.7956 9.87403 9.96133C9.87403 9.96133 11.3382 11.0439 14.3352 10.0606C13.5058 10.6023 11.8945 11.366 10.4219 12.6037C6.73981 15.8555 9.37318 19.0276 9.37318 19.0276C8.04914 17.6391 7.99596 16.1528 8.38525 14.9381C7.68786 16.1041 7.24208 17.5184 7.31376 19.2634C7.41441 21.7625 8.78023 23.9241 10.2149 25.661C10.9094 26.5035 11.0656 27.5387 11.0656 27.5387C11.0656 27.5387 10.7832 26.6251 9.98417 25.6849ZM10.6004 25.0864C10.6004 25.0864 11.4829 24.9751 11.866 24.6305C12.4628 24.0859 12.42 23.4568 12.42 23.4568C11.0703 23.4378 10.1874 22.9757 9.50944 22.193C8.78403 21.3439 8.66345 20.4299 8.66345 20.4299C8.66345 20.4299 9.38885 21.0914 10.7903 21.0914C10.9161 21.0914 11.0471 21.0852 11.1824 21.0723C11.8475 21.0179 12.3075 20.594 12.3075 20.594C10.8449 19.6519 9.82038 18.0095 10.7281 15.5352C11.4559 13.552 13.2043 12.071 14.967 10.9551C15.5519 10.5875 15.8781 10.178 15.8781 9.82674C15.8781 8.99767 14.7074 8.97094 14.2279 8.4149C13.6729 7.76768 14.0204 6.71859 14.5004 6.08664C14.5004 6.08664 14.3403 6.05371 14.0835 6.05371C13.5775 6.05371 12.7006 6.18162 11.9795 6.93337C11.02 7.92901 11.4179 9.0139 11.4179 9.0139L11.1616 9.06402C11.0086 9.09647 10.8543 9.10268 10.6972 9.11127C10.6611 9.11127 10.6293 9.1127 10.5956 9.1127C9.20085 9.1127 8.58274 7.65122 8.58274 7.65122C8.58274 7.65122 7.10441 9.47927 9.28109 10.9126C9.65565 11.1574 9.82038 11.3851 9.77671 11.6271L9.74301 11.7855L9.58491 11.8137C8.00973 12.2442 7.2098 13.3382 6.23421 14.5825C4.75398 16.4745 2.6618 16.5361 2.40117 16.5361H2.37268C2.37268 16.5361 2.85027 18.0534 4.26024 18.0534C4.28256 18.0534 4.30344 18.0534 4.32718 18.052C4.9752 18.0286 5.30752 17.7795 5.30752 17.7795C5.30752 17.7795 5.55818 21.2236 3.00219 22.2909C3.00219 22.2909 3.46791 23.1046 4.53417 23.1046H4.54699C5.82925 23.097 6.34483 22.3113 6.34483 22.3113C6.34483 22.3113 6.27029 23.3337 6.72984 24.7126C7.28576 26.3751 6.72794 27.5631 6.72794 27.5631C6.72794 27.5631 7.02607 27.6442 7.37026 27.6442C7.50366 27.6442 7.64039 27.6308 7.76856 27.5969C8.8372 27.3415 9.10496 26.3621 9.10496 26.3621C9.10496 26.3621 9.00715 29.6693 12.843 29.6693H12.8706C12.8706 29.6693 12.5349 29.2073 12.4362 27.8771C12.2544 25.4234 10.6004 25.0864 10.6004 25.0864Z" fill="#FFFFFE"/>
<path fill-rule="evenodd" clip-rule="evenodd" d="M19.0636 12.8996H20.8719V13.5235C20.6592 13.2615 20.2452 13.3149 20.2452 13.3149V14.2141C20.2452 14.2141 20.2605 14.6566 20.4152 14.848H19.5204C19.6769 14.6566 19.6908 14.2141 19.6908 14.2141V13.3149C19.6908 13.3149 19.2782 13.2615 19.0636 13.5235V12.8996ZM17.0934 12.9932C17.1566 13.0609 17.2183 13.1344 17.2781 13.209C17.2923 13.2261 17.3052 13.2414 17.3194 13.2615C17.3745 13.335 17.43 13.4133 17.4837 13.493C17.4956 13.5087 17.5069 13.5277 17.5197 13.5459C17.5839 13.6437 17.6446 13.7445 17.7049 13.8485C18.2584 14.8089 19.1433 15.3825 19.9291 15.384C20.7157 15.3825 21.5997 14.8089 22.1546 13.8485C22.2159 13.7416 22.278 13.6386 22.3422 13.5416C22.3517 13.5277 22.3621 13.5134 22.3707 13.4991C22.4257 13.4166 22.4827 13.3364 22.5425 13.2585C22.5554 13.2414 22.5672 13.2261 22.5786 13.2118C22.6403 13.1344 22.7039 13.06 22.7689 12.9908C22.7798 12.9798 22.7893 12.9694 22.7998 12.9603C23.0818 12.6701 23.4174 12.4491 23.8575 12.3269L23.6615 12.2119H23.6506L22.872 11.7575L22.0721 11.2969L19.9348 12.4668L19.9291 12.4619L19.9253 12.4668L17.7876 11.2969L16.988 11.7575L16.208 12.2119H16.199L16.0015 12.3269C16.4416 12.4491 16.7763 12.6677 17.0593 12.9583C17.0716 12.9694 17.0802 12.9823 17.0934 12.9932Z" fill="#FFFFFE"/>
<path fill-rule="evenodd" clip-rule="evenodd" d="M19.2485 8.93581V9.52289L19.1365 9.47134C19.1312 9.46704 18.9664 9.42981 18.6797 9.20119C18.2064 8.83223 18.1969 8.49145 18.1969 8.49145L19.2485 8.93581ZM19.7445 11.6902V8.03849L17.4326 7.25L18.0421 10.7887L19.7445 11.6902Z" fill="#FFFFFE"/>
<path fill-rule="evenodd" clip-rule="evenodd" d="M20.6123 8.93581L21.6639 8.49145C21.6639 8.49145 21.6549 8.83223 21.1797 9.20119C20.8939 9.42981 20.7291 9.46704 20.7234 9.47134L20.6123 9.52289V8.93581ZM21.8178 10.7887L22.4254 7.25L20.1149 8.03849V11.6902L21.8178 10.7887Z" fill="#FFFFFE"/>
<path fill-rule="evenodd" clip-rule="evenodd" d="M16.475 20.1561C16.6996 20.2381 16.9731 20.2554 17.1131 20.2554C17.1184 20.2381 17.1259 20.2166 17.1326 20.1905C17.1449 20.1489 17.1568 20.1073 17.1653 20.062C17.2047 19.8597 17.2185 19.631 17.2218 19.4831C17.1274 19.4234 16.993 19.3184 16.918 19.1609C16.8326 18.9795 16.7096 18.8945 16.5311 18.8945C16.2984 18.8945 16.0492 19.0354 15.9414 19.1013C15.8565 19.6062 16.2268 20.0639 16.475 20.1561Z" fill="#FFFFFE"/>
<path fill-rule="evenodd" clip-rule="evenodd" d="M21.5889 18.2188C21.1598 18.6884 20.3185 19.5055 20.2781 19.5461L20.2273 19.5976L17.5716 19.5557C17.5697 19.8201 17.527 20.0449 17.4858 20.21C17.4791 20.2372 17.4715 20.2659 17.4644 20.2945L20.6233 20.8658C20.9518 20.6348 21.8561 19.9704 22.208 19.7103C21.9525 19.3351 21.9284 18.8902 21.9858 18.5772C21.8178 18.4698 21.6905 18.3476 21.5889 18.2188Z" fill="#FFFFFE"/>
<path fill-rule="evenodd" clip-rule="evenodd" d="M21.9487 15.0068C21.3367 15.6168 20.7499 15.8435 20.2258 15.8955C20.1299 15.9055 20.034 15.9117 19.9366 15.9117H19.9234C19.8256 15.9117 19.7287 15.9055 19.6343 15.8955C19.5421 15.8874 19.4463 15.8726 19.3499 15.8507C19.3157 15.9881 19.2721 16.2745 19.3965 16.547C19.5075 16.7933 19.733 16.9766 20.062 17.0993L20.1726 17.1427L20.1746 17.2625C20.1746 17.2978 20.2006 18.0749 21.0424 18.2906C21.1801 18.1484 21.3048 18.0195 21.3975 17.9116C21.2256 17.5045 21.3158 17.0888 21.5655 16.8855C21.5546 16.9284 21.445 17.9479 22.2577 18.3269L22.3916 18.3908L22.3517 18.5341C22.3384 18.5769 22.0673 19.5641 23.052 19.9311L23.2261 19.9974L23.1487 20.1673C23.1317 20.205 22.7458 21.1 23.6548 21.6088H25.626V20.0351C24.9248 19.9492 24.6286 19.3827 24.5516 18.9817C24.2255 18.9254 23.9738 18.7841 23.8006 18.5536C23.3871 18.0061 23.7427 17.5045 23.7474 17.4773C23.7464 17.4815 23.7474 18.0151 24.075 18.345C24.2378 18.5034 24.4297 18.6271 24.7206 18.6548L24.864 18.6677L24.8763 18.8151C24.8787 18.8461 24.9575 19.5692 25.626 19.6824L25.6245 16.4677C25.6245 15.9699 25.7688 15.4693 25.9426 15.0068H21.9487Z" fill="#FFFFFE"/>
<path fill-rule="evenodd" clip-rule="evenodd" d="M16.6432 16.4801L16.5896 18.5267L16.8213 18.5625L17.3871 16.5984L17.0999 15.9941L16.6432 16.4801Z" fill="#FFFFFE"/>
<path fill-rule="evenodd" clip-rule="evenodd" d="M17.8689 24.0574C17.8029 24.0555 17.7544 23.9991 17.7588 23.9328C17.7639 23.8693 17.8176 23.8191 17.8826 23.8249C17.9491 23.8273 17.9957 23.886 17.9938 23.9485C17.9876 24.0134 17.932 24.0631 17.8689 24.0574ZM22.8817 25.8691C22.8992 25.8691 22.9187 25.8716 22.9377 25.8763C23.2899 25.9775 23.3787 27.2533 23.9963 27.3669C24.0571 27.3798 24.1127 27.3837 24.1616 27.3837C24.3405 27.3837 24.4469 27.3072 24.5618 27.1708C24.5618 27.1708 24.2508 26.6801 24.0186 26.3484C23.7096 25.915 23.4704 25.3914 22.8954 25.3914C22.8817 25.3914 22.865 25.3914 22.8508 25.3933C22.6619 25.4028 22.5451 25.4959 22.5451 25.4959C22.312 25.3485 22.095 25.2988 21.8994 25.2988C21.5396 25.2988 21.2594 25.4649 21.1189 25.4649H21.1138L19.83 25.3374C19.6297 25.3179 19.4707 25.1146 19.4137 25.0353C19.3994 25.0134 19.3914 25.0009 19.3914 25.0009C19.3914 24.9657 19.3914 24.9299 19.3894 24.8979C19.3463 23.8426 18.5336 23.3911 18.2439 23.3839C18.2439 23.3839 18.2782 23.1829 18.2003 23.1066L17.9164 23.4521L16.9883 22.9834L17.651 23.762L17.0898 24.3952C17.0191 24.4673 17.0282 24.5648 17.0576 24.6062L17.2997 24.8215L17.6074 24.6339C17.6225 24.6225 17.651 24.6187 17.6847 24.6187C17.7697 24.6187 17.8974 24.6411 18.0118 24.6411C18.1376 24.6411 18.2453 24.6143 18.2587 24.496C18.2202 24.8874 17.8589 25.5671 18.0958 26.1016L18.2719 26.5049L17.1369 26.3408L16.6056 27.2423C16.4418 27.5426 16.4162 27.8671 16.5738 28.0442L16.7723 28.2938C16.7723 28.2938 17.0514 27.997 17.1135 27.8013L17.0234 27.7015C16.9475 27.6175 16.9512 27.5426 16.9978 27.4524L17.331 26.8968L18.6702 27.2142L18.741 27.093C18.8321 26.9407 18.9631 26.8958 19.1066 26.8958C19.1659 26.8958 19.2262 26.903 19.2893 26.913C19.5381 26.9622 19.9473 27.0285 20.3566 27.0285C20.8051 27.0285 21.2509 26.9479 21.4888 26.6801C21.974 27.4032 22.9572 27.5182 22.8798 27.8858L22.6205 29.1248C22.7919 29.1172 22.9572 29.1062 23.1138 29.0843L23.3602 27.7955C23.3872 27.6548 23.4129 27.4662 23.4129 27.4662C23.3184 27.3693 23.0886 27.1651 22.9591 26.9164C22.7857 26.5813 22.8798 26.4062 22.7183 25.9703C22.7183 25.9703 22.7681 25.8691 22.8817 25.8691Z" fill="#FFFFFE"/>
<path fill-rule="evenodd" clip-rule="evenodd" d="M16.0396 27.0409C16.0396 27.0409 16.4839 26.8571 16.5233 26.7263L16.464 26.5774C16.4217 26.48 16.4274 26.3751 16.5091 26.3182L16.9881 25.9846L17.7884 26.1398C17.7884 26.1398 17.6437 25.9569 17.6579 25.7135L16.8936 25.5508L16.1729 25.9922C15.8639 26.2242 15.8416 26.6041 15.9436 26.8294L16.0396 27.0409Z" fill="#FFFFFE"/>
<path fill-rule="evenodd" clip-rule="evenodd" d="M21.7037 29.1408C21.8466 29.1351 22.0056 29.1327 22.1789 29.1327C22.1789 29.1327 22.591 27.9209 22.6142 27.8826C22.3835 27.78 21.9035 27.5242 21.7184 27.4072C21.8414 27.5915 22.1381 27.801 22.0792 27.9632L21.7037 29.1408Z" fill="#FFFFFE"/>
<path fill-rule="evenodd" clip-rule="evenodd" d="M25.626 21.9561H14.2351V26.2637C14.2351 28.0258 15.5031 29.1284 17.3746 29.1284C18.9373 29.1284 19.3499 29.1899 19.9314 29.7699C20.3322 29.368 20.6636 29.2181 21.3443 29.1623L21.3604 29.0955L21.7194 27.9796C21.6994 27.9542 21.1121 27.2841 21.1121 27.2841C20.8796 27.3619 20.684 27.3748 20.3559 27.3748C20.0183 27.3748 19.6386 27.3352 19.2251 27.2574C19.1837 27.2478 19.1449 27.2436 19.1064 27.2436C19.0555 27.2436 19.0523 27.2478 19.039 27.2727L18.9678 27.391L18.8372 27.6082L18.5913 27.5509L17.4979 27.2923L17.3479 27.541L17.3702 27.5676L17.5032 27.7151L17.4443 27.907C17.3637 28.158 17.103 28.4511 17.0232 28.5322L16.7502 28.8268L16.501 28.5103L16.314 28.2745C16.1174 28.0531 16.0719 27.7151 16.1825 27.36C16.1801 27.3619 16.1763 27.3638 16.1716 27.3643L15.8634 27.4927L15.7248 27.1896L15.6275 26.9748C15.4599 26.5968 15.5217 26.0446 15.9736 25.7105L16.8533 25.2107L17.6907 25.3764C17.7107 25.2957 17.7406 25.0064 17.7647 24.9329C17.7482 24.9311 17.7334 24.9273 17.7169 24.9273L17.2345 25.1086L16.7687 24.7855C16.7687 24.7855 16.587 24.6094 16.7522 24.4333L17.2022 23.7469L16.0604 22.3059L17.8151 23.0305L17.9323 22.8854L18.1687 22.6L18.438 22.8572C18.5139 22.9307 18.5576 23.0213 18.5789 23.1121C19.0622 23.3016 19.9291 23.86 20.0056 24.7683L19.7344 24.8772V24.8838C19.7967 24.9578 19.8479 24.9883 19.8641 24.9912L21.1165 25.1148C21.1487 25.1096 21.1877 25.0953 21.2322 25.0824C21.3884 25.0289 21.6216 24.9516 21.8988 24.9516C22.1248 24.9516 22.3427 25.0036 22.5526 25.1025C22.6299 25.0729 22.7249 25.0514 22.835 25.0442L22.8953 25.0427C23.5656 25.0427 23.8993 25.5463 24.1666 25.9486C24.2113 26.0183 24.2558 26.0837 24.3024 26.1487C24.536 26.4808 24.8422 26.9667 24.8545 26.9877L24.9927 27.2045L24.8237 27.4025C24.6936 27.5538 24.4975 27.7319 24.1619 27.7319C24.0926 27.7319 24.0166 27.7242 23.935 27.7085C23.8638 27.6951 23.7982 27.6736 23.7356 27.6469C23.7266 27.7137 23.7123 27.7929 23.7 27.8611L23.4807 29.0133C24.7942 28.6888 25.6284 27.6917 25.6284 26.2637L25.626 21.9561Z" fill="#FFE52B"/>
<path fill-rule="evenodd" clip-rule="evenodd" d="M14.2353 21.6088H23.0948C22.6524 21.1491 22.659 20.5673 22.7715 20.1892C22.6424 20.1272 22.536 20.0528 22.4416 19.9706C22.0951 20.2275 21.0382 21.0012 20.7619 21.1949L20.7026 21.2351L17.2256 20.6031H17.1554C17.0719 20.6031 16.9498 20.5998 16.816 20.5835C16.7784 20.742 16.6431 20.8494 16.4883 20.8494C16.4703 20.8494 16.4508 20.848 16.4328 20.8441C16.3421 20.8284 16.2628 20.782 16.2102 20.7057C16.1561 20.6303 16.1346 20.541 16.1494 20.4489L16.1622 20.3736C15.8043 20.1196 15.4729 19.5521 15.6196 18.954L15.6339 18.891L15.6847 18.8542C15.6917 18.8491 15.7515 18.8075 15.8418 18.7564L15.5892 18.7173C15.4947 18.7006 15.4311 18.6118 15.4458 18.5182C15.462 18.4232 15.5507 18.3555 15.6438 18.3737L16.2458 18.4691L16.3008 16.3385L17.1962 15.3857L17.7554 16.5689L17.1653 18.619L17.6975 18.703C17.7911 18.7178 17.8551 18.8061 17.8409 18.903C17.8271 18.9889 17.754 19.0467 17.6704 19.0467C17.6614 19.0467 17.6519 19.0467 17.643 19.0457L17.2105 18.9755C17.2161 18.9889 17.2247 18.9965 17.2299 19.0099C17.2759 19.1058 17.3781 19.1736 17.4379 19.2036L20.0883 19.2461C20.2008 19.1364 20.4785 18.8624 20.7653 18.5727C20.1125 18.3236 19.8756 17.7588 19.8362 17.3833C19.4716 17.2272 19.22 16.9933 19.0804 16.6893C18.9105 16.3127 18.9707 15.9352 19.0163 15.7518C18.6627 15.6225 18.2914 15.3857 17.9116 15.0068H13.9186C14.09 15.4693 14.2353 15.9699 14.2353 16.4677V21.6088Z" fill="#FFE52B"/>
<path fill-rule="evenodd" clip-rule="evenodd" d="M17.8825 23.8247C17.8175 23.8185 17.7639 23.8693 17.7586 23.9334C17.7544 24 17.8028 24.0565 17.8687 24.0579C17.9319 24.0632 17.9874 24.0143 17.9936 23.9488C17.9955 23.8861 17.949 23.8272 17.8825 23.8247Z" fill="#1A1919"/>
<path fill-rule="evenodd" clip-rule="evenodd" d="M23.1627 32.8571L22.6423 31.4181C23.2614 31.2286 24.3258 30.8211 24.8028 30.5499L24.4848 31.5971L25.5624 31.9575C24.9106 32.2863 24.1202 32.5932 23.1627 32.8571ZM19.9321 34.1507C18.6778 34.1507 17.2469 33.8605 16.8249 33.7096L17.4657 31.9671C17.997 32.1231 19.1027 32.2888 19.905 32.2835H19.9558C20.7581 32.2888 21.8624 32.1231 22.3964 31.9671L23.0359 33.7096C22.6143 33.8605 21.183 34.1507 19.9321 34.1507ZM14.2983 31.9575L15.3778 31.5971L15.0584 30.5499C15.5345 30.8211 16.6009 31.2286 17.2184 31.4181L16.6976 32.8571C15.7435 32.5932 14.9497 32.2863 14.2983 31.9575ZM25.6108 31.6377L24.9548 31.3847L25.1361 30.7026L25.3355 29.96C25.3355 29.96 24.1729 30.5944 22.5341 31.0702C22.0694 31.2038 21.7175 31.2654 21.7175 31.2654V31.7714C21.7175 31.7714 20.8412 31.9241 19.9558 31.9241H19.905C19.0187 31.9241 18.1437 31.7714 18.1437 31.7714V31.2654C18.1437 31.2654 17.7909 31.2038 17.3267 31.0702C15.6884 30.5944 14.5267 29.96 14.5267 29.96L14.7232 30.7026L14.9084 31.3847L14.2499 31.6377L13.5198 31.9117C14.3563 32.3184 15.516 32.9092 16.5771 33.2014L16.3269 33.8891C16.3269 33.8891 17.6727 34.5053 19.915 34.511V34.5124H19.9453V34.511C22.1899 34.5053 23.5349 33.8891 23.5349 33.8891L23.2832 33.2014C24.3448 32.9092 25.5065 32.3184 26.3391 31.9117L25.6108 31.6377Z" fill="#1A1919"/>
<path fill-rule="evenodd" clip-rule="evenodd" d="M17.1903 3.90223L17.4885 3.93373L17.6176 3.66024L17.9931 2.85218L18.691 3.21492L18.9611 3.35381L19.9292 2.38872L20.6835 3.13951L20.8995 3.35381L21.1701 3.21492L21.8637 2.85218L22.2449 3.66024L22.3711 3.93373L22.6693 3.90223L22.9547 3.86786C22.824 4.16331 22.7277 4.44444 22.6589 4.67688C21.9059 4.25495 20.9275 4.01487 19.9292 4.01487C18.9355 4.01487 17.958 4.25495 17.2022 4.67688C17.1325 4.44444 17.037 4.16331 16.9065 3.86786L17.1903 3.90223ZM19.9292 4.43632C21.265 4.43632 22.3337 4.88164 22.9243 5.3556C22.9243 5.3556 23.0994 4.29409 23.6981 3.35764L22.6223 3.48078L22.0593 2.27847L20.9783 2.83882L19.9292 1.79688L18.8832 2.83882L17.7999 2.27847L17.2378 3.48078L16.1621 3.35764C16.7612 4.29409 16.9359 5.3556 16.9359 5.3556C17.5303 4.88164 18.5956 4.43632 19.9292 4.43632Z" fill="#1A1919"/>
<path fill-rule="evenodd" clip-rule="evenodd" d="M36.8589 22.2914C36.8589 22.2914 36.3942 23.1053 35.327 23.1053H35.3136C34.0328 23.0976 33.5163 22.312 33.5163 22.312C33.5163 22.312 33.5903 23.3339 33.1294 24.7133C32.5735 26.3757 33.1341 27.5631 33.1341 27.5631C33.1341 27.5631 32.8346 27.6448 32.4904 27.6448C32.3589 27.6448 32.2212 27.6315 32.0916 27.5975C31.0216 27.3422 30.7548 26.3628 30.7548 26.3628C30.7548 26.3628 30.853 29.67 27.0176 29.67H26.9877C26.9877 29.67 27.3257 29.208 27.4255 27.8782C27.6077 25.4239 29.2603 25.087 29.2603 25.087C29.2603 25.087 28.3782 24.9758 27.996 24.6317C27.3984 24.0866 27.4406 23.4575 27.4406 23.4575C28.7898 23.4384 29.6743 22.9764 30.3479 22.1932C31.0775 21.3444 31.1976 20.4304 31.1976 20.4304C31.1976 20.4304 30.4718 21.092 29.0689 21.092C28.9455 21.092 28.8135 21.0858 28.6783 21.0729C28.0141 21.0185 27.5555 20.5947 27.5555 20.5947C29.0163 19.6525 30.0407 18.0097 29.1321 15.5358C28.4039 13.5526 26.6549 12.0716 24.8936 10.9556C24.3078 10.5882 23.9812 10.1786 23.9812 9.82687C23.9812 8.99828 25.1533 8.97156 25.6333 8.4155C26.1883 7.7683 25.8403 6.71919 25.3598 6.08726C25.3598 6.08726 25.5217 6.05433 25.7771 6.05433C26.2837 6.05433 27.161 6.18224 27.8821 6.93398C28.8392 7.92961 28.4423 9.01451 28.4423 9.01451L28.6987 9.06463C28.852 9.09709 29.0049 9.10329 29.1634 9.1114C29.1976 9.1114 29.2327 9.11331 29.2664 9.11331C30.6575 9.11331 31.2794 7.65135 31.2794 7.65135C31.2794 7.65135 32.7577 9.47987 30.5805 10.9132C30.206 11.158 30.0407 11.3857 30.0839 11.6277L30.1181 11.7866L30.2729 11.8143C31.8509 12.2444 32.6494 13.3393 33.6246 14.5831C35.1057 16.4756 37.2003 16.5367 37.4585 16.5367H37.4866C37.4866 16.5367 37.0089 18.054 35.5999 18.054C35.5762 18.054 35.5563 18.054 35.533 18.0526C34.8859 18.0292 34.5536 17.78 34.5536 17.78C34.5536 17.78 34.3016 21.2242 36.8589 22.2914ZM35.5999 18.5184C37.3271 18.5184 37.9052 16.7519 37.929 16.6761L38.1222 16.0532L37.4747 16.0737H37.4723C37.2439 16.0737 35.3379 16.0226 33.9868 14.2963L33.8591 14.1359C32.9761 13.0075 32.1391 11.9336 30.6418 11.4439C30.6849 11.4043 30.7472 11.3566 30.8321 11.3008C31.6268 10.7757 32.0888 10.1376 32.2046 9.39682C32.3746 8.28281 31.6672 7.39409 31.6363 7.35782L31.1554 6.75977L30.855 7.46903C30.8345 7.51341 30.3298 8.64891 29.2664 8.64891H29.1871C29.1145 8.64509 29.0448 8.64222 28.9769 8.6365C29.0139 8.13008 28.9222 7.34636 28.2149 6.61037C27.3646 5.72546 26.3221 5.59277 25.7771 5.59277C25.4857 5.59277 25.2919 5.62905 25.2706 5.63096L24.5447 5.77605L24.9923 6.36982C25.3441 6.82754 25.6627 7.67235 25.2848 8.11337C25.1638 8.25418 24.9155 8.36778 24.6777 8.48233C24.1887 8.70809 23.5202 9.02453 23.5202 9.82687C23.5202 10.3462 23.9214 10.8898 24.6482 11.3519C26.7988 12.7117 28.1257 14.1306 28.6987 15.6971C29.5855 18.1065 28.4285 19.4806 27.3053 20.2051L26.8011 20.5307L27.2426 20.9383C27.302 20.9908 27.8408 21.4685 28.6384 21.5373C28.7893 21.5473 28.9337 21.5554 29.0689 21.5554C29.5793 21.5554 30.0146 21.4748 30.3683 21.3665C30.2714 21.5373 30.1509 21.7125 30.0009 21.8881C29.359 22.636 28.5691 22.9764 27.433 22.995L27.0109 23.0017L26.9787 23.4274C26.9744 23.5134 26.9431 24.3028 27.6856 24.9739C27.7995 25.0779 27.9367 25.1634 28.081 25.233C27.5769 25.6894 27.0651 26.4841 26.9659 27.8448C26.8818 28.9808 26.6127 29.4012 26.6094 29.4056L26.1431 30.1215L26.9863 30.1329C28.3791 30.1329 29.4459 29.7469 30.1851 28.9808C30.6218 28.5279 30.872 28.0161 31.0191 27.5631C31.2618 27.7708 31.5747 27.9532 31.9829 28.05C32.1377 28.0863 32.3067 28.1064 32.4904 28.1064C32.884 28.1064 33.2134 28.0223 33.25 28.0133L33.7883 27.8696L33.5505 27.3646C33.533 27.3241 33.0838 26.3098 33.5671 24.8641C33.775 24.2384 33.8814 23.6785 33.9331 23.2422C34.2721 23.4198 34.7264 23.5663 35.3132 23.5682C36.6458 23.5682 37.2335 22.5673 37.2596 22.5253L37.5222 22.0657L37.0355 21.8643C35.4476 21.2013 35.0957 19.421 35.0255 18.4573C35.1689 18.4855 35.3331 18.5108 35.5183 18.516L35.5999 18.5184Z" fill="#1A1919"/>
<path fill-rule="evenodd" clip-rule="evenodd" d="M33.6588 10.9596C33.9806 10.9596 34.3558 11.0698 34.7104 11.4382C35.8236 12.5743 36.859 12.6378 36.859 12.6378C36.6711 13.0568 36.1255 13.4243 35.5606 13.4243C35.4301 13.4243 35.2985 13.4043 35.1689 13.3589C34.4027 13.0993 34.1288 11.9447 32.7839 11.2249C32.7839 11.2249 33.1589 10.9596 33.6588 10.9596ZM32.5646 11.6354C33.2087 11.9805 33.5842 12.443 33.9133 12.853C34.2371 13.2534 34.5433 13.6382 35.0241 13.7985C35.1946 13.8572 35.3759 13.8854 35.5606 13.8854C36.2808 13.8854 37.0053 13.442 37.2796 12.8277L37.556 12.2124L36.8875 12.1724C36.8561 12.1719 35.9964 12.0927 35.0408 11.1108C34.6472 10.7075 34.1711 10.4961 33.6588 10.4961C33.0326 10.4961 32.5683 10.8106 32.5171 10.8431L31.9033 11.2779L32.5646 11.6354Z" fill="#1A1919"/>
<path fill-rule="evenodd" clip-rule="evenodd" d="M32.8668 17.77V17.7939C32.4794 14.6485 30.2077 12.3771 27.6798 10.9967C27.4462 10.8707 27.2297 10.7638 27.0209 10.6616C27.7899 10.7819 29.0295 10.7962 29.9866 9.96191C29.9866 9.96191 28.5224 11.0444 25.5245 10.0612C26.3538 10.6024 27.9666 11.3666 29.4396 12.6042C33.1198 15.856 30.487 19.0277 30.487 19.0277C31.8095 17.6397 31.8646 16.1529 31.4753 14.9387C32.1718 16.1047 32.6171 17.5189 32.5478 19.2639C32.4467 21.763 31.0799 23.9248 29.6424 25.6611C28.9516 26.504 28.7973 27.5398 28.7973 27.5398C28.7973 27.5398 29.076 26.6258 29.8754 25.6855C31.4165 23.8717 32.7339 21.9883 32.9066 19.2734C33.0657 19.7665 33.7223 21.1354 34.7634 21.6514C34.7634 21.6514 33.455 20.8586 32.8668 17.77Z" fill="#1A1919"/>
<path fill-rule="evenodd" clip-rule="evenodd" d="M12.8432 29.67C9.00739 29.67 9.10518 26.3628 9.10518 26.3628C9.10518 26.3628 8.83742 27.3422 7.76879 27.5975C7.64061 27.6315 7.50389 27.6448 7.37049 27.6448C7.0263 27.6448 6.72816 27.5631 6.72816 27.5631C6.72816 27.5631 7.28598 26.3757 6.73006 24.7133C6.27051 23.3343 6.34505 22.312 6.34505 22.312C6.34505 22.312 5.82949 23.0976 4.54722 23.1053H4.5344C3.46813 23.1053 3.00242 22.2914 3.00242 22.2914C5.55793 21.2242 5.30775 17.78 5.30775 17.78C5.30775 17.78 4.97543 18.0292 4.32741 18.0526C4.30368 18.054 4.28278 18.054 4.26048 18.054C2.8505 18.054 2.37291 16.5367 2.37291 16.5367H2.40139C2.66203 16.5367 4.7542 16.4751 6.23444 14.5831C7.21002 13.3388 8.00949 12.2449 9.58514 11.8143L9.74323 11.7862L9.77693 11.6277C9.82061 11.3857 9.65588 11.158 9.28131 10.9132C7.10463 9.47987 8.58297 7.65183 8.58297 7.65183C8.58297 7.65183 9.20108 9.11331 10.5959 9.11331C10.6296 9.11331 10.6614 9.11188 10.6975 9.11188C10.8541 9.10329 11.0089 9.09709 11.1618 9.06463L11.4181 9.01451C11.4181 9.01451 11.0198 7.92961 11.9797 6.93398C12.7009 6.18224 13.5772 6.05433 14.0837 6.05433C14.3406 6.05433 14.5001 6.08726 14.5001 6.08726C14.0206 6.71919 13.6731 7.7683 14.2276 8.4155C14.7076 8.97156 15.8783 8.99828 15.8783 9.82687C15.8783 10.1786 15.5521 10.5882 14.9672 10.9556C13.2045 12.0716 11.4561 13.5526 10.7283 15.5358C9.82061 18.0101 10.8451 19.6525 12.3078 20.5947C12.3078 20.5947 11.8477 21.0185 11.1827 21.0729C11.0473 21.0858 10.9163 21.092 10.7905 21.092C9.38907 21.092 8.66367 20.4304 8.66367 20.4304C8.66367 20.4304 8.78425 21.3444 9.50966 22.1936C10.1876 22.9764 11.0706 23.4384 12.4202 23.4575C12.4202 23.4575 12.463 24.0866 11.8662 24.6312C11.4831 24.9758 10.6006 25.087 10.6006 25.087C10.6006 25.087 12.2546 25.4239 12.4364 27.8777C12.5352 29.208 12.8708 29.67 12.8708 29.67H12.8432ZM13.2511 29.4056C13.2497 29.4012 12.9818 28.9808 12.896 27.8448C12.7958 26.4835 12.2841 25.6894 11.7784 25.233C11.9246 25.1634 12.06 25.0779 12.1738 24.9739C12.9164 24.3028 12.8851 23.5134 12.8798 23.4274L12.8513 23.0017L12.426 22.995C11.2932 22.9764 10.5019 22.636 9.86001 21.8881C9.71095 21.7125 9.59037 21.5373 9.49256 21.3665C9.84577 21.4748 10.2783 21.5554 10.7905 21.5554C10.9277 21.5554 11.0706 21.5473 11.2216 21.5373C12.0192 21.4685 12.5589 20.9913 12.6188 20.9383L13.0602 20.5307L12.5565 20.2051C11.429 19.4806 10.2768 18.1065 11.1618 15.6971C11.7352 14.1306 13.0602 12.7117 15.2141 11.3519C15.941 10.8898 16.3387 10.3462 16.3387 9.82687C16.3387 9.02453 15.6723 8.70809 15.1833 8.48233C14.945 8.36778 14.6967 8.25418 14.576 8.11337C14.1972 7.67235 14.5162 6.82754 14.868 6.36982L15.3191 5.77605L14.5889 5.63096C14.5675 5.62857 14.3762 5.59277 14.0837 5.59277C13.5388 5.59277 12.4981 5.72546 11.6483 6.61037C10.94 7.34684 10.847 8.13008 10.8835 8.6365C10.8152 8.64222 10.7464 8.64509 10.6737 8.64891H10.5959C9.5296 8.64891 9.0259 7.51341 9.00644 7.46903L8.70688 6.75977L8.22122 7.35782C8.19415 7.39409 7.4849 8.28281 7.65771 9.39682C7.77212 10.1376 8.23499 10.7757 9.02922 11.3008C9.11563 11.3566 9.17592 11.4043 9.21912 11.4439C7.7199 11.9336 6.88388 13.0075 6.00087 14.1359L5.87363 14.2963C4.52443 16.0226 2.61408 16.0737 2.38574 16.0737L1.73486 16.0532L1.93283 16.6761C1.95609 16.7519 2.53195 18.5184 4.26048 18.5184L4.34355 18.516C4.5268 18.5108 4.69058 18.4855 4.83633 18.4573C4.76512 19.4205 4.41239 21.2013 2.82391 21.8643L2.33873 22.0657L2.60126 22.5253C2.62642 22.5673 3.21604 23.5682 4.55102 23.5682C5.13447 23.5663 5.58832 23.4198 5.92775 23.2428C5.97902 23.6785 6.08584 24.2384 6.29425 24.8641C6.77754 26.3098 6.32748 27.3241 6.3104 27.3646L6.0716 27.8696L6.6109 28.0133C6.64651 28.0223 6.97835 28.1064 7.37049 28.1064C7.55373 28.1064 7.72321 28.0863 7.87656 28.05C8.28531 27.9532 8.60148 27.7708 8.8417 27.5631C8.98792 28.0161 9.23906 28.5279 9.67487 28.9808C10.4159 29.7469 11.4817 30.1329 12.8742 30.1329L13.7177 30.1215L13.2511 29.4056Z" fill="#1A1919"/>
<path fill-rule="evenodd" clip-rule="evenodd" d="M5.14935 11.4383C5.5054 11.0703 5.87996 10.9595 6.20374 10.9595C6.70079 10.9595 7.07726 11.2254 7.07726 11.2254C5.73375 11.9451 5.45649 13.0998 4.68932 13.3599C4.56257 13.4052 4.43106 13.4243 4.30003 13.4243C3.73557 13.4243 3.18915 13.0573 3.00257 12.6382C3.00257 12.6382 4.03751 12.5748 5.14935 11.4383ZM4.30003 13.8858C4.48518 13.8858 4.66606 13.8582 4.83696 13.7994C5.31883 13.6386 5.62503 13.2544 5.94833 12.8535C6.27922 12.444 6.65047 11.9809 7.29516 11.6359L7.95837 11.2784L7.34263 10.8431C7.29136 10.8107 6.82944 10.4971 6.20374 10.4971C5.69007 10.4971 5.21344 10.708 4.82035 11.1113C3.86328 12.0936 3.0059 12.1724 2.97504 12.1734L2.30756 12.2129L2.58148 12.8287C2.85731 13.4425 3.58033 13.8858 4.30003 13.8858Z" fill="#1A1919"/>
<path fill-rule="evenodd" clip-rule="evenodd" d="M7.31393 19.2639C7.24224 17.5189 7.68801 16.1047 8.3854 14.9387C7.9966 16.1529 8.04929 17.6397 9.37381 19.0282C9.37381 19.0282 6.73996 15.856 10.4225 12.6042C11.8947 11.3666 13.5059 10.6024 14.3353 10.0612C11.3382 11.0444 9.87466 9.96191 9.87466 9.96191C10.8308 10.7962 12.0708 10.7819 12.8394 10.6616C12.6315 10.7638 12.4131 10.8702 12.1809 10.9967C9.65201 12.3771 7.38181 14.6485 6.99252 17.7939V17.77C6.40527 20.8586 5.09784 21.6514 5.09784 21.6514C6.138 21.1354 6.79313 19.7665 6.95265 19.2734C7.1264 21.9883 8.4438 23.8717 9.98433 25.6855C10.7838 26.6258 11.0653 27.5398 11.0653 27.5398C11.0653 27.5398 10.9091 26.504 10.215 25.6611C8.77992 23.9252 7.41457 21.763 7.31393 19.2639Z" fill="#1A1919"/>
<path fill-rule="evenodd" clip-rule="evenodd" d="M19.0636 12.9004V13.5242C19.2782 13.2621 19.6908 13.3156 19.6908 13.3156V14.2148C19.6908 14.2148 19.677 14.6573 19.5203 14.8487H20.4152C20.2604 14.6573 20.2453 14.2148 20.2453 14.2148V13.3156C20.2453 13.3156 20.6592 13.2621 20.8719 13.5242V12.9004H19.0636Z" fill="#1A1919"/>
<path fill-rule="evenodd" clip-rule="evenodd" d="M18.6797 9.20095C18.966 9.4291 19.1312 9.46728 19.1364 9.47062L19.2485 9.52265V8.93558L18.1969 8.49121C18.1969 8.49121 18.2059 8.83152 18.6797 9.20095Z" fill="#1A1919"/>
<path fill-rule="evenodd" clip-rule="evenodd" d="M21.1796 9.20095C21.6548 8.83152 21.6639 8.49121 21.6639 8.49121L20.6123 8.93558V9.52265L20.7233 9.47062C20.7291 9.46728 20.8938 9.4291 21.1796 9.20095Z" fill="#1A1919"/>
<path fill-rule="evenodd" clip-rule="evenodd" d="M19.9294 7.63681L17.3967 6.63068C17.6122 6.11805 18.6054 5.68181 19.9294 5.68038C21.2554 5.68181 22.2485 6.11805 22.4631 6.63068L19.9294 7.63681ZM21.8179 10.7884L20.1155 11.6904V8.03822L22.4255 7.24973L21.8179 10.7884ZM22.8723 11.7578L23.6509 12.2122H23.6618L23.8574 12.3272C23.4178 12.4494 23.0821 12.6704 22.8001 12.9605C22.7897 12.9697 22.7806 12.9801 22.7693 12.9912C22.7047 13.0603 22.6406 13.1348 22.5789 13.2121C22.568 13.2264 22.5557 13.2417 22.5428 13.2589C22.483 13.3367 22.4255 13.4169 22.3715 13.4994C22.3624 13.5137 22.352 13.5281 22.3425 13.5419C22.2784 13.6388 22.2162 13.7419 22.155 13.8488C21.6005 14.8092 20.7161 15.3828 19.9294 15.3842C19.1437 15.3828 18.2588 14.8092 17.7052 13.8488C17.645 13.7448 17.5842 13.6441 17.5201 13.5463C17.5073 13.5281 17.4959 13.5089 17.4841 13.4932C17.4299 13.4135 17.3749 13.3353 17.3198 13.2618C17.3056 13.2417 17.2927 13.2264 17.2785 13.2092C17.2182 13.1348 17.1564 13.0613 17.0938 12.9935C17.0805 12.9825 17.0715 12.9697 17.0601 12.9587C16.7767 12.668 16.442 12.4494 16.0019 12.3272L16.1993 12.2122H16.2084L16.9884 11.7578L17.7884 11.2972L19.9256 12.4671L19.9294 12.4623L19.9356 12.4671L22.0723 11.2972L22.8723 11.7578ZM25.9433 15.0068C25.7692 15.4692 25.6248 15.97 25.6248 16.4678L25.6262 19.6818C24.9583 19.5692 24.8794 18.8461 24.8766 18.8146L24.8643 18.6676L24.7204 18.6547C24.4304 18.6266 24.2376 18.5034 24.0753 18.345C23.7478 18.0156 23.7473 17.482 23.7478 17.4772C23.743 17.5044 23.3874 18.0055 23.8004 18.553C23.9742 18.7836 24.2262 18.9259 24.5519 18.9816C24.6284 19.3826 24.9255 19.9492 25.6262 20.0356V21.6087H23.6551C22.7465 21.0999 23.1315 20.2055 23.1491 20.1668L23.226 19.9973L23.0522 19.931C22.0676 19.564 22.3392 18.5769 22.352 18.5344L22.3919 18.3903L22.2575 18.3268C21.4453 17.9479 21.5549 16.9279 21.5658 16.8849C21.3157 17.0892 21.226 17.5044 21.3978 17.9121C21.3048 18.0194 21.1799 18.1483 21.0427 18.2911C20.2009 18.0753 20.1749 17.2977 20.1749 17.262L20.173 17.1421L20.0623 17.0992C19.7338 16.9771 19.5083 16.7932 19.3968 16.547C19.2723 16.2739 19.3161 15.9881 19.3502 15.8501C19.4466 15.8725 19.5425 15.8873 19.6341 15.8954C19.7291 15.905 19.8259 15.9113 19.9237 15.9113H19.937C20.0344 15.9113 20.1306 15.905 20.2256 15.8954C20.7502 15.8429 21.337 15.6167 21.9489 15.0068H25.9433ZM23.4804 29.0134L23.7007 27.8603C23.7121 27.7925 23.7263 27.7133 23.7358 27.6469C23.7985 27.6732 23.8635 27.6943 23.9348 27.7076C24.0174 27.7234 24.0929 27.7315 24.1617 27.7315C24.4978 27.7315 24.6939 27.5539 24.824 27.4021L24.9925 27.2046L24.8548 26.9874C24.8425 26.9659 24.5368 26.4804 24.3022 26.1483C24.2557 26.0829 24.212 26.018 24.1674 25.9477C23.9001 25.5459 23.5659 25.0423 22.8951 25.0423L22.8353 25.0438C22.7252 25.051 22.6302 25.073 22.5532 25.1021C22.3425 25.0032 22.1251 24.9517 21.8991 24.9517C21.6214 24.9517 21.3887 25.0286 21.233 25.0815C21.1884 25.0944 21.1486 25.1088 21.1172 25.1149L19.8639 24.9908C19.8482 24.9875 19.7975 24.9574 19.7347 24.8835V24.8772L20.0059 24.7679C19.9294 23.8596 19.0621 23.3012 18.5788 23.1117C18.5579 23.0211 18.5142 22.9303 18.4383 22.8564L18.169 22.5996L17.9322 22.885L17.8158 23.0301L16.0607 22.3055L17.2025 23.7465L16.7519 24.4329C16.5873 24.6085 16.7691 24.7856 16.7691 24.7856L17.2347 25.1077L17.7171 24.9269C17.7337 24.9269 17.7485 24.9307 17.765 24.9325C17.7413 25.006 17.711 25.2953 17.691 25.376L16.8536 25.2108L15.9738 25.7101C15.5214 26.0442 15.4597 26.5964 15.6278 26.9749L15.7251 27.1893L15.8637 27.4923L16.1718 27.3645C16.1761 27.3629 16.1804 27.3615 16.1833 27.3592C16.0726 27.7148 16.1177 28.0527 16.3147 28.2741L16.5018 28.5103L16.7505 28.8264L17.0235 28.5314C17.1033 28.4512 17.3644 28.1577 17.4442 27.9066L17.5035 27.7148L17.3705 27.5672L17.3483 27.5406L17.4982 27.2919L18.5911 27.551L18.8375 27.6078L18.968 27.3906L19.0393 27.2728C19.053 27.2474 19.0559 27.2437 19.1066 27.2437C19.1456 27.2437 19.184 27.2474 19.2259 27.257C19.6383 27.3353 20.0186 27.374 20.3562 27.374C20.6838 27.374 20.8798 27.3615 21.1129 27.2837C21.1129 27.2837 21.6997 27.9538 21.7201 27.9797L21.3602 29.0947L21.3446 29.1619C20.6638 29.2172 20.3325 29.3676 19.9318 29.7695C19.3502 29.1896 18.9381 29.1285 17.3749 29.1285C15.5034 29.1285 14.2349 28.0255 14.2349 26.2633V21.9557H25.6262L25.6287 26.2633C25.6287 27.6913 24.7945 28.6884 23.4804 29.0134ZM16.4643 26.5779L16.5236 26.7267C16.4842 26.857 16.0399 27.0413 16.0399 27.0413L15.9439 26.8298C15.8419 26.6045 15.8637 26.2246 16.1733 25.9922L16.8939 25.5512L17.6582 25.7139C17.644 25.9578 17.7888 26.1402 17.7888 26.1402L16.9884 25.9855L16.5094 26.3182C16.4277 26.3754 16.422 26.4804 16.4643 26.5779ZM23.3598 27.7955L23.1144 29.0836C22.9568 29.1061 22.7915 29.1176 22.6207 29.1242L22.8798 27.8861C22.9568 27.5181 21.9741 27.4036 21.4884 26.68C21.2515 26.9477 20.8053 27.0279 20.3562 27.0279C19.947 27.0279 19.5382 26.9625 19.2895 26.9129C19.2264 26.9028 19.166 26.8957 19.1066 26.8957C18.9633 26.8957 18.8323 26.9405 18.7416 27.0928L18.6704 27.2141L17.3311 26.8972L16.9979 27.4517C16.9514 27.542 16.9475 27.6174 17.0235 27.7014L17.1137 27.8006C17.0516 27.9968 16.7728 28.2937 16.7728 28.2937L16.5739 28.0436C16.4163 27.8665 16.442 27.542 16.6063 27.2418L17.1374 26.3401L18.2721 26.5048L18.096 26.101C17.8591 25.5664 18.2203 24.8872 18.2588 24.4959C18.2455 24.6143 18.1373 24.6409 18.0119 24.6409C17.8976 24.6409 17.7698 24.619 17.6848 24.619C17.6512 24.619 17.6227 24.6224 17.6074 24.6338L17.2998 24.8214L17.0577 24.6057C17.0282 24.5646 17.0192 24.4673 17.09 24.3947L17.6512 23.7618L16.9884 22.9828L17.9165 23.4521L18.2004 23.1064C18.2782 23.1833 18.2441 23.3837 18.2441 23.3837C18.5336 23.3909 19.3464 23.8424 19.3896 24.8973C19.392 24.9297 19.392 24.9655 19.392 25.0004C19.392 25.0004 19.3996 25.0138 19.4139 25.0352C19.4708 25.1149 19.6299 25.3182 19.8307 25.3369L21.1139 25.4647H21.1191C21.2596 25.4647 21.5397 25.2987 21.8991 25.2987C22.0952 25.2987 22.3126 25.3488 22.5447 25.4958C22.5447 25.4958 22.662 25.4027 22.851 25.3931C22.8652 25.3912 22.8818 25.3912 22.8951 25.3912C23.4704 25.3912 23.7098 25.9144 24.0188 26.3487C24.251 26.68 24.5614 27.1706 24.5614 27.1706C24.4471 27.3072 24.3407 27.3835 24.1617 27.3835C24.1128 27.3835 24.0572 27.3797 23.9965 27.3673C23.3788 27.2527 23.2901 25.9769 22.9378 25.8762C22.9188 25.871 22.8998 25.8691 22.8818 25.8691C22.7683 25.8691 22.7189 25.9703 22.7189 25.9703C22.8799 26.4055 22.7854 26.5811 22.9592 26.9162C23.0883 27.1649 23.3186 27.3692 23.4131 27.466C23.4131 27.466 23.3874 27.6546 23.3598 27.7955ZM22.1787 29.1328C22.0059 29.1328 21.8469 29.1352 21.704 29.1409L22.0799 27.9639C22.1383 27.8006 21.8416 27.5912 21.7187 27.4073C21.9038 27.5243 22.3838 27.7807 22.6146 27.8827C22.5912 27.921 22.1787 29.1328 22.1787 29.1328ZM16.5896 18.5263L16.6432 16.4802L17.1 15.9943L17.3867 16.5981L16.8212 18.5621L16.5896 18.5263ZM16.9181 19.1602C16.9927 19.3177 17.127 19.4227 17.2215 19.4824C17.2182 19.6303 17.2044 19.8589 17.1659 20.0613C17.1564 20.1066 17.145 20.1482 17.1327 20.1897C17.126 20.2159 17.1185 20.2374 17.1132 20.2547C16.9732 20.2547 16.6997 20.2374 16.4752 20.1553C16.2269 20.0632 15.8566 19.6055 15.9421 19.1005C16.0494 19.0346 16.2981 18.8938 16.5312 18.8938C16.7102 18.8938 16.8327 18.9788 16.9181 19.1602ZM22.2081 19.71C21.8569 19.9702 20.952 20.6346 20.6234 20.8651L17.4641 20.2942C17.4716 20.2661 17.4793 20.2374 17.4859 20.2097C17.5272 20.0446 17.5699 19.8198 17.5719 19.5549L20.2275 19.5979L20.2783 19.5458C20.3186 19.5053 21.1599 18.6881 21.5886 18.218C21.6907 18.3468 21.8179 18.4695 21.9855 18.5769C21.9285 18.8901 21.9527 19.3349 22.2081 19.71ZM17.9117 15.0068C18.2916 15.3862 18.6632 15.622 19.0164 15.7518C18.9709 15.9351 18.9106 16.3131 19.0806 16.6897C19.2197 16.9933 19.4717 17.2271 19.8363 17.3832C19.8763 17.7589 20.1127 18.3235 20.7654 18.5721C20.4792 18.8624 20.2009 19.1358 20.0884 19.246L17.4384 19.2041C17.3786 19.1741 17.2757 19.1057 17.23 19.0098C17.2248 18.996 17.2162 18.9888 17.2106 18.9754L17.6431 19.0456C17.6521 19.047 17.6616 19.047 17.6706 19.047C17.7541 19.047 17.8267 18.9888 17.8406 18.9024C17.8548 18.8065 17.7912 18.7177 17.6976 18.7029L17.1659 18.6184L17.7555 16.569L17.1967 15.3862L16.301 16.3384L16.2459 18.4695L15.6439 18.3731C15.5508 18.3549 15.4621 18.4233 15.4455 18.5182C15.4312 18.6117 15.4949 18.701 15.5893 18.7177L15.8419 18.7563C15.7517 18.8079 15.6919 18.849 15.6848 18.8547L15.634 18.8905L15.6197 18.9539C15.4735 19.552 15.8044 20.1195 16.1623 20.3735L16.1495 20.4489C16.1348 20.541 16.1557 20.6307 16.2107 20.7056C16.263 20.7825 16.3423 20.8283 16.4325 20.8445C16.451 20.8479 16.4709 20.8493 16.4881 20.8493C16.6432 20.8493 16.7786 20.7414 16.8165 20.584C16.9494 20.5997 17.0715 20.603 17.155 20.603H17.2262L20.7027 21.235L20.762 21.1953C21.0389 21.0006 22.0952 20.2269 22.4412 19.9707C22.5367 20.0532 22.643 20.1276 22.7716 20.1897C22.6591 20.5672 22.6525 21.1491 23.0954 21.6087H14.2349V16.4678C14.2349 15.97 14.0901 15.4692 13.9188 15.0068H17.9117ZM17.4327 7.24973L19.7447 8.03822V11.6904L18.0423 10.7884L17.4327 7.24973ZM23.0736 6.80918C23.0736 5.91808 21.5815 5.11621 19.9346 5.11621H19.9256C18.2787 5.11621 16.7866 5.91808 16.7866 6.80918L16.8194 7.02826L17.4769 10.8232L16.8165 11.2089L15.1074 12.2122H15.1136C15.1136 12.2122 14.7291 12.4107 14.5511 12.5329C13.9002 12.9873 13.7621 13.6503 14.1399 13.9242C14.233 13.3834 14.6579 12.8188 15.4541 12.8188C16.0271 12.8188 16.4643 13.1162 16.8165 13.562C16.9077 13.6746 16.9936 13.7949 17.0738 13.9242C17.1726 14.0875 17.2723 14.2306 17.3705 14.3686H12.9683C13.2921 15.0225 13.5997 15.7151 13.5997 16.4678V26.2633C13.5997 28.6344 15.4132 29.7662 17.3749 29.7662C18.8912 29.7662 19.0953 29.6965 19.9318 30.5346C20.7645 29.6965 20.969 29.7662 22.4864 29.7662C24.4494 29.7662 26.2605 28.6344 26.2605 26.2633V16.4678C26.2605 15.7151 26.5677 15.0225 26.8929 14.3686H22.4892C22.5875 14.2306 22.6867 14.0875 22.7854 13.9242C22.8671 13.7949 22.9525 13.6746 23.0418 13.562C23.3974 13.1142 23.8331 12.8188 24.4066 12.8188C25.2018 12.8188 25.6262 13.3834 25.7207 13.9242C26.0986 13.6503 25.9619 12.9873 25.3072 12.5329C25.132 12.4107 24.747 12.2122 24.747 12.2122H24.7533L23.0418 11.2089L22.3838 10.8232L23.0418 7.02826L23.0736 6.80918Z" fill="#1A1919"/>
</g>
<defs>
<clipPath id="clip0">
<rect width="151.538" height="34.4722" fill="white" transform="translate(0.730774 0.770508)"/>
</clipPath>
</defs>
</svg>
