<svg width="112" height="116" viewBox="0 0 112 116" fill="none" xmlns="http://www.w3.org/2000/svg">
<g filter="url(#filter0_dddd)">
<path fill-rule="evenodd" clip-rule="evenodd" d="M58.4757 73.8739C70.5674 72.6348 80 62.4189 80 50C80 36.7452 69.2548 26 56 26C42.7452 26 32 36.7452 32 50C32 62.4189 41.4326 72.6348 53.5243 73.8739L55.1425 76.5708C55.5309 77.2182 56.4691 77.2182 56.8575 76.5708L58.4757 73.8739Z" fill="white"/>
</g>
<circle cx="56" cy="50" r="22" fill="#FFE52B"/>
<path d="M40 42C40 37.5817 43.5817 34 48 34H64C68.4183 34 72 37.5817 72 42V58C72 62.4183 68.4183 66 64 66H48C43.5817 66 40 62.4183 40 58V42Z" fill="#FFE52B"/>
<path fill-rule="evenodd" clip-rule="evenodd" d="M69.1423 49.2257L69.4902 48.1096L68.3385 48.1461C68.2413 48.1461 67.5341 48.1255 66.8478 47.6274C66.8993 47.6317 66.95 47.6393 67.0027 47.6393C67.7089 47.6393 68.3929 47.2133 68.6666 46.6036L69.1618 45.5027C68.5402 45.5109 67.9723 45.4322 67.9723 45.4322C67.9677 45.4319 67.5199 45.3737 67.0024 44.8437C66.6312 44.4642 66.1718 44.2632 65.6743 44.2632C65.4563 44.2632 65.2616 44.3027 65.0937 44.3559C65.1203 44.2665 65.1445 44.1761 65.1594 44.0827C65.3173 43.0523 64.6559 42.2667 64.6555 42.2674L63.7891 41.1927L63.2521 42.4551C63.2505 42.4591 63.1145 42.7552 62.8723 42.8994C62.7993 42.5282 62.6192 42.1112 62.2351 41.7124C61.5103 40.9611 60.6283 40.8485 60.1669 40.8485C59.9529 40.8485 59.8001 40.8721 59.7632 40.878L58.7177 41.0841C58.778 40.8501 58.9068 40.4421 59.1416 40.0755L59.7185 39.1753L58.2669 39.3405L57.8042 38.3569L56.9088 38.8195L56.0806 38L55.2549 38.8195L54.3573 38.3569L53.896 39.3405L52.4448 39.1747L53.0226 40.0759C53.2577 40.4421 53.3858 40.8491 53.4455 41.0824L52.4477 40.8854L52.4136 40.88C52.3634 40.8721 52.2119 40.8485 51.9969 40.8485C51.5355 40.8485 50.6539 40.9611 49.9308 41.7121C49.5459 42.1105 49.3655 42.5282 49.2919 42.8994C49.051 42.7565 48.9164 42.4651 48.9164 42.4651L48.3783 41.1954L47.4986 42.2767C47.3908 42.4159 46.8608 43.1546 47.0047 44.0841C47.0197 44.1768 47.0439 44.2665 47.0698 44.3559C46.9029 44.3024 46.7082 44.2632 46.4906 44.2632C45.9927 44.2632 45.5333 44.4642 45.1614 44.8437C44.6453 45.3714 44.2005 45.4312 44.2041 45.4312C44.2041 45.4312 43.7331 45.5163 43.0047 45.5027L43.4973 46.6036C43.7716 47.2133 44.4559 47.6393 45.1608 47.6393C45.2138 47.6393 45.2646 47.6317 45.3167 47.6274C44.632 48.1255 43.9248 48.1461 43.8392 48.1464L42.6667 48.1096L43.0219 49.2254C43.201 49.8006 43.7981 50.7533 44.9418 50.856C44.8175 51.3784 44.5418 51.9642 43.9361 52.2161L43.0621 52.5767L43.5387 53.4081C43.8074 53.8563 44.439 54.3807 45.3376 54.3807C45.532 54.3801 45.7197 54.3604 45.9008 54.3219C45.9469 54.5266 46.0046 54.732 46.073 54.9357C46.3403 55.7338 46.1098 56.2901 46.1075 56.2964L45.6759 57.2016L46.6389 57.4558C46.6508 57.4595 46.9417 57.5399 47.3059 57.5399C47.4708 57.5399 47.6293 57.5226 47.7769 57.487C47.8887 57.4608 47.9965 57.4262 48.1 57.384C48.2248 57.608 48.376 57.8124 48.5525 57.9955C49.1695 58.6298 50.0442 58.9512 51.1514 58.9512H51.155L51.9458 58.9408L50.3122 59.6214L51.5525 60.2219C52.0032 60.4418 52.5373 60.702 53.0816 60.9011L52.9267 61.3255L53.3539 61.5208C53.3921 61.5381 54.2144 61.9063 55.5807 61.9847C55.5807 61.9847 55.9104 62 56.0922 62C56.2736 62 56.5997 61.9837 56.5997 61.9837C57.9571 61.9033 58.7727 61.5381 58.8109 61.5208L59.2394 61.3251L59.0832 60.9001C59.6424 60.695 60.1968 60.4245 60.6286 60.2132L61.846 59.6208L60.2177 58.9408L61.0118 58.9512C62.1206 58.9512 62.9954 58.6295 63.6113 57.9945C63.7872 57.8131 63.9381 57.609 64.0634 57.384C64.1673 57.4262 64.2758 57.4608 64.3879 57.4877C64.5352 57.5226 64.6934 57.5399 64.8583 57.5399C65.2161 57.5399 65.5104 57.4605 65.518 57.4578L66.4853 57.2016L66.064 56.3131C66.054 56.2901 65.8235 55.7338 66.0909 54.935C66.1589 54.7312 66.2162 54.5263 66.263 54.3219C66.4445 54.3604 66.6338 54.3801 66.8299 54.3807C67.9749 54.3807 68.5239 53.5739 68.6301 53.3988L69.1017 52.576L68.2284 52.2168C67.621 51.9642 67.3457 51.3787 67.2226 50.8567C68.3515 50.7583 68.9568 49.8046 69.1423 49.2257Z" fill="#FFFFFE"/>
<path fill-rule="evenodd" clip-rule="evenodd" d="M56.0809 41.4189C55.1557 41.4199 54.4618 41.7233 54.3111 42.0809L56.0809 42.7807L57.8511 42.0809C57.7012 41.7233 57.0073 41.4199 56.0809 41.4189Z" fill="#FFFFFE"/>
<path fill-rule="evenodd" clip-rule="evenodd" d="M56.0996 59.94H56.0641C55.5036 59.9437 54.731 59.8287 54.3598 59.7197L53.912 60.9326C54.2069 61.038 55.2067 61.2397 56.0827 61.2397C56.9571 61.2397 57.9572 61.038 58.2518 60.9326L57.805 59.7197C57.4318 59.8287 56.6602 59.9437 56.0996 59.94Z" fill="#FFFFFE"/>
<path fill-rule="evenodd" clip-rule="evenodd" d="M59.4859 58.7334C59.1528 58.9222 58.4092 59.2059 57.977 59.3375L58.3398 60.3393C59.0089 60.1563 59.5615 59.9426 60.0172 59.7133L59.2636 59.4624L59.4859 58.7334Z" fill="#FFFFFE"/>
<path fill-rule="evenodd" clip-rule="evenodd" d="M52.6774 58.7334L52.9004 59.4624L52.1461 59.7133C52.6011 59.9426 53.1561 60.1563 53.8228 60.3393L54.1864 59.3375C53.7548 59.2059 53.0101 58.9222 52.6774 58.7334Z" fill="#FFFFFE"/>
<path fill-rule="evenodd" clip-rule="evenodd" d="M56.0808 40.2588C56.7784 40.2588 57.4621 40.4259 57.9882 40.7193C58.0363 40.5582 58.1036 40.3621 58.1948 40.1564L57.9955 40.1803L57.7871 40.2023L57.6989 40.0119L57.4326 39.4489L56.9479 39.7022L56.7589 39.7982L56.6079 39.6493L56.0808 39.127L55.5548 39.6493L55.4045 39.7982L55.2158 39.7022L54.7281 39.4489L54.4658 40.0119L54.3755 40.2023L54.1672 40.1803L53.9689 40.1564C54.0601 40.3621 54.1268 40.5582 54.1755 40.7193C54.7036 40.4259 55.3866 40.2588 56.0808 40.2588Z" fill="#FFFFFE"/>
<path fill-rule="evenodd" clip-rule="evenodd" d="M66.729 46.7646C66.8196 46.7958 66.9115 46.8097 67.0027 46.8097C67.3974 46.8097 67.7785 46.5539 67.9096 46.2618C67.9096 46.2618 67.1864 46.2179 66.4086 45.4267C66.1608 45.1705 65.8988 45.0938 65.6739 45.0938C65.3246 45.0938 65.0625 45.2782 65.0625 45.2782C66.0022 45.7796 66.194 46.5834 66.729 46.7646Z" fill="#FFFFFE"/>
<path fill-rule="evenodd" clip-rule="evenodd" d="M45.1605 46.8097C45.2517 46.8097 45.3439 46.7958 45.4325 46.7642C45.9688 46.5834 46.1622 45.7796 47.1006 45.2785C47.1006 45.2785 46.8379 45.0938 46.4906 45.0938C46.2644 45.0938 46.0027 45.1705 45.7539 45.4271C44.977 46.2179 44.2542 46.2621 44.2542 46.2621C44.3839 46.5539 44.7661 46.8097 45.1605 46.8097Z" fill="#FFFFFE"/>
<path fill-rule="evenodd" clip-rule="evenodd" d="M66.4453 52.5376C65.7186 52.1784 65.2592 51.2254 65.1484 50.8821C65.0276 52.7722 64.1068 54.0835 63.0304 55.3462C62.4718 56.0008 62.2768 56.6371 62.2768 56.6371C62.2768 56.6371 62.3845 55.9161 62.8675 55.3292C63.872 54.1207 64.8266 52.6154 64.8976 50.8755C64.9463 49.6606 64.6349 48.6759 64.1483 47.8642C64.4206 48.7095 64.3818 49.7446 63.458 50.7109C63.458 50.7109 65.2976 48.5028 62.7256 46.2389C61.6966 45.3772 60.5698 44.8452 59.9903 44.4684C62.085 45.1529 63.108 44.3992 63.108 44.3992C62.4393 44.9801 61.5732 44.9701 61.0359 44.8864C61.1818 44.9575 61.3334 45.0319 61.4963 45.1197C63.2626 46.0807 64.8498 47.6621 65.1205 49.8519V49.8353C65.5312 51.9857 66.4453 52.5376 66.4453 52.5376ZM66.9834 50.0321C66.9996 50.0331 67.0136 50.0331 67.0302 50.0331C68.0147 50.0331 68.3483 48.9767 68.3483 48.9767H68.3291C68.1484 48.9767 66.6845 48.9341 65.6496 47.6165C64.9689 46.7503 64.4103 45.9886 63.308 45.6889L63.1996 45.6696L63.176 45.559C63.1455 45.3905 63.2612 45.232 63.523 45.0615C65.0445 44.0636 64.011 42.7906 64.011 42.7906C64.011 42.7906 63.5767 43.8084 62.6048 43.8084C62.5813 43.8084 62.5567 43.8071 62.5325 43.8071C62.4224 43.8014 62.3156 43.7975 62.2084 43.7745L62.0293 43.7396C62.0293 43.7396 62.3066 42.9843 61.6376 42.2911C61.1337 41.7678 60.5207 41.6787 60.1668 41.6787C59.9883 41.6787 59.8752 41.7016 59.8752 41.7016C60.2112 42.1416 60.454 42.872 60.0663 43.3226C59.7309 43.7097 58.912 43.7283 58.912 44.3055C58.912 44.5501 59.1398 44.8352 59.5492 45.0915C60.7801 45.868 62.0021 46.8988 62.5106 48.2799C63.1455 50.0021 62.43 51.1459 61.409 51.8016C61.409 51.8016 61.7295 52.097 62.1935 52.1348C62.2884 52.1439 62.3806 52.1482 62.4665 52.1482C63.447 52.1482 63.9542 51.6876 63.9542 51.6876C63.9542 51.6876 63.8703 52.3239 63.3604 52.9147C62.8895 53.46 62.2721 53.7817 61.3291 53.795C61.3291 53.795 61.2995 54.233 61.7169 54.6125C61.9842 54.8518 62.6005 54.9295 62.6005 54.9295C62.6005 54.9295 61.4459 55.1641 61.3185 56.8728C61.2491 57.7985 61.0129 58.1202 61.0129 58.1202H61.0336C63.7134 58.1202 63.6448 55.8177 63.6448 55.8177C63.6448 55.8177 63.8312 56.4996 64.5788 56.6774C64.6691 56.701 64.7656 56.7103 64.8575 56.7103C65.098 56.7103 65.3072 56.6535 65.3072 56.6535C65.3072 56.6535 64.9155 55.8264 65.3039 54.6693C65.626 53.7089 65.5743 52.9975 65.5743 52.9975C65.5743 52.9975 65.9348 53.5445 66.8305 53.5495H66.8394C67.5848 53.5495 67.9095 52.9836 67.9095 52.9836C66.1229 52.2402 66.2994 49.8423 66.2994 49.8423C66.2994 49.8423 66.5312 50.0158 66.9834 50.0321Z" fill="#FFFFFE"/>
<path fill-rule="evenodd" clip-rule="evenodd" d="M49.1322 55.3462C48.0558 54.0835 47.1353 52.7722 47.0135 50.8821C46.9024 51.2254 46.4447 52.1784 45.7182 52.5376C45.7182 52.5376 46.6314 51.9857 47.0417 49.8353V49.8519C47.3134 47.6624 48.9003 46.0807 50.667 45.12C50.8288 45.0316 50.9817 44.9575 51.1267 44.8867C50.5897 44.9701 49.7236 44.9801 49.0552 44.3992C49.0552 44.3992 50.0782 45.1529 52.1723 44.4684C51.5928 44.8455 50.4669 45.3772 49.438 46.2389C46.8653 48.5028 48.7053 50.7113 48.7053 50.7113C47.7801 49.7446 47.743 48.7098 48.015 47.8642C47.5277 48.6759 47.2162 49.6606 47.2663 50.8755C47.3366 52.6154 48.2909 54.1203 49.2934 55.3296C49.7786 55.9161 49.8878 56.6369 49.8878 56.6369C49.8878 56.6369 49.6904 56.0008 49.1322 55.3462ZM49.5627 54.9295C49.5627 54.9295 50.1794 54.852 50.447 54.6121C50.864 54.233 50.8341 53.795 50.8341 53.795C49.8911 53.7817 49.2741 53.46 48.8005 52.9151C48.2936 52.3239 48.2093 51.6876 48.2093 51.6876C48.2093 51.6876 48.7162 52.1482 49.6954 52.1482C49.7833 52.1482 49.8748 52.1439 49.9694 52.1348C50.4341 52.097 50.7555 51.8019 50.7555 51.8019C49.7335 51.1459 49.0177 50.0025 49.6519 48.2799C50.1604 46.8991 51.3821 45.868 52.6137 45.0911C53.0224 44.8352 53.2503 44.5501 53.2503 44.3055C53.2503 43.7283 52.4323 43.7097 52.0973 43.3226C51.7095 42.872 51.9523 42.1416 52.2877 41.7016C52.2877 41.7016 52.1759 41.6787 51.9964 41.6787C51.6429 41.6787 51.0302 41.7678 50.5263 42.2911C49.8559 42.9843 50.1339 43.7396 50.1339 43.7396L49.9548 43.7745C49.848 43.7971 49.7402 43.8014 49.6304 43.8074C49.6052 43.8074 49.583 43.8084 49.5594 43.8084C48.5848 43.8084 48.153 42.7909 48.153 42.7909C48.153 42.7909 47.12 44.0636 48.6409 45.0615C48.9026 45.232 49.0177 45.3905 48.9872 45.559L48.9637 45.6693L48.8532 45.6889C47.7526 45.9886 47.1937 46.7503 46.512 47.6165C45.4777 48.9338 44.0159 48.9767 43.8338 48.9767H43.8139C43.8139 48.9767 44.1476 50.0331 45.1328 50.0331C45.1484 50.0331 45.1629 50.0331 45.1795 50.0321C45.6323 50.0158 45.8645 49.8423 45.8645 49.8423C45.8645 49.8423 46.0396 52.2402 44.2537 52.9832C44.2537 52.9832 44.5791 53.5498 45.3242 53.5498H45.3331C46.2291 53.5445 46.5893 52.9975 46.5893 52.9975C46.5893 52.9975 46.5372 53.7093 46.8583 54.6693C47.2467 55.8267 46.857 56.6538 46.857 56.6538C46.857 56.6538 47.0653 56.7103 47.3058 56.7103C47.399 56.7103 47.4945 56.701 47.5841 56.6774C48.3308 56.4996 48.5178 55.8177 48.5178 55.8177C48.5178 55.8177 48.4495 58.1202 51.1297 58.1202H51.149C51.149 58.1202 50.9144 57.7985 50.8454 56.8724C50.7184 55.1641 49.5627 54.9295 49.5627 54.9295Z" fill="#FFFFFE"/>
<path fill-rule="evenodd" clip-rule="evenodd" d="M55.4761 46.444H56.7396V46.8783C56.591 46.6959 56.3017 46.7331 56.3017 46.7331V47.3592C56.3017 47.3592 56.3124 47.6672 56.4205 47.8005H55.7952C55.9047 47.6672 55.9143 47.3592 55.9143 47.3592V46.7331C55.9143 46.7331 55.626 46.6959 55.4761 46.8783V46.444ZM54.0995 46.5091C54.1436 46.5563 54.1868 46.6075 54.2285 46.6593C54.2385 46.6713 54.2475 46.6819 54.2574 46.6959C54.2959 46.7471 54.3347 46.8016 54.3722 46.8571C54.3805 46.868 54.3884 46.8813 54.3974 46.8939C54.4422 46.962 54.4846 47.0322 54.5268 47.1046C54.9135 47.7732 55.5318 48.1726 56.0808 48.1736C56.6304 48.1726 57.2481 47.7732 57.6358 47.1046C57.6787 47.0301 57.7221 46.9584 57.7669 46.8909C57.7736 46.8813 57.7808 46.8713 57.7868 46.8614C57.8253 46.8039 57.8651 46.7481 57.9069 46.6939C57.9159 46.6819 57.9241 46.6713 57.9321 46.6613C57.9752 46.6075 58.0196 46.5557 58.0651 46.5074C58.0727 46.4998 58.0793 46.4925 58.0867 46.4862C58.2837 46.2842 58.5182 46.1303 58.8257 46.0452L58.6887 45.9652H58.6811L58.1371 45.6488L57.5782 45.3281L56.0848 46.1426L56.0808 46.1393L56.0782 46.1426L54.5845 45.3281L54.0259 45.6488L53.4809 45.9652H53.4746L53.3366 46.0452C53.6441 46.1303 53.8779 46.2825 54.0756 46.4849C54.0843 46.4925 54.0903 46.5015 54.0995 46.5091Z" fill="#FFFFFE"/>
<path fill-rule="evenodd" clip-rule="evenodd" d="M55.6053 43.6844V44.0932L55.527 44.0573C55.5233 44.0543 55.4082 44.0284 55.2079 43.8692C54.8772 43.6123 54.8705 43.3751 54.8705 43.3751L55.6053 43.6844ZM55.9519 45.6021V43.0597L54.3365 42.5107L54.7624 44.9744L55.9519 45.6021Z" fill="#FFFFFE"/>
<path fill-rule="evenodd" clip-rule="evenodd" d="M56.5582 43.6844L57.2929 43.3751C57.2929 43.3751 57.2867 43.6123 56.9546 43.8692C56.7549 44.0284 56.6398 44.0543 56.6358 44.0573L56.5582 44.0932V43.6844ZM57.4004 44.9744L57.825 42.5107L56.2106 43.0597V45.6021L57.4004 44.9744Z" fill="#FFFFFE"/>
<path fill-rule="evenodd" clip-rule="evenodd" d="M53.6674 51.4965C53.8243 51.5536 54.0154 51.5656 54.1133 51.5656C54.1169 51.5536 54.1222 51.5386 54.1269 51.5204C54.1355 51.4915 54.1438 51.4625 54.1498 51.431C54.1773 51.2901 54.1869 51.1309 54.1892 51.0279C54.1232 50.9864 54.0293 50.9133 53.977 50.8036C53.9172 50.6773 53.8313 50.6182 53.7066 50.6182C53.544 50.6182 53.3699 50.7162 53.2946 50.7621C53.2352 51.1136 53.494 51.4323 53.6674 51.4965Z" fill="#FFFFFE"/>
<path fill-rule="evenodd" clip-rule="evenodd" d="M57.2406 50.1475C56.9408 50.4744 56.353 51.0433 56.3247 51.0716L56.2892 51.1075L54.4337 51.0782C54.4323 51.2623 54.4025 51.4188 54.3737 51.5338C54.369 51.5527 54.3637 51.5727 54.3587 51.5926L56.5659 51.9904C56.7954 51.8296 57.4273 51.367 57.6732 51.1859C57.4947 50.9247 57.4778 50.615 57.5179 50.397C57.4005 50.3222 57.3116 50.2372 57.2406 50.1475Z" fill="#FFFFFE"/>
<path fill-rule="evenodd" clip-rule="evenodd" d="M57.4919 47.9111C57.0643 48.3358 56.6543 48.4936 56.2881 48.5298C56.2211 48.5368 56.1541 48.5411 56.0861 48.5411H56.0768C56.0085 48.5411 55.9408 48.5368 55.8748 48.5298C55.8104 48.5242 55.7434 48.5139 55.6761 48.4986C55.6522 48.5943 55.6217 48.7937 55.7086 48.9834C55.7862 49.1549 55.9438 49.2825 56.1737 49.3679L56.251 49.3981L56.2523 49.4816C56.2523 49.5061 56.2705 50.0471 56.8586 50.1973C56.9549 50.0983 57.042 50.0086 57.1068 49.9335C56.9867 49.65 57.0497 49.3606 57.2242 49.2191C57.2165 49.2489 57.1399 49.9588 57.7078 50.2226L57.8014 50.2671L57.7735 50.3668C57.7642 50.3967 57.5748 51.0839 58.2628 51.3395L58.3845 51.3856L58.3304 51.5039C58.3185 51.5302 58.0488 52.1533 58.684 52.5075H60.0613V51.4119C59.5714 51.3521 59.3644 50.9577 59.3106 50.6785C59.0827 50.6393 58.9069 50.5409 58.7858 50.3805C58.4969 49.9993 58.7454 49.65 58.7487 49.6311C58.748 49.6341 58.7487 50.0056 58.9776 50.2352C59.0914 50.3455 59.2254 50.4316 59.4287 50.4509L59.5289 50.4599L59.5375 50.5625C59.5392 50.5841 59.5942 51.0875 60.0613 51.1663L60.0602 48.9282C60.0602 48.5817 60.1611 48.2331 60.2825 47.9111H57.4919Z" fill="#FFFFFE"/>
<path fill-rule="evenodd" clip-rule="evenodd" d="M53.785 48.937L53.7475 50.3619L53.9093 50.3868L54.3047 49.0193L54.104 48.5986L53.785 48.937Z" fill="#FFFFFE"/>
<path fill-rule="evenodd" clip-rule="evenodd" d="M54.6414 54.2126C54.5953 54.2112 54.5614 54.172 54.5644 54.1258C54.568 54.0816 54.6055 54.0467 54.651 54.0507C54.6974 54.0523 54.73 54.0932 54.7286 54.1368C54.7243 54.1819 54.6855 54.2165 54.6414 54.2126ZM58.1439 55.4739C58.1561 55.4739 58.1697 55.4756 58.183 55.4789C58.4291 55.5494 58.4912 56.4376 58.9227 56.5167C58.9652 56.5257 59.004 56.5284 59.0382 56.5284C59.1632 56.5284 59.2375 56.4752 59.3178 56.3801C59.3178 56.3801 59.1005 56.0386 58.9383 55.8076C58.7224 55.5058 58.5552 55.1413 58.1535 55.1413C58.1439 55.1413 58.1322 55.1413 58.1223 55.1427C57.9903 55.1493 57.9087 55.2141 57.9087 55.2141C57.7458 55.1115 57.5942 55.0769 57.4576 55.0769C57.2061 55.0769 57.0104 55.1925 56.9122 55.1925H56.9086L56.0116 55.1038C55.8717 55.0901 55.7606 54.9486 55.7207 54.8934C55.7108 54.8782 55.7051 54.8695 55.7051 54.8695C55.7051 54.8449 55.7051 54.82 55.7038 54.7978C55.6737 54.063 55.1058 53.7487 54.9034 53.7437C54.9034 53.7437 54.9273 53.6038 54.8729 53.5506L54.6746 53.7912L54.0261 53.4648L54.4891 54.0069L54.097 54.4478C54.0476 54.498 54.0539 54.5658 54.0745 54.5947L54.2437 54.7445L54.4586 54.614C54.4692 54.606 54.4891 54.6034 54.5127 54.6034C54.5721 54.6034 54.6613 54.619 54.7412 54.619C54.8291 54.619 54.9044 54.6003 54.9137 54.5179C54.8868 54.7904 54.6344 55.2636 54.7999 55.6358L54.923 55.9166L54.1299 55.8023L53.7587 56.43C53.6442 56.639 53.6263 56.8649 53.7364 56.9883L53.8751 57.162C53.8751 57.162 54.0702 56.9554 54.1136 56.8191L54.0506 56.7497C53.9975 56.6911 54.0002 56.639 54.0327 56.5762L54.2656 56.1894L55.2013 56.4103L55.2507 56.326C55.3144 56.22 55.4059 56.1887 55.5062 56.1887C55.5476 56.1887 55.5897 56.1937 55.6338 56.2007C55.8076 56.2349 56.0936 56.2811 56.3795 56.2811C56.693 56.2811 57.0045 56.225 57.1706 56.0386C57.5097 56.542 58.1966 56.622 58.1426 56.8779L57.9614 57.7406C58.0811 57.7353 58.1966 57.7276 58.306 57.7123L58.4782 56.8151C58.4971 56.7171 58.515 56.5858 58.515 56.5858C58.449 56.5183 58.2885 56.3762 58.198 56.203C58.0768 55.9697 58.1426 55.8478 58.0298 55.5444C58.0298 55.5444 58.0646 55.4739 58.1439 55.4739Z" fill="#FFFFFE"/>
<path fill-rule="evenodd" clip-rule="evenodd" d="M53.3632 56.2904C53.3632 56.2904 53.6736 56.1624 53.7012 56.0713L53.6597 55.9677C53.6302 55.8999 53.6342 55.8268 53.6912 55.7872L54.0259 55.555L54.5851 55.663C54.5851 55.663 54.484 55.5357 54.4939 55.3662L53.9599 55.2529L53.4564 55.5603C53.2404 55.7218 53.2248 55.9863 53.2961 56.1431L53.3632 56.2904Z" fill="#FFFFFE"/>
<path fill-rule="evenodd" clip-rule="evenodd" d="M57.3207 57.7518C57.4206 57.7479 57.5317 57.7462 57.6528 57.7462C57.6528 57.7462 57.9407 56.9025 57.957 56.8759C57.7957 56.8045 57.4604 56.6264 57.331 56.5449C57.417 56.6732 57.6243 56.8191 57.5831 56.932L57.3207 57.7518Z" fill="#FFFFFE"/>
<path fill-rule="evenodd" clip-rule="evenodd" d="M60.0613 52.75H52.1024V55.749C52.1024 56.9758 52.9883 57.7435 54.296 57.7435C55.3879 57.7435 55.6762 57.7863 56.0825 58.1901C56.3625 57.9103 56.594 57.806 57.0697 57.7671L57.081 57.7205L57.3318 56.9436C57.3178 56.926 56.9075 56.4595 56.9075 56.4595C56.745 56.5136 56.6083 56.5226 56.3791 56.5226C56.1432 56.5226 55.8779 56.4951 55.5889 56.4408C55.5601 56.4342 55.5329 56.4312 55.506 56.4312C55.4705 56.4312 55.4682 56.4342 55.4589 56.4515L55.4091 56.5339L55.3179 56.6851L55.1461 56.6452L54.3822 56.4651L54.2773 56.6383L54.2929 56.6568L54.3858 56.7596L54.3447 56.8931C54.2883 57.0679 54.1062 57.272 54.0505 57.3284L53.8597 57.5335L53.6856 57.3132L53.5549 57.149C53.4176 56.9948 53.3857 56.7596 53.463 56.5123C53.4613 56.5136 53.4587 56.515 53.4554 56.5153L53.2401 56.6047L53.1433 56.3937L53.0753 56.2441C52.9582 55.981 53.0013 55.5965 53.3171 55.3639L53.9317 55.016L54.5168 55.1313C54.5308 55.0751 54.5517 54.8737 54.5686 54.8225C54.557 54.8213 54.5467 54.8186 54.5351 54.8186L54.1981 54.9449L53.8727 54.7199C53.8727 54.7199 53.7457 54.5973 53.8611 54.4747L54.1755 53.9968L53.3778 52.9936L54.6037 53.498L54.6857 53.397L54.8509 53.1983L55.039 53.3774C55.0921 53.4286 55.1226 53.4917 55.1375 53.5548C55.4751 53.6868 56.0809 54.0756 56.1343 54.7079L55.9448 54.7837V54.7883C55.9883 54.8398 56.0241 54.8611 56.0354 54.8631L56.9105 54.9492C56.933 54.9455 56.9603 54.9356 56.9914 54.9266C57.1005 54.8894 57.2634 54.8355 57.4571 54.8355C57.615 54.8355 57.7673 54.8717 57.9139 54.9406C57.968 54.92 58.0343 54.905 58.1113 54.9L58.1534 54.899C58.6218 54.899 58.8549 55.2496 59.0417 55.5297C59.0729 55.5782 59.104 55.6237 59.1366 55.669C59.2998 55.9002 59.5137 56.2385 59.5223 56.2531L59.6189 56.404L59.5008 56.5419C59.4099 56.6472 59.2729 56.7712 59.0384 56.7712C58.9899 56.7712 58.9369 56.7658 58.8798 56.7549C58.8301 56.7456 58.7843 56.7306 58.7405 56.712C58.7342 56.7586 58.7243 56.8137 58.7156 56.8612L58.5624 57.6634C59.4802 57.4374 60.063 56.7432 60.063 55.749L60.0613 52.75Z" fill="#FFE52B"/>
<path fill-rule="evenodd" clip-rule="evenodd" d="M52.1024 52.5075H58.2927C57.9836 52.1874 57.9882 51.7824 58.0669 51.5192C57.9766 51.476 57.9023 51.4242 57.8363 51.367C57.5942 51.5458 56.8558 52.0845 56.6627 52.2193L56.6213 52.2473L54.1918 51.8073H54.1428C54.0844 51.8073 53.9991 51.805 53.9056 51.7937C53.8794 51.904 53.7848 51.9788 53.6767 51.9788C53.6641 51.9788 53.6505 51.9778 53.6379 51.9751C53.5746 51.9642 53.5191 51.9319 53.4824 51.8788C53.4445 51.8262 53.4296 51.7641 53.4399 51.7L53.4488 51.6475C53.1987 51.4707 52.9672 51.0756 53.0697 50.6592L53.0797 50.6154L53.1152 50.5897C53.1201 50.5861 53.1619 50.5572 53.2249 50.5216L53.0485 50.4944C52.9825 50.4828 52.938 50.421 52.9483 50.3558C52.9596 50.2897 53.0216 50.2425 53.0866 50.2552L53.5072 50.3216L53.5457 48.8382L54.1713 48.1749L54.562 48.9987L54.1497 50.426L54.5216 50.4844C54.5869 50.4947 54.6317 50.5562 54.6217 50.6237C54.6121 50.6835 54.561 50.7237 54.5026 50.7237C54.4964 50.7237 54.4897 50.7237 54.4834 50.723L54.1813 50.6742C54.1852 50.6835 54.1912 50.6888 54.1948 50.6981C54.227 50.7649 54.2984 50.8121 54.3402 50.833L56.192 50.8626C56.2707 50.7862 56.4647 50.5954 56.665 50.3937C56.209 50.2203 56.0434 49.8271 56.0159 49.5657C55.7612 49.4569 55.5853 49.2942 55.4878 49.0825C55.3691 48.8203 55.4112 48.5574 55.443 48.4298C55.196 48.3397 54.9366 48.1749 54.6711 47.9111H51.8812C52.0009 48.2331 52.1024 48.5817 52.1024 48.9282V52.5075Z" fill="#FFE52B"/>
<path fill-rule="evenodd" clip-rule="evenodd" d="M54.6508 54.0511C54.6054 54.0468 54.5679 54.0822 54.5643 54.1268C54.5613 54.1732 54.5951 54.2125 54.6412 54.2135C54.6853 54.2172 54.7241 54.1831 54.7284 54.1375C54.7298 54.0938 54.6972 54.0528 54.6508 54.0511Z" fill="#1A1919"/>
<path fill-rule="evenodd" clip-rule="evenodd" d="M58.3402 60.3393L57.9766 59.3375C58.4092 59.2055 59.1529 58.9218 59.4862 58.733L59.264 59.4621L60.017 59.713C59.5615 59.9419 59.0092 60.1556 58.3402 60.3393ZM56.0829 61.2399C55.2066 61.2399 54.2068 61.0379 53.9119 60.9328L54.3597 59.7196C54.7309 59.8283 55.5034 59.9436 56.064 59.9399H56.0995C56.6601 59.9436 57.4317 59.8283 57.8048 59.7196L58.2516 60.9328C57.957 61.0379 56.957 61.2399 56.0829 61.2399ZM52.1465 59.713L52.9008 59.4621L52.6776 58.733C53.0103 58.9218 53.7554 59.2055 54.1869 59.3375L53.823 60.3393C53.1563 60.1556 52.6017 59.9419 52.1465 59.713ZM60.0508 59.4904L59.5924 59.3142L59.7191 58.8393L59.8584 58.3223C59.8584 58.3223 59.0461 58.7639 57.901 59.0952C57.5763 59.1882 57.3304 59.2312 57.3304 59.2312V59.5834C57.3304 59.5834 56.7182 59.6897 56.0995 59.6897H56.064C55.4447 59.6897 54.8334 59.5834 54.8334 59.5834V59.2312C54.8334 59.2312 54.5869 59.1882 54.2625 59.0952C53.1178 58.7639 52.3061 58.3223 52.3061 58.3223L52.4434 58.8393L52.5728 59.3142L52.1127 59.4904L51.6026 59.6811C52.187 59.9642 52.9974 60.3755 53.7388 60.579L53.5639 61.0578C53.5639 61.0578 54.5043 61.4868 56.071 61.4908V61.4917H56.0922V61.4908C57.6605 61.4868 58.6002 61.0578 58.6002 61.0578L58.4244 60.579C59.1662 60.3755 59.9778 59.9642 60.5596 59.6811L60.0508 59.4904Z" fill="#1A1919"/>
<path fill-rule="evenodd" clip-rule="evenodd" d="M54.1672 40.1806L54.3755 40.2025L54.4657 40.0121L54.7281 39.4496L55.2157 39.7021L55.4045 39.7988L56.0809 39.1269L56.608 39.6496L56.7589 39.7988L56.9479 39.7021L57.4326 39.4496L57.6989 40.0121L57.7871 40.2025L57.9954 40.1806L58.1949 40.1567C58.1036 40.3624 58.0362 40.5581 57.9882 40.7199C57.4621 40.4262 56.7784 40.259 56.0809 40.259C55.3866 40.259 54.7036 40.4262 54.1755 40.7199C54.1268 40.5581 54.0601 40.3624 53.9689 40.1567L54.1672 40.1806ZM56.0809 40.5525C57.0143 40.5525 57.7609 40.8625 58.1736 41.1925C58.1736 41.1925 58.296 40.4534 58.7143 39.8015L57.9626 39.8872L57.5692 39.0501L56.8139 39.4403L56.0809 38.7148L55.3501 39.4403L54.5932 39.0501L54.2004 39.8872L53.4488 39.8015C53.8674 40.4534 53.9894 41.1925 53.9894 41.1925C54.4048 40.8625 55.1491 40.5525 56.0809 40.5525Z" fill="#1A1919"/>
<path fill-rule="evenodd" clip-rule="evenodd" d="M67.91 52.9832C67.91 52.9832 67.5853 53.5498 66.8396 53.5498H66.8303C65.9353 53.5445 65.5744 52.9976 65.5744 52.9976C65.5744 52.9976 65.6262 53.709 65.3041 54.6694C64.9157 55.8267 65.3074 56.6535 65.3074 56.6535C65.3074 56.6535 65.0981 56.7103 64.8576 56.7103C64.7658 56.7103 64.6695 56.701 64.579 56.6774C63.8313 56.4997 63.6449 55.8178 63.6449 55.8178C63.6449 55.8178 63.7136 58.1203 61.0337 58.1203H61.0128C61.0128 58.1203 61.249 57.7986 61.3187 56.8728C61.446 55.1641 62.6007 54.9296 62.6007 54.9296C62.6007 54.9296 61.9844 54.8521 61.7173 54.6126C61.2997 54.2331 61.3292 53.7951 61.3292 53.7951C62.2719 53.7818 62.8899 53.4601 63.3606 52.9148C63.8704 52.3239 63.9543 51.6876 63.9543 51.6876C63.9543 51.6876 63.4472 52.1482 62.467 52.1482C62.3807 52.1482 62.2885 52.1439 62.194 52.1349C61.73 52.097 61.4095 51.8019 61.4095 51.8019C62.4302 51.146 63.146 50.0022 62.5111 48.2799C62.0023 46.8992 60.7803 45.8681 59.5496 45.0911C59.1403 44.8353 58.9121 44.5502 58.9121 44.3053C58.9121 43.7284 59.7311 43.7098 60.0664 43.3226C60.4542 42.872 60.2111 42.1417 59.8753 41.7017C59.8753 41.7017 59.9885 41.6788 60.1669 41.6788C60.5209 41.6788 61.1339 41.7678 61.6377 42.2912C62.3065 42.9844 62.0291 43.7397 62.0291 43.7397L62.2083 43.7746C62.3154 43.7972 62.4222 43.8015 62.533 43.8071C62.5569 43.8071 62.5814 43.8085 62.605 43.8085C63.5769 43.8085 64.0115 42.7906 64.0115 42.7906C64.0115 42.7906 65.0444 44.0637 63.5231 45.0615C63.2615 45.232 63.146 45.3906 63.1762 45.559L63.2 45.6697L63.3082 45.6889C64.4108 45.9884 64.9687 46.7506 65.6501 47.6166C66.685 48.9342 68.1485 48.9767 68.3289 48.9767H68.3485C68.3485 48.9767 68.0148 50.0331 67.0303 50.0331C67.0137 50.0331 66.9998 50.0331 66.9835 50.0321C66.5314 50.0158 66.2992 49.8423 66.2992 49.8423C66.2992 49.8423 66.1231 52.2402 67.91 52.9832ZM67.0303 50.3564C68.2371 50.3564 68.6411 49.1266 68.6576 49.0738L68.7927 48.6401L68.3402 48.6544H68.3386C68.179 48.6544 66.8472 48.6188 65.9031 47.4169L65.8139 47.3053C65.197 46.5197 64.6122 45.772 63.566 45.4311C63.5961 45.4035 63.6396 45.3703 63.699 45.3314C64.2542 44.9659 64.577 44.5216 64.6579 44.0059C64.7767 43.2303 64.2824 42.6115 64.2608 42.5863L63.9248 42.1699L63.7149 42.6637C63.7006 42.6946 63.348 43.4851 62.605 43.4851H62.5496C62.4988 43.4825 62.4501 43.4805 62.4027 43.4765C62.4285 43.1239 62.3645 42.5783 61.8702 42.0659C61.2762 41.4498 60.5478 41.3574 60.1669 41.3574C59.9633 41.3574 59.8279 41.3827 59.813 41.384L59.3058 41.485L59.6186 41.8984C59.8644 42.2171 60.087 42.8052 59.823 43.1123C59.7384 43.2103 59.5649 43.2894 59.3987 43.3692C59.0571 43.5263 58.59 43.7467 58.59 44.3053C58.59 44.6668 58.8703 45.0453 59.3781 45.367C60.8808 46.3137 61.8079 47.3016 62.2083 48.3922C62.8279 50.0696 62.0195 51.0263 61.2347 51.5307L60.8824 51.7574L61.1909 52.0412C61.2324 52.0777 61.6088 52.4103 62.1661 52.4582C62.2716 52.4652 62.3725 52.4708 62.467 52.4708C62.8236 52.4708 63.1278 52.4147 63.3749 52.3393C63.3072 52.4582 63.223 52.5802 63.1182 52.7024C62.6696 53.2232 62.1177 53.4601 61.3239 53.473L61.029 53.4777L61.0065 53.7741C61.0035 53.834 60.9816 54.3836 61.5004 54.8508C61.58 54.9232 61.6759 54.9827 61.7767 55.0312C61.4245 55.3489 61.0669 55.9022 60.9975 56.8496C60.9388 57.6404 60.7508 57.9332 60.7484 57.9362L60.4227 58.4346L61.0118 58.4426C61.985 58.4426 62.7303 58.1738 63.2468 57.6404C63.552 57.3251 63.7268 56.9689 63.8296 56.6535C63.9992 56.798 64.2178 56.925 64.503 56.9924C64.6112 57.0177 64.7293 57.0317 64.8576 57.0317C65.1326 57.0317 65.3628 56.9732 65.3883 56.9669L65.7645 56.8669L65.5983 56.5153C65.5861 56.487 65.2722 55.7809 65.6099 54.7743C65.7552 54.3387 65.8295 53.9489 65.8657 53.6452C66.1025 53.7688 66.4199 53.8708 66.83 53.8722C67.761 53.8722 68.1717 53.1753 68.1899 53.1461L68.3734 52.8261L68.0334 52.6858C66.9239 52.2243 66.678 50.9848 66.6289 50.3139C66.7291 50.3335 66.8439 50.3511 66.9733 50.3547L67.0303 50.3564Z" fill="#1A1919"/>
<path fill-rule="evenodd" clip-rule="evenodd" d="M65.674 45.0942C65.8989 45.0942 66.161 45.1709 66.4087 45.4274C67.1866 46.2184 67.91 46.2625 67.91 46.2625C67.7787 46.5543 67.3975 46.8102 67.0028 46.8102C66.9116 46.8102 66.8197 46.7962 66.7291 46.7646C66.1938 46.5839 66.0024 45.78 65.0627 45.2789C65.0627 45.2789 65.3247 45.0942 65.674 45.0942ZM64.9094 45.5647C65.3595 45.8049 65.6219 46.1269 65.8518 46.4124C66.078 46.6912 66.292 46.959 66.628 47.0706C66.7471 47.1115 66.8738 47.1311 67.0028 47.1311C67.506 47.1311 68.0122 46.8224 68.2039 46.3948L68.397 45.9664L67.9299 45.9385C67.908 45.9382 67.3073 45.8831 66.6396 45.1995C66.3646 44.9187 66.0319 44.7715 65.674 44.7715C65.2365 44.7715 64.9121 44.9905 64.8763 45.0131L64.4474 45.3158L64.9094 45.5647Z" fill="#1A1919"/>
<path fill-rule="evenodd" clip-rule="evenodd" d="M65.1206 49.8355V49.8521C64.8499 47.6623 63.2627 46.0809 61.4963 45.1198C61.3331 45.0321 61.1819 44.9577 61.036 44.8866C61.5733 44.9703 62.4394 44.9803 63.1082 44.3994C63.1082 44.3994 62.0851 45.1531 59.9904 44.4685C60.5699 44.8454 61.6967 45.3774 62.726 46.239C65.2974 48.503 63.4578 50.7111 63.4578 50.7111C64.3819 49.7448 64.4204 48.7097 64.1483 47.8643C64.635 48.6761 64.9461 49.6607 64.8977 50.8756C64.8271 52.6155 63.8721 54.1205 62.8677 55.3294C62.385 55.9162 62.2772 56.6373 62.2772 56.6373C62.2772 56.6373 62.4719 56.001 63.0305 55.3464C64.1073 54.0836 65.0277 52.7724 65.1484 50.8822C65.2596 51.2255 65.7184 52.1786 66.4458 52.5378C66.4458 52.5378 65.5316 51.9858 65.1206 49.8355Z" fill="#1A1919"/>
<path fill-rule="evenodd" clip-rule="evenodd" d="M51.1298 58.1203C48.4497 58.1203 48.518 55.8178 48.518 55.8178C48.518 55.8178 48.3309 56.4997 47.5842 56.6774C47.4947 56.701 47.3991 56.7103 47.3059 56.7103C47.0654 56.7103 46.8571 56.6535 46.8571 56.6535C46.8571 56.6535 47.2469 55.8267 46.8585 54.6694C46.5374 53.7093 46.5895 52.9976 46.5895 52.9976C46.5895 52.9976 46.2292 53.5445 45.3333 53.5498H45.3243C44.5793 53.5498 44.2539 52.9832 44.2539 52.9832C46.0395 52.2402 45.8647 49.8423 45.8647 49.8423C45.8647 49.8423 45.6325 50.0158 45.1797 50.0321C45.1631 50.0331 45.1485 50.0331 45.1329 50.0331C44.1478 50.0331 43.8141 48.9767 43.8141 48.9767H43.834C44.0161 48.9767 45.4779 48.9339 46.5122 47.6166C47.1938 46.7503 47.7524 45.9887 48.8534 45.6889L48.9638 45.6694L48.9874 45.559C49.0179 45.3906 48.9028 45.232 48.6411 45.0615C47.1202 44.0637 48.1531 42.791 48.1531 42.791C48.1531 42.791 48.585 43.8085 49.5596 43.8085C49.5831 43.8085 49.6053 43.8075 49.6305 43.8075C49.74 43.8015 49.8482 43.7972 49.955 43.7746L50.1341 43.7397C50.1341 43.7397 49.8558 42.9844 50.5265 42.2912C51.0304 41.7678 51.6427 41.6788 51.9966 41.6788C52.1761 41.6788 52.2875 41.7017 52.2875 41.7017C51.9525 42.1417 51.7097 42.872 52.0971 43.3226C52.4325 43.7098 53.2505 43.7284 53.2505 44.3053C53.2505 44.5502 53.0226 44.8353 52.6139 45.0911C51.3823 45.8681 50.1606 46.8992 49.6521 48.2799C49.0179 50.0025 49.7337 51.146 50.7557 51.8019C50.7557 51.8019 50.4343 52.097 49.9696 52.1349C49.875 52.1439 49.7834 52.1482 49.6956 52.1482C48.7164 52.1482 48.2095 51.6876 48.2095 51.6876C48.2095 51.6876 48.2938 52.3239 48.8006 52.9151C49.2743 53.4601 49.8913 53.7818 50.8343 53.7951C50.8343 53.7951 50.8641 54.2331 50.4472 54.6122C50.1795 54.8521 49.5629 54.9296 49.5629 54.9296C49.5629 54.9296 50.7185 55.1641 50.8456 56.8725C50.9146 57.7986 51.1491 58.1203 51.1491 58.1203H51.1298ZM51.4148 57.9362C51.4138 57.9332 51.2267 57.6404 51.1667 56.8496C51.0967 55.9018 50.7391 55.3489 50.3858 55.0312C50.488 54.9827 50.5826 54.9232 50.6621 54.8508C51.1809 54.3836 51.1591 53.834 51.1554 53.7741L51.1355 53.4777L50.8383 53.473C50.0468 53.4601 49.4939 53.2232 49.0454 52.7024C48.9413 52.5802 48.857 52.4582 48.7887 52.3393C49.0355 52.4147 49.3376 52.4708 49.6956 52.4708C49.7914 52.4708 49.8913 52.4652 49.9968 52.4582C50.5541 52.4103 50.9311 52.0781 50.973 52.0412L51.2815 51.7574L50.9295 51.5307C50.1417 51.0263 49.3367 50.0696 49.955 48.3922C50.3556 47.3016 51.2815 46.3137 52.7864 45.367C53.2943 45.0453 53.5722 44.6668 53.5722 44.3053C53.5722 43.7467 53.1065 43.5263 52.7649 43.3692C52.5984 43.2894 52.4249 43.2103 52.3406 43.1123C52.0759 42.8052 52.2988 42.2171 52.5446 41.8984L52.8597 41.485L52.3495 41.384C52.3346 41.3823 52.2009 41.3574 51.9966 41.3574C51.6158 41.3574 50.8887 41.4498 50.2949 42.0659C49.8 42.5786 49.735 43.1239 49.7606 43.4765C49.7128 43.4805 49.6647 43.4825 49.614 43.4851H49.5596C48.8145 43.4851 48.4626 42.6946 48.449 42.6637L48.2397 42.1699L47.9004 42.5863C47.8814 42.6115 47.3859 43.2303 47.5066 44.0059C47.5866 44.5216 47.91 44.9659 48.4649 45.3314C48.5253 45.3703 48.5674 45.4035 48.5976 45.4311C47.5501 45.772 46.9659 46.5197 46.349 47.3053L46.2601 47.4169C45.3174 48.6188 43.9826 48.6544 43.823 48.6544L43.3682 48.6401L43.5066 49.0738C43.5228 49.1266 43.9252 50.3564 45.1329 50.3564L45.191 50.3547C45.319 50.3511 45.4334 50.3335 45.5353 50.3139C45.4855 50.9845 45.2391 52.2243 44.1292 52.6858L43.7902 52.8261L43.9736 53.1461C43.9912 53.1753 44.4032 53.8722 45.3359 53.8722C45.7436 53.8708 46.0607 53.7688 46.2979 53.6456C46.3337 53.949 46.4083 54.3387 46.554 54.7743C46.8916 55.7809 46.5772 56.487 46.5652 56.5153L46.3984 56.8669L46.7752 56.9669C46.8001 56.9732 47.0319 57.0317 47.3059 57.0317C47.434 57.0317 47.5524 57.0177 47.6595 56.9924C47.9451 56.925 48.1661 56.798 48.3339 56.6535C48.4361 56.9689 48.6115 57.3251 48.916 57.6404C49.4338 58.1738 50.1785 58.4426 51.1514 58.4426L51.7409 58.4346L51.4148 57.9362Z" fill="#1A1919"/>
<path fill-rule="evenodd" clip-rule="evenodd" d="M45.754 45.4268C46.0028 45.1705 46.2645 45.0935 46.4907 45.0935C46.838 45.0935 47.1011 45.2785 47.1011 45.2785C46.1623 45.7797 45.9686 46.5835 45.4326 46.7646C45.344 46.7962 45.2521 46.8095 45.1606 46.8095C44.7662 46.8095 44.3844 46.5539 44.254 46.2622C44.254 46.2622 44.9771 46.218 45.754 45.4268ZM45.1606 47.1308C45.2899 47.1308 45.4163 47.1115 45.5357 47.0706C45.8724 46.9587 46.0864 46.6912 46.3123 46.4121C46.5435 46.1269 46.8029 45.8046 47.2533 45.5644L47.7167 45.3155L47.2865 45.0124C47.2507 44.9898 46.9279 44.7715 46.4907 44.7715C46.1318 44.7715 45.7988 44.9184 45.5241 45.1991C44.8554 45.883 44.2563 45.9378 44.2348 45.9385L43.7684 45.9661L43.9598 46.3948C44.1525 46.8221 44.6577 47.1308 45.1606 47.1308Z" fill="#1A1919"/>
<path fill-rule="evenodd" clip-rule="evenodd" d="M47.2664 50.8756C47.2163 49.6607 47.5278 48.6761 48.0151 47.8643C47.7434 48.7097 47.7802 49.7448 48.7057 50.7115C48.7057 50.7115 46.8654 48.503 49.4385 46.239C50.4671 45.3774 51.5929 44.8454 52.1724 44.4685C50.0783 45.1531 49.0557 44.3994 49.0557 44.3994C49.7237 44.9803 50.5901 44.9703 51.1272 44.8866C50.9819 44.9577 50.8293 45.0318 50.6671 45.1198C48.9001 46.0809 47.3139 47.6623 47.0419 49.8521V49.8355C46.6315 51.9858 45.718 52.5378 45.718 52.5378C46.4448 52.1786 46.9025 51.2255 47.014 50.8822C47.1354 52.7724 48.0559 54.0836 49.1323 55.3464C49.6909 56.001 49.8876 56.6373 49.8876 56.6373C49.8876 56.6373 49.7784 55.9162 49.2935 55.3294C48.2907 54.1208 47.3368 52.6155 47.2664 50.8756Z" fill="#1A1919"/>
<path fill-rule="evenodd" clip-rule="evenodd" d="M55.4761 46.4443V46.8787C55.626 46.6962 55.9143 46.7334 55.9143 46.7334V47.3594C55.9143 47.3594 55.9047 47.6675 55.7952 47.8008H56.4205C56.3123 47.6675 56.3017 47.3594 56.3017 47.3594V46.7334C56.3017 46.7334 56.5909 46.6962 56.7395 46.8787V46.4443H55.4761Z" fill="#1A1919"/>
<path fill-rule="evenodd" clip-rule="evenodd" d="M55.2079 43.8691C55.4079 44.028 55.5233 44.0546 55.527 44.0569L55.6053 44.0931V43.6844L54.8705 43.375C54.8705 43.375 54.8768 43.6119 55.2079 43.8691Z" fill="#1A1919"/>
<path fill-rule="evenodd" clip-rule="evenodd" d="M56.9545 43.8691C57.2866 43.6119 57.2929 43.375 57.2929 43.375L56.5582 43.6844V44.0931L56.6358 44.0569C56.6398 44.0546 56.7548 44.028 56.9545 43.8691Z" fill="#1A1919"/>
<path fill-rule="evenodd" clip-rule="evenodd" d="M56.0811 42.7803L54.3114 42.0798C54.462 41.7229 55.1559 41.4192 56.0811 41.4182C57.0075 41.4192 57.7015 41.7229 57.8514 42.0798L56.0811 42.7803ZM57.4006 44.9744L56.2111 45.6025V43.0597L57.8252 42.5108L57.4006 44.9744ZM58.1373 45.6493L58.6813 45.9657H58.689L58.8256 46.0457C58.5185 46.1309 58.2839 46.2847 58.0869 46.4867C58.0796 46.4931 58.0733 46.5003 58.0654 46.508C58.0202 46.5562 57.9755 46.6081 57.9323 46.6618C57.9247 46.6718 57.9161 46.6825 57.9071 46.6945C57.8653 46.7486 57.8252 46.8044 57.7874 46.8619C57.781 46.8718 57.7738 46.8819 57.7671 46.8915C57.7224 46.9589 57.6789 47.0307 57.6361 47.1051C57.2487 47.7737 56.6307 48.1731 56.0811 48.1741C55.5321 48.1731 54.9138 47.7737 54.527 47.1051C54.4849 47.0327 54.4424 46.9626 54.3977 46.8945C54.3887 46.8819 54.3807 46.8685 54.3725 46.8576C54.3347 46.8021 54.2962 46.7476 54.2577 46.6964C54.2478 46.6825 54.2388 46.6718 54.2288 46.6599C54.1867 46.6081 54.1436 46.5569 54.0998 46.5097C54.0905 46.502 54.0842 46.4931 54.0762 46.4854C53.8782 46.2831 53.6444 46.1309 53.3369 46.0457L53.4748 45.9657H53.4812L54.0262 45.6493L54.5851 45.3286L56.0784 46.1432L56.0811 46.1398L56.0854 46.1432L57.5784 45.3286L58.1373 45.6493ZM60.2831 47.9113C60.1614 48.2333 60.0606 48.5819 60.0606 48.9285L60.0615 51.1661C59.5949 51.0877 59.5398 50.5843 59.5378 50.5624L59.5292 50.4601L59.4286 50.4511C59.226 50.4315 59.0913 50.3457 58.9779 50.2354C58.749 50.0061 58.7487 49.6346 58.749 49.6313C58.7457 49.6502 58.4972 49.9991 58.7858 50.3803C58.9072 50.5408 59.0833 50.6398 59.3109 50.6787C59.3643 50.9578 59.5719 51.3523 60.0615 51.4124V52.5077H58.6843C58.0494 52.1535 58.3184 51.5307 58.3307 51.5038L58.3844 51.3858L58.263 51.3397C57.5751 51.0841 57.7648 50.3969 57.7738 50.3673L57.8017 50.267L57.7078 50.2228C57.1403 49.9589 57.2168 49.2488 57.2245 49.2189C57.0497 49.3611 56.987 49.6502 57.1071 49.934C57.0421 50.0088 56.9548 50.0985 56.859 50.1979C56.2708 50.0477 56.2526 49.5063 56.2526 49.4814L56.2513 49.398L56.174 49.3681C55.9444 49.2831 55.7869 49.1551 55.7089 48.9836C55.622 48.7935 55.6525 48.5945 55.6764 48.4985C55.7437 48.5141 55.8107 48.5244 55.8747 48.53C55.9411 48.5367 56.0088 48.541 56.0771 48.541H56.0864C56.1544 48.541 56.2217 48.5367 56.288 48.53C56.6546 48.4935 57.0646 48.336 57.4921 47.9113H60.2831ZM58.5623 57.6629L58.7161 56.8601C58.7241 56.8129 58.7341 56.7578 58.7407 56.7116C58.7845 56.7298 58.8299 56.7445 58.8797 56.7538C58.9374 56.7648 58.9902 56.7704 59.0382 56.7704C59.2731 56.7704 59.4101 56.6468 59.501 56.5411L59.6187 56.4036L59.5225 56.2524C59.5139 56.2374 59.3003 55.8994 59.1364 55.6682C59.1039 55.6227 59.0734 55.5775 59.0423 55.5286C58.8555 55.2488 58.622 54.8982 58.1533 54.8982L58.1115 54.8992C58.0345 54.9042 57.9682 54.9195 57.9144 54.9398C57.7671 54.871 57.6152 54.8351 57.4573 54.8351C57.2633 54.8351 57.1007 54.8886 56.9919 54.9255C56.9607 54.9344 56.9329 54.9445 56.911 54.9488L56.0353 54.8624C56.0243 54.86 55.9889 54.8391 55.9451 54.7876V54.7832L56.1345 54.7071C56.0811 54.0748 55.4751 53.686 55.1374 53.5541C55.1228 53.491 55.0923 53.4278 55.0392 53.3763L54.8511 53.1975L54.6856 53.3962L54.6043 53.4973L53.378 52.9928L54.1758 53.996L53.8609 54.4739C53.7459 54.5962 53.8729 54.7195 53.8729 54.7195L54.1983 54.9437L54.5353 54.8178C54.5469 54.8178 54.5572 54.8205 54.5688 54.8218C54.5522 54.8729 54.531 55.0743 54.5171 55.1305L53.9319 55.0155L53.3173 55.3631C53.0012 55.5957 52.958 55.9802 53.0755 56.2437L53.1435 56.3929L53.2403 56.6039L53.4556 56.5149C53.4586 56.5138 53.4616 56.5129 53.4636 56.5112C53.3863 56.7588 53.4178 56.9941 53.5554 57.1482L53.6862 57.3127L53.8599 57.5327L54.0507 57.3274C54.1064 57.2715 54.2888 57.0672 54.3446 56.8923L54.386 56.7588L54.2931 56.6561L54.2776 56.6375L54.3824 56.4644L55.146 56.6448L55.3182 56.6843L55.4094 56.5331L55.4591 56.4511C55.4687 56.4334 55.4708 56.4308 55.5062 56.4308C55.5335 56.4308 55.5603 56.4334 55.5895 56.4401C55.8777 56.4946 56.1434 56.5215 56.3793 56.5215C56.6082 56.5215 56.7452 56.5129 56.908 56.4587C56.908 56.4587 57.318 56.9252 57.3322 56.9432L57.0808 57.7195L57.0699 57.7663C56.5942 57.8048 56.3627 57.9095 56.0828 58.1893C55.6764 57.7856 55.3885 57.7431 54.2962 57.7431C52.9885 57.7431 52.1022 56.9751 52.1022 55.7482V52.7492H60.0615L60.0632 55.7482C60.0632 56.7425 59.4804 57.4366 58.5623 57.6629ZM53.66 55.9673L53.7014 56.0709C53.6739 56.1616 53.3634 56.2899 53.3634 56.2899L53.2964 56.1427C53.2251 55.9858 53.2403 55.7213 53.4566 55.5595L53.9601 55.2525L54.4942 55.3658C54.4842 55.5356 54.5854 55.6625 54.5854 55.6625L54.0262 55.5548L53.6914 55.7865C53.6344 55.8263 53.6304 55.8994 53.66 55.9673ZM58.478 56.815L58.3065 57.7118C58.1964 57.7275 58.0809 57.7354 57.9615 57.74L58.1426 56.8781C58.1964 56.6218 57.5097 56.5421 57.1704 56.0384C57.0049 56.2248 56.6931 56.2806 56.3793 56.2806C56.0934 56.2806 55.8078 56.2351 55.634 56.2005C55.5899 56.1935 55.5477 56.1886 55.5062 56.1886C55.406 56.1886 55.3145 56.2198 55.2512 56.3258L55.2014 56.4102L54.2656 56.1896L54.0328 56.5757C54.0003 56.6385 53.9976 56.691 54.0507 56.7495L54.1137 56.8186C54.0703 56.9552 53.8755 57.1618 53.8755 57.1618L53.7366 56.9877C53.6264 56.8645 53.6444 56.6385 53.7591 56.4295L54.1303 55.8017L54.9231 55.9164L54.8 55.6353C54.6345 55.2631 54.8869 54.7902 54.9138 54.5177C54.9045 54.6002 54.8289 54.6188 54.7413 54.6188C54.6614 54.6188 54.5721 54.6035 54.5127 54.6035C54.4892 54.6035 54.4693 54.6058 54.4587 54.6138L54.2437 54.7444L54.0746 54.5942C54.054 54.5656 54.0477 54.4978 54.0971 54.4473L54.4892 54.0067L54.0262 53.4644L54.6746 53.791L54.873 53.5504C54.9274 53.6039 54.9035 53.7435 54.9035 53.7435C55.1058 53.7485 55.6737 54.0628 55.7039 54.7972C55.7056 54.8198 55.7056 54.8447 55.7056 54.869C55.7056 54.869 55.7109 54.8783 55.7209 54.8933C55.7607 54.9488 55.8718 55.0903 56.0121 55.1033L56.9087 55.1923H56.9123C57.0105 55.1923 57.2063 55.0767 57.4573 55.0767C57.5943 55.0767 57.7463 55.1116 57.9085 55.2139C57.9085 55.2139 57.9904 55.1491 58.1224 55.1425C58.1324 55.1411 58.1439 55.1411 58.1533 55.1411C58.5553 55.1411 58.7225 55.5053 58.9384 55.8077C59.1006 56.0384 59.3175 56.3799 59.3175 56.3799C59.2376 56.475 59.1633 56.5282 59.0382 56.5282C59.0041 56.5282 58.9652 56.5255 58.9228 56.5169C58.4912 56.4371 58.4293 55.5489 58.1831 55.4787C58.1699 55.4751 58.1566 55.4738 58.1439 55.4738C58.0647 55.4738 58.0302 55.5442 58.0302 55.5442C58.1427 55.8473 58.0766 55.9695 58.198 56.2028C58.2882 56.376 58.4492 56.5182 58.5152 56.5856C58.5152 56.5856 58.4972 56.7169 58.478 56.815ZM57.6527 57.746C57.5319 57.746 57.4208 57.7477 57.321 57.7517L57.5837 56.9322C57.6245 56.8186 57.4172 56.6727 57.3313 56.5448C57.4606 56.6262 57.796 56.8047 57.9572 56.8757C57.9409 56.9024 57.6527 57.746 57.6527 57.746ZM53.7475 50.3617L53.785 48.9371L54.1041 48.5989L54.3044 49.0192L53.9094 50.3866L53.7475 50.3617ZM53.9771 50.803C54.0291 50.9127 54.123 50.9857 54.189 51.0273C54.1867 51.1303 54.1771 51.2895 54.1502 51.4304C54.1436 51.4619 54.1356 51.4909 54.127 51.5197C54.1223 51.538 54.117 51.553 54.1134 51.565C54.0155 51.565 53.8244 51.553 53.6676 51.4958C53.4941 51.4317 53.2354 51.113 53.2951 50.7615C53.3701 50.7156 53.5439 50.6175 53.7067 50.6175C53.8318 50.6175 53.9173 50.6767 53.9771 50.803ZM57.6733 51.1858C57.4278 51.3669 56.7956 51.8295 56.566 51.99L54.3585 51.5925C54.3638 51.5729 54.3692 51.553 54.3738 51.5337C54.4026 51.4187 54.4325 51.2622 54.4338 51.0778L56.2894 51.1077L56.3249 51.0715C56.3531 51.0433 56.9408 50.4743 57.2404 50.147C57.3117 50.2367 57.4006 50.3221 57.5177 50.3969C57.4779 50.6149 57.4948 50.9246 57.6733 51.1858ZM54.6713 47.9113C54.9367 48.1755 55.1964 48.3397 55.4432 48.43C55.4113 48.5576 55.3693 48.8208 55.488 49.083C55.5852 49.2944 55.7613 49.4571 56.0161 49.5658C56.0439 49.8274 56.2091 50.2205 56.6652 50.3936C56.4652 50.5957 56.2708 50.786 56.1922 50.8628L54.3406 50.8335C54.2988 50.8126 54.2269 50.7651 54.195 50.6983C54.1914 50.6887 54.1854 50.6837 54.1814 50.6744L54.4836 50.7232C54.4899 50.7242 54.4965 50.7242 54.5028 50.7242C54.5612 50.7242 54.6119 50.6837 54.6216 50.6235C54.6315 50.5568 54.5871 50.4949 54.5217 50.4846L54.1502 50.4258L54.5622 48.9989L54.1717 48.1755L53.5458 48.8384L53.5074 50.3221L53.0867 50.255C53.0217 50.2424 52.9597 50.2899 52.9481 50.356C52.9381 50.4212 52.9826 50.4833 53.0486 50.4949L53.2251 50.5218C53.162 50.5577 53.1203 50.5863 53.1153 50.5903L53.0798 50.6152L53.0698 50.6594C52.9676 51.0758 53.1989 51.4709 53.449 51.6477L53.44 51.7002C53.4297 51.7643 53.4443 51.8268 53.4828 51.8789C53.5193 51.9325 53.5747 51.9644 53.6377 51.9757C53.6507 51.978 53.6646 51.979 53.6766 51.979C53.785 51.979 53.8796 51.9039 53.906 51.7942C53.9989 51.8052 54.0842 51.8075 54.1426 51.8075H54.1923L56.6214 52.2475L56.6629 52.2199C56.8563 52.0843 57.5943 51.5456 57.8361 51.3673C57.9028 51.4247 57.9771 51.4765 58.067 51.5197C57.9884 51.7826 57.9838 52.1877 58.2932 52.5077H52.1022V48.9285C52.1022 48.5819 52.0011 48.2333 51.8814 47.9113H54.6713ZM54.3366 42.5108L55.952 43.0597V45.6025L54.7626 44.9744L54.3366 42.5108ZM58.278 42.2041C58.278 41.5837 57.2354 41.0254 56.0847 41.0254H56.0784C54.9277 41.0254 53.8851 41.5837 53.8851 42.2041L53.9081 42.3566L54.3675 44.9987L53.906 45.2672L52.7119 45.9657H52.7162C52.7162 45.9657 52.4475 46.1039 52.3232 46.189C51.8684 46.5053 51.7719 46.9669 52.0359 47.1577C52.1009 46.7811 52.3978 46.388 52.9541 46.388C53.3545 46.388 53.66 46.5951 53.906 46.9054C53.9698 46.9839 54.0298 47.0676 54.0858 47.1577C54.1549 47.2713 54.2245 47.371 54.2931 47.467H51.2173C51.4435 47.9223 51.6584 48.4045 51.6584 48.9285V55.7482C51.6584 57.3991 52.9256 58.187 54.2962 58.187C55.3556 58.187 55.4983 58.1385 56.0828 58.722C56.6646 58.1385 56.8075 58.187 57.8677 58.187C59.2393 58.187 60.5047 57.3991 60.5047 55.7482V48.9285C60.5047 48.4045 60.7194 47.9223 60.9466 47.467H57.8696C57.9383 47.371 58.0076 47.2713 58.0766 47.1577C58.1337 47.0676 58.1934 46.9839 58.2558 46.9054C58.5042 46.5937 58.8087 46.388 59.2094 46.388C59.765 46.388 60.0615 46.7811 60.1275 47.1577C60.3916 46.9669 60.2961 46.5053 59.8386 46.189C59.7162 46.1039 59.4472 45.9657 59.4472 45.9657H59.4516L58.2558 45.2672L57.796 44.9987L58.2558 42.3566L58.278 42.2041Z" fill="#1A1919"/>
<defs>
<filter id="filter0_dddd" x="0" y="0" width="112" height="115.056" filterUnits="userSpaceOnUse" color-interpolation-filters="sRGB">
<feFlood flood-opacity="0" result="BackgroundImageFix"/>
<feColorMatrix in="SourceAlpha" type="matrix" values="0 0 0 0 0 0 0 0 0 0 0 0 0 0 0 0 0 0 127 0"/>
<feOffset dy="1"/>
<feGaussianBlur stdDeviation="1"/>
<feColorMatrix type="matrix" values="0 0 0 0 0 0 0 0 0 0 0 0 0 0 0 0 0 0 0.03 0"/>
<feBlend mode="normal" in2="BackgroundImageFix" result="effect1_dropShadow"/>
<feColorMatrix in="SourceAlpha" type="matrix" values="0 0 0 0 0 0 0 0 0 0 0 0 0 0 0 0 0 0 127 0"/>
<feOffset dy="2"/>
<feGaussianBlur stdDeviation="2"/>
<feColorMatrix type="matrix" values="0 0 0 0 0 0 0 0 0 0 0 0 0 0 0 0 0 0 0.04 0"/>
<feBlend mode="normal" in2="effect1_dropShadow" result="effect2_dropShadow"/>
<feColorMatrix in="SourceAlpha" type="matrix" values="0 0 0 0 0 0 0 0 0 0 0 0 0 0 0 0 0 0 127 0"/>
<feOffset dy="2"/>
<feGaussianBlur stdDeviation="6"/>
<feColorMatrix type="matrix" values="0 0 0 0 0 0 0 0 0 0 0 0 0 0 0 0 0 0 0.06 0"/>
<feBlend mode="normal" in2="effect2_dropShadow" result="effect3_dropShadow"/>
<feColorMatrix in="SourceAlpha" type="matrix" values="0 0 0 0 0 0 0 0 0 0 0 0 0 0 0 0 0 0 127 0"/>
<feOffset dy="6"/>
<feGaussianBlur stdDeviation="16"/>
<feColorMatrix type="matrix" values="0 0 0 0 0 0 0 0 0 0 0 0 0 0 0 0 0 0 0.1 0"/>
<feBlend mode="normal" in2="effect3_dropShadow" result="effect4_dropShadow"/>
<feBlend mode="normal" in="SourceGraphic" in2="effect4_dropShadow" result="shape"/>
</filter>
</defs>
</svg>
