<svg width="240" height="85" viewBox="0 0 240 85" fill="none" xmlns="http://www.w3.org/2000/svg">
<path d="M84.4572 49.6682H88.743V39.7799H94.6287V36.1816H78.5715V39.7799H84.4572V49.6682Z" fill="black"/>
<path d="M107.629 36.1816L100.487 44.0299V36.1816H96.3438V49.6682H100.001L107.144 41.8199V49.6682H111.287V36.1816H107.629Z" fill="black"/>
<path d="M118.567 44.6532H125.224V49.6682H129.367V36.1816H125.224V41.1116H118.567V36.1816H114.424V49.6682H118.567V44.6532Z" fill="black"/>
<path d="M140.904 49.6682C141.847 49.6682 142.704 49.5832 143.504 49.3566C145.647 48.7616 147.047 47.0332 147.047 44.6816C147.047 42.4432 145.847 40.8849 143.933 40.1766C143.019 39.8366 141.933 39.8082 140.904 39.8082H136.647V36.1816H132.504V49.6682H140.904ZM136.647 42.9816H140.19C140.762 42.9816 141.304 42.9816 141.79 43.1516C142.476 43.3782 142.876 43.9449 142.876 44.6249C142.876 45.3332 142.476 45.9282 141.819 46.2116C141.362 46.4099 140.904 46.4099 140.19 46.4099H136.647V42.9816Z" fill="black"/>
<path d="M153.333 44.5682H154.475L159.419 49.6682H164.933L158.047 42.6416L164.676 36.1816H159.476L154.475 41.2532H153.333V36.1816H149.19V49.6682H153.333V44.5682Z" fill="black"/>
<path d="M173.457 35.8132C167.886 35.8132 164.543 38.9299 164.543 42.9532C164.543 46.9766 167.886 50.0932 173.457 50.0932C179 50.0932 182.343 46.9766 182.343 42.9532C182.343 38.9299 179 35.8132 173.457 35.8132ZM173.457 46.8066C170.686 46.8066 168.914 45.1632 168.914 42.9532C168.914 40.7432 170.686 39.1282 173.457 39.1282C176.2 39.1282 178 40.7432 178 42.9532C178 45.1632 176.2 46.8066 173.457 46.8066Z" fill="black"/>
<path d="M196.14 36.7769V35.4169H191.997V36.7769C186.797 36.8902 183.683 39.0719 183.683 42.9252C183.683 46.7785 186.797 48.7902 191.997 48.9035V50.2635H196.14V48.9035C201.369 48.7902 204.483 46.7785 204.483 42.9252C204.483 39.0719 201.369 36.8902 196.14 36.7769ZM191.997 46.0135C189.14 45.9002 187.883 44.7385 187.883 42.9252C187.883 41.1119 189.14 39.8085 191.997 39.6952V46.0135ZM196.14 46.0135V39.6952C199.026 39.8085 200.254 41.1119 200.254 42.9252C200.254 44.7385 199.026 45.9002 196.14 46.0135Z" fill="black"/>
<path d="M218.266 36.7769V35.4169H214.123V36.7769C208.923 36.8902 205.809 39.0719 205.809 42.9252C205.809 46.7785 208.923 48.7902 214.123 48.9035V50.2635H218.266V48.9035C223.494 48.7902 226.609 46.7785 226.609 42.9252C226.609 39.0719 223.494 36.8902 218.266 36.7769ZM214.123 46.0135C211.266 45.9002 210.009 44.7385 210.009 42.9252C210.009 41.1119 211.266 39.8085 214.123 39.6952V46.0135ZM218.266 46.0135V39.6952C221.151 39.8085 222.38 41.1119 222.38 42.9252C222.38 44.7385 221.151 45.9002 218.266 46.0135Z" fill="black"/>
<path fill-rule="evenodd" clip-rule="evenodd" d="M66.4387 40.9463L67.1429 38.7062L64.812 38.7795C64.6154 38.7795 63.1841 38.7382 61.7951 37.7385C61.8993 37.7471 62.002 37.7624 62.1087 37.7624C63.5379 37.7624 64.9221 36.9075 65.476 35.6838L66.4783 33.4743C65.2203 33.4909 64.071 33.333 64.071 33.333C64.0616 33.3322 63.1553 33.2155 62.108 32.1518C61.3569 31.3902 60.427 30.9867 59.4201 30.9867C58.979 30.9867 58.585 31.0661 58.2453 31.1728C58.299 30.9934 58.348 30.812 58.3781 30.6246C58.6977 28.5565 57.3591 26.98 57.3584 26.9813L55.605 24.8245L54.5181 27.3581C54.5149 27.3661 54.2396 27.9603 53.7494 28.2497C53.6019 27.5048 53.2373 26.6678 52.4599 25.8675C50.9931 24.3597 49.208 24.1336 48.2743 24.1336C47.8413 24.1336 47.5319 24.1809 47.4573 24.1929L45.3413 24.6064C45.4634 24.1369 45.724 23.318 46.1993 22.5824L47.3667 20.7757L44.429 21.1072L43.4926 19.1331L41.6806 20.0615L40.0044 18.4169L38.3334 20.0615L36.5169 19.1331L35.5831 21.1072L32.6461 20.7744L33.8156 22.583C34.2914 23.318 34.5506 24.1349 34.6714 24.6031L32.6521 24.2076L32.583 24.197C32.4816 24.1809 32.1749 24.1336 31.7399 24.1336C30.806 24.1336 29.0217 24.3597 27.5583 25.8669C26.7795 26.6665 26.4143 27.5048 26.2653 28.2497C25.7779 27.963 25.5053 27.3781 25.5053 27.3781L24.4165 24.8299L22.6362 27C22.418 27.2794 21.3452 28.7619 21.6366 30.6273C21.6668 30.8133 21.7158 30.9934 21.7682 31.1728C21.4305 31.0654 21.0364 30.9867 20.596 30.9867C19.5884 30.9867 18.6586 31.3902 17.9061 32.1518C16.8615 33.2108 15.9613 33.331 15.9687 33.331C15.9687 33.331 15.0154 33.5017 13.5412 33.4743L14.5381 35.6838C15.0933 36.9075 16.4782 37.7624 17.9047 37.7624C18.0122 37.7624 18.1149 37.7471 18.2203 37.7385C16.8347 38.7382 15.4034 38.7795 15.2302 38.7802L12.8571 38.7062L13.5761 40.9457C13.9386 42.1 15.147 44.0121 17.4617 44.2182C17.2099 45.2665 16.6521 46.4422 15.4263 46.9478L13.6574 47.6715L14.622 49.34C15.1658 50.2396 16.444 51.292 18.2626 51.292C18.6559 51.2908 19.0359 51.2514 19.4024 51.174C19.4958 51.5849 19.6126 51.997 19.7509 52.4058C20.2919 54.0076 19.8254 55.1241 19.8207 55.1367L18.9473 56.9535L20.8961 57.4636C20.9203 57.471 21.509 57.6323 22.2461 57.6323C22.5798 57.6323 22.9007 57.5976 23.1994 57.5262C23.4256 57.4737 23.6438 57.4042 23.8532 57.3195C24.1057 57.769 24.4118 58.1792 24.7689 58.5466C26.0176 59.8198 27.7879 60.4647 30.0287 60.4647H30.036L31.6364 60.444L28.3303 61.8098L30.8403 63.015C31.7526 63.4564 32.8334 63.9786 33.935 64.3781L33.6216 65.2298L34.4861 65.6219C34.5634 65.6565 36.2276 66.3954 38.9927 66.5528C38.9927 66.5528 39.66 66.5835 40.0279 66.5835C40.395 66.5835 41.055 66.5508 41.055 66.5508C43.802 66.3895 45.4527 65.6565 45.53 65.6219L46.3973 65.2291L46.0811 64.3761C47.2129 63.9645 48.3347 63.4217 49.2087 62.9975L51.6724 61.8085L48.377 60.444L49.9841 60.4647C52.2283 60.4647 53.9986 59.8191 55.2451 58.5447C55.601 58.1806 55.9064 57.771 56.1601 57.3195C56.3703 57.4042 56.5899 57.4737 56.8167 57.5276C57.1149 57.5976 57.435 57.6323 57.7687 57.6323C58.493 57.6323 59.0884 57.473 59.1039 57.4676L61.0614 56.9535L60.2089 55.1702C60.1887 55.1241 59.7221 54.0076 60.2633 52.4044C60.4009 51.9956 60.517 51.5842 60.6117 51.174C60.9789 51.2514 61.3621 51.2908 61.759 51.292C64.0763 51.292 65.1873 49.6728 65.4021 49.3213L66.3567 47.67L64.5891 46.9491C63.36 46.4422 62.8029 45.2672 62.5537 44.2195C64.8383 44.0221 66.0634 42.1081 66.4387 40.9463Z" fill="#FFFFFE"/>
<path fill-rule="evenodd" clip-rule="evenodd" d="M40.0049 25.2775C38.1326 25.2795 36.7282 25.8884 36.4233 26.6059L40.0049 28.0105L43.5876 26.6059C43.2842 25.8884 41.8798 25.2795 40.0049 25.2775Z" fill="#FFFFFE"/>
<path fill-rule="evenodd" clip-rule="evenodd" d="M40.0429 62.449H39.971C38.8366 62.4563 37.273 62.2256 36.5219 62.0068L35.6156 64.4411C36.2125 64.6525 38.2357 65.0573 40.0087 65.0573C41.7783 65.0573 43.8023 64.6525 44.3985 64.4411L43.4942 62.0068C42.7389 62.2256 41.1775 62.4563 40.0429 62.449Z" fill="#FFFFFE"/>
<path fill-rule="evenodd" clip-rule="evenodd" d="M46.8959 60.0272C46.2219 60.406 44.7169 60.9755 43.8422 61.2395L44.5765 63.2502C45.9306 62.8829 47.0491 62.454 47.9713 61.9938L46.4462 61.4903L46.8959 60.0272Z" fill="#FFFFFE"/>
<path fill-rule="evenodd" clip-rule="evenodd" d="M33.1173 60.0272L33.5684 61.4903L32.0418 61.9938C32.9628 62.454 34.086 62.8829 35.4353 63.2502L36.1711 61.2395C35.2977 60.9755 33.7906 60.406 33.1173 60.0272Z" fill="#FFFFFE"/>
<path fill-rule="evenodd" clip-rule="evenodd" d="M40.0048 22.9498C41.4167 22.9498 42.8003 23.2853 43.865 23.8742C43.9623 23.5507 44.0985 23.1572 44.2831 22.7444L43.8797 22.7924L43.4581 22.8365L43.2795 22.4543L42.7405 21.3246L41.7597 21.8328L41.3771 22.0255L41.0715 21.7267L40.0048 20.6783L38.9403 21.7267L38.6361 22.0255L38.2541 21.8328L37.2673 21.3246L36.7363 22.4543L36.5537 22.8365L36.1321 22.7924L35.7307 22.7444C35.9153 23.1572 36.0503 23.5507 36.1488 23.8742C37.2175 23.2853 38.5998 22.9498 40.0048 22.9498Z" fill="#FFFFFE"/>
<path fill-rule="evenodd" clip-rule="evenodd" d="M61.5548 36.007C61.7381 36.0696 61.9241 36.0977 62.1086 36.0977C62.9075 36.0977 63.6788 35.5841 63.9441 34.9979C63.9441 34.9979 62.4805 34.9099 60.9064 33.322C60.4048 32.8079 59.8745 32.6537 59.4194 32.6537C58.7125 32.6537 58.1821 33.0239 58.1821 33.0239C60.0839 34.0302 60.4719 35.6435 61.5548 36.007Z" fill="#FFFFFE"/>
<path fill-rule="evenodd" clip-rule="evenodd" d="M17.9039 36.0977C18.0886 36.0977 18.2752 36.0696 18.4544 36.0063C19.5399 35.6435 19.9313 34.0302 21.8305 33.0245C21.8305 33.0245 21.2988 32.6537 20.5959 32.6537C20.1381 32.6537 19.6084 32.8077 19.1049 33.3227C17.5327 34.9099 16.0699 34.9986 16.0699 34.9986C16.3324 35.5841 17.1058 36.0977 17.9039 36.0977Z" fill="#FFFFFE"/>
<path fill-rule="evenodd" clip-rule="evenodd" d="M60.9807 47.5926C59.5098 46.8716 58.5801 44.959 58.3558 44.27C58.1115 48.0635 56.248 50.6951 54.0695 53.2292C52.939 54.543 52.5442 55.8201 52.5442 55.8201C52.5442 55.8201 52.7624 54.373 53.7398 53.1952C55.7727 50.7697 57.7047 47.7487 57.8482 44.2567C57.947 41.8185 57.3167 39.8424 56.3318 38.2132C56.883 39.9098 56.8044 41.9872 54.9348 43.9265C54.9348 43.9265 58.658 39.495 53.4525 34.9514C51.3701 33.222 49.0897 32.1543 47.917 31.3981C52.1562 32.772 54.2265 31.2593 54.2265 31.2593C52.8732 32.4251 51.1204 32.4051 50.033 32.237C50.3282 32.3798 50.6351 32.5291 50.9647 32.7052C54.5394 34.6339 57.7517 37.8076 58.2994 42.2026V42.1693C59.1305 46.4849 60.9807 47.5926 60.9807 47.5926ZM62.0695 42.5641C62.1024 42.5661 62.1307 42.5661 62.1642 42.5661C64.1567 42.5661 64.832 40.446 64.832 40.446H64.7931C64.4272 40.446 61.4647 40.3606 59.3702 37.7163C57.9927 35.9777 56.8621 34.4491 54.6314 33.8476L54.4118 33.809L54.3642 33.5868C54.3024 33.2487 54.5367 32.9306 55.0664 32.5885C58.1457 30.5858 56.054 28.0309 56.054 28.0309C56.054 28.0309 55.1751 30.0736 53.2082 30.0736C53.1605 30.0736 53.1108 30.0709 53.0618 30.0709C52.839 30.0596 52.6228 30.0516 52.406 30.0056L52.0435 29.9355C52.0435 29.9355 52.6047 28.4197 51.2507 27.0285C50.231 25.9781 48.9904 25.7994 48.2741 25.7994C47.9128 25.7994 47.684 25.8454 47.684 25.8454C48.364 26.7284 48.8554 28.1942 48.0707 29.0986C47.392 29.8755 45.7345 29.9129 45.7345 31.0713C45.7345 31.5621 46.1957 32.1343 47.0241 32.6486C49.5152 34.207 51.9884 36.2758 53.0175 39.0475C54.3024 42.504 52.8544 44.7996 50.7881 46.1154C50.7881 46.1154 51.4367 46.7083 52.3758 46.7842C52.5678 46.8023 52.7544 46.811 52.9282 46.811C54.9127 46.811 55.9391 45.8866 55.9391 45.8866C55.9391 45.8866 55.7692 47.1637 54.7374 48.3495C53.7842 49.4439 52.5348 50.0894 50.6264 50.1161C50.6264 50.1161 50.5665 50.9951 51.4111 51.7567C51.9522 52.237 53.1995 52.3929 53.1995 52.3929C53.1995 52.3929 50.8627 52.8638 50.6048 56.293C50.4645 58.151 49.9865 58.7965 49.9865 58.7965H50.0282C55.4517 58.7965 55.3128 54.1755 55.3128 54.1755C55.3128 54.1755 55.6901 55.544 57.2032 55.9009C57.3858 55.9482 57.5811 55.9669 57.7671 55.9669C58.2538 55.9669 58.6774 55.8529 58.6774 55.8529C58.6774 55.8529 57.8845 54.1929 58.6707 51.8707C59.3225 49.9434 59.2178 48.5155 59.2178 48.5155C59.2178 48.5155 59.9475 49.6133 61.7601 49.6233H61.7782C63.2867 49.6233 63.9438 48.4876 63.9438 48.4876C60.3281 46.9957 60.6852 42.1833 60.6852 42.1833C60.6852 42.1833 61.1545 42.5314 62.0695 42.5641Z" fill="#FFFFFE"/>
<path fill-rule="evenodd" clip-rule="evenodd" d="M25.9421 53.2292C23.7637 50.6951 21.9008 48.0635 21.6544 44.27C21.4295 44.959 20.5031 46.8716 19.0329 47.5926C19.0329 47.5926 20.8811 46.4849 21.7115 42.1693V42.2026C22.2613 37.8083 25.4728 34.6339 29.0483 32.7058C29.3759 32.5285 29.6853 32.3798 29.9787 32.2377C28.8919 32.4051 27.139 32.4251 25.7863 31.2593C25.7863 31.2593 27.8567 32.772 32.0947 31.3981C30.9219 32.155 28.6434 33.222 26.561 34.9514C21.3543 39.495 25.0781 43.9272 25.0781 43.9272C23.2058 41.9872 23.1306 39.9104 23.6811 38.2132C22.695 39.8424 22.0646 41.8185 22.166 44.2567C22.3083 47.7487 24.2396 50.769 26.2684 53.1959C27.2504 54.373 27.4713 55.8196 27.4713 55.8196C27.4713 55.8196 27.0719 54.543 25.9421 53.2292ZM26.8135 52.3929C26.8135 52.3929 28.0614 52.2375 28.6032 51.756C29.447 50.9951 29.3866 50.1161 29.3866 50.1161C27.478 50.0894 26.2294 49.4439 25.2708 48.3502C24.245 47.1637 24.0745 45.8866 24.0745 45.8866C24.0745 45.8866 25.1003 46.811 27.082 46.811C27.2599 46.811 27.4452 46.8023 27.6364 46.7842C28.577 46.7083 29.2274 46.116 29.2274 46.116C27.1592 44.7996 25.7105 42.5047 26.994 39.0475C28.0232 36.2765 30.4956 34.207 32.9882 32.6479C33.8153 32.1343 34.2764 31.5621 34.2764 31.0713C34.2764 29.9129 32.621 29.8755 31.943 29.0986C31.1582 28.1942 31.6496 26.7284 32.3283 25.8454C32.3283 25.8454 32.102 25.7994 31.7389 25.7994C31.0233 25.7994 29.7833 25.9781 28.7636 27.0285C27.4069 28.4197 27.9694 29.9355 27.9694 29.9355L27.607 30.0056C27.3907 30.0509 27.1726 30.0596 26.9504 30.0716C26.8994 30.0716 26.8544 30.0736 26.8067 30.0736C24.8344 30.0736 23.9604 28.0315 23.9604 28.0315C23.9604 28.0315 21.8699 30.5858 24.9479 32.5885C25.4775 32.9306 25.7105 33.2487 25.6487 33.5868L25.6011 33.8082L25.3775 33.8476C23.1501 34.4491 22.0189 35.9777 20.6394 37.7163C18.5462 40.3599 15.5878 40.446 15.2192 40.446H15.1789C15.1789 40.446 15.8543 42.5661 17.8481 42.5661C17.8796 42.5661 17.9092 42.5661 17.9427 42.5641C18.8591 42.5314 19.329 42.1833 19.329 42.1833C19.329 42.1833 19.6834 46.9957 16.0691 48.4869C16.0691 48.4869 16.7277 49.6239 18.2354 49.6239H18.2535C20.0668 49.6133 20.7958 48.5155 20.7958 48.5155C20.7958 48.5155 20.6904 49.9441 21.3402 51.8707C22.1264 54.1937 21.3376 55.8536 21.3376 55.8536C21.3376 55.8536 21.7591 55.9669 22.2458 55.9669C22.4345 55.9669 22.6278 55.9482 22.8091 55.9009C24.3202 55.544 24.6988 54.1755 24.6988 54.1755C24.6988 54.1755 24.5605 58.7965 29.9847 58.7965H30.0237C30.0237 58.7965 29.549 58.151 29.4094 56.2923C29.1523 52.8638 26.8135 52.3929 26.8135 52.3929Z" fill="#FFFFFE"/>
<path fill-rule="evenodd" clip-rule="evenodd" d="M38.781 35.3643H41.338V36.236C41.0373 35.8699 40.4519 35.9445 40.4519 35.9445V37.201C40.4519 37.201 40.4735 37.8192 40.6923 38.0867H39.4269C39.6483 37.8192 39.6679 37.201 39.6679 37.201V35.9445C39.6679 35.9445 39.0845 35.8699 38.781 36.236V35.3643ZM35.9951 35.495C36.0843 35.5897 36.1716 35.6924 36.2562 35.7965C36.2763 35.8204 36.2945 35.8418 36.3146 35.8699C36.3925 35.9726 36.471 36.082 36.5469 36.1933C36.5638 36.2153 36.5798 36.2419 36.5979 36.2673C36.6886 36.404 36.7745 36.5448 36.8598 36.6901C37.6425 38.032 38.8938 38.8336 40.0049 38.8355C41.1172 38.8336 42.3672 38.032 43.1519 36.6901C43.2386 36.5407 43.3265 36.3967 43.4172 36.2613C43.4306 36.2419 43.4453 36.2219 43.4575 36.202C43.5353 36.0866 43.6159 35.9746 43.7005 35.8658C43.7186 35.8418 43.7353 35.8204 43.7515 35.8005C43.8388 35.6924 43.9286 35.5884 44.0206 35.4916C44.036 35.4763 44.0495 35.4617 44.0643 35.449C44.463 35.0435 44.9376 34.7347 45.5599 34.564L45.2828 34.4034H45.2673L44.1663 33.7684L43.0352 33.1248L40.0129 34.7595L40.0049 34.7527L39.9995 34.7595L36.9766 33.1248L35.846 33.7684L34.743 34.4034H34.7303L34.451 34.564C35.0733 34.7347 35.5466 35.0401 35.9468 35.4463C35.9642 35.4617 35.9763 35.4797 35.9951 35.495Z" fill="#FFFFFE"/>
<path fill-rule="evenodd" clip-rule="evenodd" d="M39.0425 29.8254V30.6457L38.884 30.5737C38.8766 30.5677 38.6436 30.5157 38.2382 30.1962C37.5689 29.6807 37.5555 29.2045 37.5555 29.2045L39.0425 29.8254ZM39.7439 33.6741V28.5716L36.4746 27.4699L37.3366 32.4144L39.7439 33.6741Z" fill="#FFFFFE"/>
<path fill-rule="evenodd" clip-rule="evenodd" d="M40.9709 29.8254L42.4579 29.2045C42.4579 29.2045 42.4452 29.6807 41.7732 30.1962C41.3691 30.5157 41.1361 30.5677 41.1281 30.5737L40.9709 30.6457V29.8254ZM42.6755 32.4144L43.5348 27.4699L40.2675 28.5716V33.6741L42.6755 32.4144Z" fill="#FFFFFE"/>
<path fill-rule="evenodd" clip-rule="evenodd" d="M35.1206 45.5027C35.4382 45.6174 35.8249 45.6414 36.0229 45.6414C36.0303 45.6174 36.0411 45.5873 36.0505 45.5508C36.0679 45.4927 36.0846 45.4346 36.0968 45.3713C36.1525 45.0885 36.1719 44.7691 36.1766 44.5624C36.0431 44.4789 35.8531 44.3323 35.7471 44.1121C35.6262 43.8587 35.4523 43.74 35.1999 43.74C34.8709 43.74 34.5185 43.9368 34.3661 44.0288C34.2459 44.7343 34.7696 45.374 35.1206 45.5027Z" fill="#FFFFFE"/>
<path fill-rule="evenodd" clip-rule="evenodd" d="M42.352 42.7963C41.7452 43.4525 40.5556 44.5942 40.4984 44.651L40.4266 44.7229L36.6713 44.6643C36.6686 45.0337 36.6082 45.3478 36.5499 45.5786C36.5404 45.6166 36.5297 45.6567 36.5196 45.6966L40.9866 46.4949C41.451 46.1722 42.7299 45.2438 43.2274 44.8803C42.8662 44.3562 42.832 43.7345 42.9132 43.2971C42.6756 43.147 42.4956 42.9763 42.352 42.7963Z" fill="#FFFFFE"/>
<path fill-rule="evenodd" clip-rule="evenodd" d="M42.8608 38.3087C41.9954 39.1609 41.1657 39.4777 40.4245 39.5504C40.289 39.5644 40.1534 39.573 40.0157 39.573H39.997C39.8587 39.573 39.7217 39.5644 39.5881 39.5504C39.4578 39.539 39.3222 39.5183 39.186 39.4877C39.1377 39.6797 39.076 40.0799 39.2518 40.4607C39.4088 40.8048 39.7277 41.061 40.193 41.2324L40.3494 41.293L40.3521 41.4605C40.3521 41.5098 40.389 42.5955 41.5792 42.897C41.774 42.6982 41.9504 42.5181 42.0814 42.3674C41.8384 41.7985 41.966 41.2176 42.319 40.9336C42.3035 40.9935 42.1485 42.4181 43.2978 42.9477L43.4871 43.0369L43.4307 43.2371C43.412 43.297 43.0285 44.6763 44.421 45.1891L44.6672 45.2818L44.5578 45.5192C44.5337 45.5719 43.988 46.8224 45.2734 47.5333H48.0608V45.3345C47.0692 45.2145 46.6504 44.4228 46.5415 43.8626C46.0804 43.7839 45.7245 43.5864 45.4795 43.2644C44.8948 42.4994 45.3977 41.7985 45.4044 41.7605C45.403 41.7665 45.4044 42.512 45.8675 42.9729C46.0978 43.1943 46.3691 43.3671 46.7805 43.4058L46.9832 43.4238L47.0007 43.6298C47.0041 43.6731 47.1155 44.6835 48.0608 44.8416L48.0587 40.3499C48.0587 39.6543 48.2628 38.9548 48.5085 38.3087H42.8608Z" fill="#FFFFFE"/>
<path fill-rule="evenodd" clip-rule="evenodd" d="M35.3585 40.3666L35.2826 43.2263L35.6102 43.2763L36.4103 40.532L36.0042 39.6876L35.3585 40.3666Z" fill="#FFFFFE"/>
<path fill-rule="evenodd" clip-rule="evenodd" d="M37.0915 50.9542C36.9982 50.9515 36.9296 50.8727 36.9358 50.7801C36.9431 50.6914 37.0189 50.6213 37.1109 50.6293C37.2049 50.6326 37.2708 50.7146 37.2681 50.802C37.2594 50.8927 37.1808 50.9621 37.0915 50.9542ZM44.1799 53.4856C44.2046 53.4856 44.2322 53.489 44.2591 53.4957C44.7572 53.6371 44.8828 55.4196 45.7561 55.5785C45.8421 55.5964 45.9206 55.6018 45.9898 55.6018C46.2428 55.6018 46.3932 55.495 46.5556 55.3043C46.5556 55.3043 46.1159 54.6188 45.7876 54.1553C45.3506 53.5496 45.0124 52.8181 44.1994 52.8181C44.1799 52.8181 44.1564 52.8181 44.1362 52.8208C43.8691 52.8341 43.7039 52.9641 43.7039 52.9641C43.3744 52.7582 43.0675 52.6887 42.7909 52.6887C42.2821 52.6887 41.8859 52.9208 41.6872 52.9208H41.6799L39.8646 52.7427C39.5814 52.7154 39.3565 52.4313 39.2759 52.3205C39.2558 52.2899 39.2444 52.2725 39.2444 52.2725C39.2444 52.2232 39.2444 52.1732 39.2416 52.1286C39.1806 50.654 38.0314 50.0231 37.6218 50.0131C37.6218 50.0131 37.6702 49.7323 37.5601 49.6256L37.1586 50.1084L35.8462 49.4535L36.7834 50.5414L35.9898 51.4262C35.8898 51.5269 35.9026 51.6631 35.9442 51.721L36.2866 52.0218L36.7216 51.7597C36.7431 51.7437 36.7834 51.7384 36.8311 51.7384C36.9512 51.7384 37.1318 51.7697 37.2935 51.7697C37.4715 51.7697 37.6238 51.7323 37.6426 51.567C37.5882 52.1139 37.0774 53.0636 37.4124 53.8105L37.6614 54.374L36.0564 54.1446L35.3051 55.4043C35.0735 55.8238 35.0372 56.2773 35.2601 56.5248L35.5408 56.8736C35.5408 56.8736 35.9355 56.4588 36.0234 56.1854L35.8959 56.046C35.7885 55.9285 35.7938 55.8238 35.8596 55.6979L36.3309 54.9215L38.2246 55.365L38.3246 55.1957C38.4535 54.9829 38.6388 54.9201 38.8416 54.9201C38.9255 54.9201 39.0108 54.9302 39.1001 54.9442C39.4518 55.0129 40.0305 55.1056 40.6092 55.1056C41.2435 55.1056 41.8739 54.9929 42.2102 54.6188C42.8964 55.6292 44.2866 55.7898 44.1772 56.3034L43.8106 58.0347C44.0529 58.024 44.2866 58.0086 44.5081 57.978L44.8565 56.1773C44.8948 55.9806 44.9311 55.7171 44.9311 55.7171C44.7975 55.5817 44.4725 55.2964 44.2894 54.9489C44.0442 54.4807 44.1772 54.236 43.9489 53.627C43.9489 53.627 44.0194 53.4856 44.1799 53.4856Z" fill="#FFFFFE"/>
<path fill-rule="evenodd" clip-rule="evenodd" d="M34.5049 55.1236C34.5049 55.1236 35.1332 54.8667 35.1889 54.684L35.105 54.476C35.0452 54.3399 35.0533 54.1933 35.1687 54.1138L35.8462 53.6477L36.9779 53.8644C36.9779 53.8644 36.7732 53.609 36.7933 53.2689L35.7125 53.0415L34.6934 53.6583C34.2564 53.9825 34.2249 54.5133 34.3692 54.8281L34.5049 55.1236Z" fill="#FFFFFE"/>
<path fill-rule="evenodd" clip-rule="evenodd" d="M42.5144 58.0577C42.7165 58.0498 42.9414 58.0464 43.1864 58.0464C43.1864 58.0464 43.7691 56.3532 43.802 56.2998C43.4757 56.1564 42.797 55.799 42.5353 55.6355C42.7091 55.8929 43.1287 56.1857 43.0454 56.4124L42.5144 58.0577Z" fill="#FFFFFE"/>
<path fill-rule="evenodd" clip-rule="evenodd" d="M48.0604 48.0179H31.953V54.0368C31.953 56.499 33.746 58.0396 36.3924 58.0396C38.6023 58.0396 39.1857 58.1256 40.008 58.9359C40.5747 58.3743 41.0433 58.165 42.0059 58.0869L42.0287 57.9935L42.5363 56.4344C42.508 56.3989 41.6776 55.4627 41.6776 55.4627C41.3487 55.5713 41.0721 55.5893 40.6083 55.5893C40.1309 55.5893 39.5939 55.5341 39.0091 55.4253C38.9507 55.412 38.8957 55.406 38.8413 55.406C38.7694 55.406 38.7649 55.412 38.746 55.4467L38.6453 55.612L38.4607 55.9154L38.113 55.8354L36.5669 55.474L36.3547 55.8215L36.3863 55.8588L36.5743 56.0649L36.491 56.3329C36.377 56.6837 36.0084 57.0933 35.8956 57.2066L35.5096 57.6181L35.1571 57.176L34.8927 56.8465C34.6147 56.5371 34.5503 56.0649 34.7067 55.5686C34.7033 55.5713 34.698 55.574 34.6913 55.5747L34.2556 55.7541L34.0596 55.3306L33.922 55.0304C33.685 54.5023 33.7723 53.7307 34.4113 53.2639L35.6553 52.5656L36.8394 52.7971C36.8677 52.6843 36.91 52.2801 36.9441 52.1774C36.9207 52.1749 36.8999 52.1695 36.8764 52.1695L36.1943 52.4229L35.5357 51.9714C35.5357 51.9714 35.2787 51.7254 35.5123 51.4793L36.1487 50.5202L34.5341 48.5068L37.0153 49.5192L37.1811 49.3165L37.5154 48.9177L37.8961 49.2771C38.0036 49.3798 38.0653 49.5064 38.0954 49.6332C38.7789 49.898 40.0047 50.6783 40.1129 51.9474L39.7294 52.0995V52.1087C39.8174 52.2121 39.8899 52.2548 39.9127 52.2589L41.6837 52.4316C41.7293 52.4242 41.7844 52.4042 41.8474 52.3862C42.0683 52.3116 42.398 52.2035 42.79 52.2035C43.1096 52.2035 43.4177 52.2762 43.7144 52.4143C43.8239 52.3729 43.9581 52.3429 44.1139 52.3328L44.1992 52.3308C45.147 52.3308 45.6189 53.0345 45.9969 53.5966C46.06 53.694 46.123 53.7853 46.1889 53.8761C46.5191 54.3402 46.9521 55.0191 46.9696 55.0484L47.165 55.3513L46.926 55.628C46.742 55.8395 46.4647 56.0883 45.9901 56.0883C45.8921 56.0883 45.7847 56.0775 45.6693 56.0555C45.5686 56.0368 45.4759 56.0068 45.3873 55.9696C45.3746 56.0629 45.3544 56.1736 45.337 56.2689L45.0269 57.8788C46.8843 57.4253 48.0639 56.0322 48.0639 54.0368L48.0604 48.0179Z" fill="#FFE52B"/>
<path fill-rule="evenodd" clip-rule="evenodd" d="M31.9534 47.5333H44.4814C43.8558 46.891 43.8651 46.0781 44.0242 45.5498C43.8416 45.4631 43.6912 45.3591 43.5576 45.2444C43.0676 45.6032 41.5732 46.6843 41.1825 46.955L41.0986 47.0111L36.1819 46.1281H36.0826C35.9645 46.1281 35.7919 46.1234 35.6026 46.1007C35.5495 46.3222 35.3582 46.4722 35.1394 46.4722C35.1139 46.4722 35.0864 46.4702 35.0608 46.4648C34.9326 46.4429 34.8205 46.3781 34.7461 46.2715C34.6695 46.1661 34.6392 46.0414 34.6601 45.9126L34.6782 45.8074C34.1721 45.4525 33.7035 44.6596 33.9109 43.8239L33.9311 43.7359L34.0029 43.6845C34.0129 43.6773 34.0975 43.6192 34.2251 43.5478L33.8679 43.4931C33.7344 43.4699 33.6444 43.3458 33.6652 43.215C33.6881 43.0823 33.8135 42.9876 33.9451 43.013L34.7964 43.1463L34.8742 40.1693L36.1404 38.8381L36.9311 40.4913L36.0966 43.3558L36.8492 43.4731C36.9815 43.4938 37.0721 43.6172 37.0519 43.7526C37.0325 43.8726 36.9291 43.9534 36.8109 43.9534C36.7982 43.9534 36.7848 43.9534 36.7721 43.9519L36.1605 43.8539C36.1685 43.8726 36.1806 43.8832 36.1879 43.9019C36.2531 44.036 36.3975 44.1307 36.4821 44.1727L40.2299 44.232C40.3891 44.0787 40.7818 43.6958 41.1872 43.2911C40.2642 42.943 39.9292 42.1539 39.8735 41.6292C39.3579 41.411 39.0021 41.0843 38.8048 40.6595C38.5645 40.1333 38.6496 39.6058 38.7141 39.3496C38.2141 39.1689 37.6891 38.8381 37.1519 38.3087H31.5056C31.7479 38.9548 31.9534 39.6543 31.9534 40.3499V47.5333Z" fill="#FFE52B"/>
<path fill-rule="evenodd" clip-rule="evenodd" d="M37.111 50.6298C37.0191 50.6212 36.9432 50.6921 36.9358 50.7817C36.9298 50.8747 36.9983 50.9536 37.0915 50.9556C37.1808 50.963 37.2594 50.8947 37.2681 50.8032C37.2708 50.7155 37.205 50.6332 37.111 50.6298Z" fill="#1A1919"/>
<path fill-rule="evenodd" clip-rule="evenodd" d="M44.5774 63.2509L43.8415 61.2402C44.717 60.9754 46.2221 60.4059 46.8967 60.0271L46.447 61.4902L47.9708 61.9939C47.0491 62.4533 45.9314 62.8821 44.5774 63.2509ZM40.0091 65.0583C38.2355 65.0583 36.2121 64.6528 35.6154 64.442L36.5215 62.0072C37.2728 62.2252 38.8363 62.4567 39.9708 62.4493H40.0427C41.1771 62.4567 42.7387 62.2252 43.4938 62.0072L44.3981 64.442C43.802 64.6528 41.778 65.0583 40.0091 65.0583ZM32.0425 61.9939L33.5691 61.4902L33.1174 60.0271C33.7907 60.4059 35.2985 60.9754 36.1718 61.2402L35.4354 63.2509C34.0861 62.8821 32.9637 62.4533 32.0425 61.9939ZM48.0393 61.5471L47.1115 61.1935L47.368 60.2405L47.65 59.2028C47.65 59.2028 46.006 60.0892 43.6885 60.754C43.0314 60.9407 42.5338 61.0269 42.5338 61.0269V61.7338C42.5338 61.7338 41.2947 61.9471 40.0427 61.9471H39.9708C38.7175 61.9471 37.4803 61.7338 37.4803 61.7338V61.0269C37.4803 61.0269 36.9814 60.9407 36.325 60.754C34.0083 60.0892 32.3655 59.2028 32.3655 59.2028L32.6434 60.2405L32.9053 61.1935L31.9741 61.5471L30.9417 61.9298C32.1245 62.4981 33.7645 63.3236 35.265 63.7318L34.9111 64.6928C34.9111 64.6928 36.8143 65.5538 39.985 65.5618V65.5637H40.0278V65.5618C43.2018 65.5538 45.1037 64.6928 45.1037 64.6928L44.7478 63.7318C46.249 63.3236 47.8917 62.4981 49.0691 61.9298L48.0393 61.5471Z" fill="#1A1919"/>
<path fill-rule="evenodd" clip-rule="evenodd" d="M36.1321 22.7921L36.5537 22.8361L36.7362 22.4539L37.2672 21.3249L38.2541 21.8317L38.6361 22.0258L40.005 20.6773L41.0717 21.7263L41.3771 22.0258L41.7597 21.8317L42.7405 21.3249L43.2795 22.4539L43.4581 22.8361L43.8797 22.7921L44.2832 22.7441C44.0985 23.1569 43.9622 23.5497 43.865 23.8745C42.8002 23.2849 41.4167 22.9495 40.005 22.9495C38.5998 22.9495 37.2177 23.2849 36.1488 23.8745C36.0502 23.5497 35.9152 23.1569 35.7307 22.7441L36.1321 22.7921ZM40.005 23.5383C41.894 23.5383 43.4051 24.1606 44.2402 24.8228C44.2402 24.8228 44.488 23.3396 45.3345 22.0311L43.8132 22.2032L43.0171 20.5233L41.4885 21.3062L40.005 19.8503L38.526 21.3062L36.9941 20.5233L36.1992 22.2032L34.6781 22.0311C35.5252 23.3396 35.7722 24.8228 35.7722 24.8228C36.6128 24.1606 38.1192 23.5383 40.005 23.5383Z" fill="#1A1919"/>
<path fill-rule="evenodd" clip-rule="evenodd" d="M63.945 48.4869C63.945 48.4869 63.2878 49.6241 61.7787 49.6241H61.7598C59.9487 49.6133 59.2183 48.5157 59.2183 48.5157C59.2183 48.5157 59.323 49.9435 58.6711 51.8709C57.8851 54.1937 58.6778 55.8529 58.6778 55.8529C58.6778 55.8529 58.2543 55.9669 57.7676 55.9669C57.5817 55.9669 57.387 55.9483 57.2037 55.9009C55.6906 55.5442 55.3133 54.1757 55.3133 54.1757C55.3133 54.1757 55.4523 58.7967 50.0287 58.7967H49.9864C49.9864 58.7967 50.4644 58.1511 50.6054 56.293C50.8631 52.8638 53.2 52.3931 53.2 52.3931C53.2 52.3931 51.9527 52.2377 51.4123 51.7568C50.5671 50.9952 50.6268 50.1162 50.6268 50.1162C52.5347 50.0896 53.7854 49.444 54.738 48.3496C55.7697 47.1637 55.9396 45.8866 55.9396 45.8866C55.9396 45.8866 54.9131 46.811 52.9294 46.811C52.7548 46.811 52.5683 46.8023 52.377 46.7843C51.4378 46.7083 50.7893 46.1161 50.7893 46.1161C52.855 44.7996 54.3036 42.5042 53.0187 39.0475C51.989 36.2765 49.5158 34.2072 47.0253 32.6479C46.1968 32.1344 45.735 31.5622 45.735 31.0707C45.735 29.9129 47.3924 29.8756 48.0711 29.0986C48.856 28.1943 48.3638 26.7284 47.6844 25.8455C47.6844 25.8455 47.9134 25.7994 48.2746 25.7994C48.9908 25.7994 50.2314 25.9782 51.2511 27.0285C52.6046 28.4197 52.0433 29.9356 52.0433 29.9356L52.4058 30.0056C52.6227 30.051 52.8388 30.0596 53.063 30.071C53.1114 30.071 53.161 30.0736 53.2087 30.0736C55.1757 30.0736 56.0551 28.0309 56.0551 28.0309C56.0551 28.0309 58.1456 30.5858 55.0668 32.5885C54.5373 32.9306 54.3036 33.2488 54.3647 33.587L54.413 33.809L54.6318 33.8476C56.8633 34.4486 57.9924 35.9784 59.3714 37.7164C61.4658 40.3606 64.4277 40.446 64.7928 40.446H64.8326C64.8326 40.446 64.1571 42.5661 62.1647 42.5661C62.1311 42.5661 62.103 42.5661 62.07 42.5641C61.155 42.5315 60.6851 42.1833 60.6851 42.1833C60.6851 42.1833 60.3287 46.9957 63.945 48.4869ZM62.1647 43.2151C64.607 43.2151 65.4246 40.7468 65.4581 40.6408L65.7314 39.7704L64.8157 39.7992H64.8124C64.4894 39.7992 61.7941 39.7278 59.8836 37.3156L59.703 37.0915C58.4544 35.5149 57.2708 34.0144 55.1536 33.3301C55.2146 33.2747 55.3026 33.2081 55.4227 33.1301C56.5464 32.3965 57.1997 31.5048 57.3634 30.4698C57.6038 28.9132 56.6036 27.6714 56.5598 27.6208L55.8798 26.7851L55.455 27.7762C55.426 27.8382 54.7124 29.4248 53.2087 29.4248H53.0966C52.9938 29.4194 52.8953 29.4154 52.7993 29.4074C52.8516 28.6998 52.722 27.6048 51.7217 26.5764C50.5194 25.3399 49.0453 25.1545 48.2746 25.1545C47.8624 25.1545 47.5884 25.2052 47.5583 25.2079L46.5318 25.4106L47.1648 26.2403C47.6623 26.8798 48.1127 28.0603 47.5784 28.6765C47.4073 28.8732 47.0561 29.0319 46.7198 29.192C46.0284 29.5074 45.0831 29.9496 45.0831 31.0707C45.0831 31.7963 45.6504 32.5559 46.6781 33.2015C49.7193 35.1015 51.5956 37.0841 52.4058 39.2729C53.6598 42.6395 52.0238 44.5595 50.4356 45.5718L49.7226 46.0267L50.3468 46.5962C50.4308 46.6696 51.1927 47.3371 52.3206 47.4332C52.534 47.4472 52.7381 47.4585 52.9294 47.4585C53.6511 47.4585 54.2667 47.3459 54.7668 47.1945C54.6298 47.4332 54.4594 47.678 54.2473 47.9233C53.3396 48.9684 52.2226 49.444 50.6161 49.4699L50.0193 49.4793L49.9737 50.0741C49.9676 50.1943 49.9233 51.2973 50.9733 52.235C51.1344 52.3803 51.3284 52.4997 51.5324 52.5971C50.8196 53.2347 50.0958 54.3451 49.9556 56.2464C49.8367 57.8336 49.4561 58.4211 49.4514 58.4272L48.7921 59.4275L49.9844 59.4435C51.954 59.4435 53.4624 58.9041 54.5077 57.8336C55.1253 57.2008 55.4791 56.4858 55.6871 55.8529C56.0303 56.143 56.4727 56.3978 57.05 56.5331C57.2688 56.5839 57.5078 56.6119 57.7676 56.6119C58.3241 56.6119 58.79 56.4945 58.8417 56.4819L59.603 56.2811L59.2667 55.5755C59.2418 55.5188 58.6067 54.1016 59.2901 52.0815C59.5841 51.2073 59.7346 50.425 59.8077 49.8154C60.287 50.0635 60.9294 50.2682 61.7593 50.2709C63.6436 50.2709 64.4747 48.8724 64.5116 48.8137L64.8828 48.1715L64.1947 47.8901C61.9493 46.9637 61.4517 44.4762 61.3524 43.1296C61.5551 43.169 61.7874 43.2044 62.0493 43.2117L62.1647 43.2151Z" fill="#1A1919"/>
<path fill-rule="evenodd" clip-rule="evenodd" d="M59.4196 32.6539C59.8748 32.6539 60.4052 32.8079 60.9066 33.3227C62.4808 34.9101 63.9449 34.9988 63.9449 34.9988C63.6792 35.5843 62.9078 36.0978 62.1089 36.0978C61.9243 36.0978 61.7383 36.0698 61.5551 36.0064C60.4716 35.6436 60.0842 34.0303 58.1825 33.0246C58.1825 33.0246 58.7128 32.6539 59.4196 32.6539ZM57.8723 33.5982C58.7832 34.0803 59.3142 34.7266 59.7795 35.2995C60.2373 35.859 60.6703 36.3966 61.3503 36.6206C61.5913 36.7026 61.8478 36.742 62.1089 36.742C63.1273 36.742 64.1518 36.1225 64.5398 35.2641L64.9305 34.4045L63.9852 34.3485C63.9409 34.3478 62.7252 34.2372 61.3739 32.8653C60.8173 32.3017 60.1441 32.0063 59.4196 32.0063C58.5342 32.0063 57.8776 32.4458 57.8052 32.4911L56.9372 33.0987L57.8723 33.5982Z" fill="#1A1919"/>
<path fill-rule="evenodd" clip-rule="evenodd" d="M58.2997 42.1692V42.2025C57.7519 37.8076 54.5396 34.6338 50.9649 32.705C50.6346 32.529 50.3284 32.3796 50.0331 32.2369C51.1206 32.405 52.8734 32.425 54.2269 31.2592C54.2269 31.2592 52.1564 32.7717 47.9171 31.3979C49.0899 32.1542 51.3704 33.222 53.4534 34.9511C58.6574 39.4948 54.9344 43.9264 54.9344 43.9264C56.8046 41.987 56.8826 39.9096 56.332 38.213C57.3169 39.8423 57.9466 41.8183 57.8486 44.2565C57.7056 47.7485 55.7729 50.7689 53.7401 53.1951C52.7633 54.3728 52.5451 55.8201 52.5451 55.8201C52.5451 55.8201 52.9393 54.5429 54.0697 53.2291C56.2489 50.6948 58.1117 48.0632 58.356 44.2698C58.581 44.9588 59.5094 46.8716 60.9816 47.5925C60.9816 47.5925 59.1314 46.4847 58.2997 42.1692Z" fill="#1A1919"/>
<path fill-rule="evenodd" clip-rule="evenodd" d="M29.985 58.7967C24.5609 58.7967 24.6991 54.1757 24.6991 54.1757C24.6991 54.1757 24.3205 55.5442 22.8094 55.9009C22.6281 55.9483 22.4348 55.9669 22.2462 55.9669C21.7595 55.9669 21.3379 55.8529 21.3379 55.8529C21.3379 55.8529 22.1267 54.1937 21.3406 51.8709C20.6907 49.9441 20.7961 48.5157 20.7961 48.5157C20.7961 48.5157 20.0671 49.6133 18.2539 49.6241H18.2357C16.728 49.6241 16.0694 48.4869 16.0694 48.4869C19.6831 46.9957 19.3293 42.1833 19.3293 42.1833C19.3293 42.1833 18.8594 42.5315 17.943 42.5641C17.9095 42.5661 17.8799 42.5661 17.8484 42.5661C15.8546 42.5661 15.1793 40.446 15.1793 40.446H15.2195C15.5881 40.446 18.5466 40.36 20.6397 37.7164C22.0193 35.9777 23.1498 34.4493 25.3778 33.8476L25.6014 33.8084L25.649 33.587C25.7108 33.2488 25.4779 32.9306 24.9482 32.5885C21.8702 30.5858 23.9607 28.0316 23.9607 28.0316C23.9607 28.0316 24.8347 30.0736 26.8071 30.0736C26.8547 30.0736 26.8997 30.0716 26.9507 30.0716C27.1723 30.0596 27.3912 30.051 27.6073 30.0056L27.9697 29.9356C27.9697 29.9356 27.4066 28.4197 28.7639 27.0285C29.7837 25.9782 31.0229 25.7994 31.7392 25.7994C32.1024 25.7994 32.3279 25.8455 32.3279 25.8455C31.6499 26.7284 31.1584 28.1943 31.9426 29.0986C32.6213 29.8756 34.2767 29.9129 34.2767 31.0707C34.2767 31.5622 33.8156 32.1344 32.9884 32.6479C30.4959 34.2072 28.0234 36.2765 26.9944 39.0475C25.7108 42.5047 27.1594 44.7996 29.2279 46.1161C29.2279 46.1161 28.5773 46.7083 27.6369 46.7843C27.4454 46.8023 27.2602 46.811 27.0823 46.811C25.1006 46.811 24.0748 45.8866 24.0748 45.8866C24.0748 45.8866 24.2453 47.1637 25.2711 48.3502C26.2297 49.444 27.4784 50.0896 29.3869 50.1162C29.3869 50.1162 29.4473 50.9952 28.6034 51.7561C28.0617 52.2377 26.8138 52.3931 26.8138 52.3931C26.8138 52.3931 29.1526 52.8638 29.4097 56.2924C29.5494 58.1511 30.024 58.7967 30.024 58.7967H29.985ZM30.5617 58.4272C30.5597 58.4211 30.181 57.8336 30.0596 56.2464C29.9179 54.3444 29.1943 53.2347 28.4793 52.5971C28.686 52.4997 28.8774 52.3803 29.0384 52.235C30.0884 51.2973 30.0442 50.1943 30.0367 50.0741L29.9964 49.4793L29.395 49.4699C27.7932 49.444 26.6741 48.9684 25.7665 47.9233C25.5557 47.678 25.3852 47.4332 25.2469 47.1945C25.7464 47.3459 26.358 47.4585 27.0823 47.4585C27.2763 47.4585 27.4784 47.4472 27.6919 47.4332C28.8197 47.3371 29.5829 46.6703 29.6676 46.5962L30.2919 46.0267L29.5796 45.5718C27.9852 44.5595 26.3559 42.6395 27.6073 39.2729C28.4182 37.0841 30.2919 35.1015 33.3376 33.2015C34.3654 32.5559 34.9279 31.7963 34.9279 31.0707C34.9279 29.9496 33.9854 29.5074 33.294 29.192C32.957 29.0319 32.6059 28.8732 32.4353 28.6765C31.8996 28.0603 32.3507 26.8798 32.8482 26.2403L33.486 25.4106L32.4534 25.2079C32.4233 25.2046 32.1527 25.1545 31.7392 25.1545C30.9686 25.1545 29.497 25.3399 28.2953 26.5764C27.2937 27.6054 27.1622 28.6998 27.2139 29.4074C27.1172 29.4154 27.0199 29.4194 26.9172 29.4248H26.8071C25.2993 29.4248 24.587 27.8382 24.5595 27.7762L24.1359 26.7851L23.4492 27.6208C23.4109 27.6714 22.408 28.9132 22.6523 30.4698C22.8141 31.5048 23.4686 32.3965 24.5917 33.1301C24.7139 33.2081 24.7992 33.2747 24.8603 33.3301C22.7403 34.0144 21.5581 35.5149 20.3094 37.0915L20.1295 37.3156C18.2216 39.7278 15.5203 39.7992 15.1974 39.7992L14.277 39.7704L14.5569 40.6408C14.5898 40.7468 15.4041 43.2151 17.8484 43.2151L17.9659 43.2117C18.225 43.2044 18.4566 43.169 18.6627 43.1296C18.562 44.4755 18.0632 46.9637 15.817 47.8901L15.1309 48.1715L15.5022 48.8137C15.5377 48.8724 16.3715 50.2709 18.2592 50.2709C19.0843 50.2682 19.7261 50.0635 20.206 49.8162C20.2785 50.425 20.4296 51.2073 20.7243 52.0815C21.4077 54.1016 20.7713 55.5188 20.7471 55.5755L20.4095 56.2811L21.1721 56.4819C21.2224 56.4945 21.6917 56.6119 22.2462 56.6119C22.5053 56.6119 22.7449 56.5839 22.9618 56.5331C23.5398 56.3978 23.9869 56.143 24.3266 55.8529C24.5333 56.4858 24.8885 57.2008 25.5047 57.8336C26.5526 58.9041 28.0597 59.4435 30.0287 59.4435L31.2216 59.4275L30.5617 58.4272Z" fill="#1A1919"/>
<path fill-rule="evenodd" clip-rule="evenodd" d="M19.1053 33.3225C19.6088 32.8082 20.1385 32.6535 20.5963 32.6535C21.2992 32.6535 21.8315 33.025 21.8315 33.025C19.9317 34.0307 19.5397 35.644 18.4548 36.0075C18.2756 36.0708 18.0896 36.0974 17.9044 36.0974C17.1062 36.0974 16.3335 35.5846 16.0697 34.9991C16.0697 34.9991 17.5331 34.9104 19.1053 33.3225ZM17.9044 36.7423C18.1662 36.7423 18.4219 36.7036 18.6636 36.6216C19.345 36.3969 19.778 35.86 20.2352 35.2999C20.7031 34.7277 21.228 34.0807 22.1397 33.5986L23.0775 33.0991L22.2068 32.4908C22.1343 32.4455 21.4811 32.0073 20.5963 32.0073C19.87 32.0073 19.196 32.3021 18.6401 32.8656C17.2868 34.2381 16.0744 34.3481 16.0307 34.3496L15.0869 34.4048L15.4742 35.2651C15.8642 36.1228 16.8866 36.7423 17.9044 36.7423Z" fill="#1A1919"/>
<path fill-rule="evenodd" clip-rule="evenodd" d="M22.1662 44.2565C22.0648 41.8183 22.6952 39.8423 23.6813 38.213C23.1315 39.9096 23.2061 41.987 25.079 43.9271C25.079 43.9271 21.3546 39.4948 26.562 34.9511C28.6437 33.222 30.9221 32.1542 32.0949 31.3979C27.8569 32.7717 25.7873 31.2592 25.7873 31.2592C27.1393 32.425 28.8927 32.405 29.9796 32.2369C29.6856 32.3796 29.3767 32.5283 29.0484 32.705C25.4724 34.6338 22.2622 37.8076 21.7117 42.2025V42.1692C20.8813 46.4847 19.0325 47.5925 19.0325 47.5925C20.5034 46.8716 21.4298 44.9588 21.6553 44.2698C21.901 48.0632 23.7639 50.6948 25.9423 53.2291C27.0728 54.5429 27.4709 55.8201 27.4709 55.8201C27.4709 55.8201 27.25 54.3728 26.2686 53.1951C24.2392 50.7695 22.3085 47.7485 22.1662 44.2565Z" fill="#1A1919"/>
<path fill-rule="evenodd" clip-rule="evenodd" d="M38.7809 35.365V36.2367C39.0844 35.8705 39.6678 35.9451 39.6678 35.9451V37.2016C39.6678 37.2016 39.6484 37.8198 39.4268 38.0873H40.6922C40.4734 37.8198 40.4519 37.2016 40.4519 37.2016V35.9451C40.4519 35.9451 41.0372 35.8705 41.3379 36.2367V35.365H38.7809Z" fill="#1A1919"/>
<path fill-rule="evenodd" clip-rule="evenodd" d="M38.2382 30.1965C38.643 30.5152 38.8766 30.5686 38.884 30.5733L39.0425 30.646V29.8257L37.5555 29.2048C37.5555 29.2048 37.5682 29.6803 38.2382 30.1965Z" fill="#1A1919"/>
<path fill-rule="evenodd" clip-rule="evenodd" d="M41.7732 30.1965C42.4452 29.6803 42.4581 29.2048 42.4581 29.2048L40.9711 29.8257V30.646L41.1281 30.5733C41.1362 30.5686 41.3691 30.5152 41.7732 30.1965Z" fill="#1A1919"/>
<path fill-rule="evenodd" clip-rule="evenodd" d="M40.0054 28.0108L36.4239 26.605C36.7286 25.8887 38.1331 25.2792 40.0054 25.2772C41.8804 25.2792 43.2848 25.8887 43.5882 26.605L40.0054 28.0108ZM42.6758 32.4144L40.2685 33.6748V28.5717L43.5351 27.47L42.6758 32.4144ZM44.1668 33.7689L45.2678 34.4038H45.2832L45.5598 34.5645C44.9382 34.7353 44.4635 35.044 44.0648 35.4495C44.0501 35.4622 44.0372 35.4768 44.0212 35.4922C43.9298 35.5889 43.8392 35.693 43.7519 35.8009C43.7365 35.8209 43.7191 35.8423 43.7009 35.8664C43.6164 35.975 43.5351 36.0871 43.4586 36.2024C43.4458 36.2224 43.4311 36.2425 43.4176 36.2618C43.3271 36.3972 43.2391 36.5413 43.1525 36.6906C42.3684 38.0325 41.1178 38.834 40.0054 38.836C38.8944 38.834 37.6431 38.0325 36.8602 36.6906C36.7751 36.5452 36.6891 36.4046 36.5985 36.2679C36.5804 36.2425 36.5642 36.2157 36.5475 36.1938C36.4709 36.0824 36.3931 35.9731 36.3152 35.8703C36.2951 35.8423 36.2769 35.8209 36.2568 35.797C36.1715 35.693 36.0842 35.5903 35.9956 35.4955C35.9768 35.4802 35.9641 35.4622 35.9479 35.4469C35.5472 35.0407 35.0739 34.7353 34.4516 34.5645L34.7308 34.4038H34.7436L35.8466 33.7689L36.9778 33.1253L39.9999 34.76L40.0054 34.7533L40.0141 34.76L43.0356 33.1253L44.1668 33.7689ZM48.5095 38.3086C48.2632 38.9547 48.0591 39.6544 48.0591 40.35L48.0611 44.8408C47.1166 44.6834 47.0051 43.6731 47.0011 43.6292L46.9836 43.4237L46.7802 43.4057C46.3701 43.3664 46.0975 43.1942 45.8679 42.9729C45.4048 42.5127 45.4041 41.7671 45.4048 41.7604C45.3981 41.7984 44.8952 42.4986 45.4792 43.2636C45.7249 43.5858 46.0814 43.7846 46.5419 43.8625C46.6501 44.4228 47.0702 45.2144 48.0611 45.3351V47.5332H45.2738C43.9889 46.8223 44.5334 45.5725 44.5582 45.5184L44.6669 45.2817L44.4212 45.189C43.0289 44.6762 43.4129 43.2969 43.4311 43.2376L43.4875 43.0363L43.2975 42.9476C42.1489 42.418 42.3039 40.9929 42.3194 40.9328C41.9656 41.2183 41.8388 41.7984 42.0818 42.368C41.9502 42.5181 41.7736 42.6981 41.5796 42.8976C40.3894 42.5961 40.3525 41.5097 40.3525 41.4597L40.3498 41.2922L40.1934 41.2323C39.7288 41.0616 39.4099 40.8047 39.2522 40.4606C39.0762 40.0791 39.1381 39.6798 39.1864 39.487C39.3226 39.5183 39.4582 39.5389 39.5878 39.5503C39.7221 39.5636 39.8591 39.5724 39.9974 39.5724H40.0161C40.1538 39.5724 40.2899 39.5636 40.4242 39.5503C41.1661 39.4769 41.9958 39.1608 42.8611 38.3086H48.5095ZM45.0268 57.8795L45.3382 56.2684C45.3544 56.1736 45.3745 56.0629 45.3879 55.9702C45.4765 56.0068 45.5685 56.0363 45.6692 56.0549C45.7861 56.077 45.8928 56.0883 45.9901 56.0883C46.4654 56.0883 46.7426 55.8403 46.9266 55.628L47.1649 55.3521L46.9702 55.0486C46.9528 55.0186 46.5205 54.3403 46.1888 53.8762C46.1231 53.7848 46.0612 53.6941 45.9982 53.596C45.6202 53.0345 45.1476 52.3309 44.1991 52.3309L44.1145 52.3329C43.9588 52.3429 43.8245 52.3737 43.7156 52.4143C43.4176 52.2762 43.1102 52.2042 42.7906 52.2042C42.3979 52.2042 42.0689 52.3116 41.8488 52.3856C41.7856 52.4036 41.7294 52.4237 41.6849 52.4323L39.9128 52.2589C39.8905 52.2542 39.8188 52.2122 39.7301 52.1089V52.1001L40.1135 51.9474C40.0054 50.6783 38.7789 49.898 38.0955 49.6333C38.0659 49.5066 38.0042 49.3798 37.8968 49.2765L37.5161 48.9177L37.1812 49.3165L37.0166 49.5192L34.5348 48.5069L36.1494 50.5202L35.5122 51.4793C35.2794 51.7247 35.5365 51.9722 35.5365 51.9722L36.1949 52.4223L36.8771 52.1695C36.9005 52.1695 36.9214 52.1749 36.9448 52.1775C36.9112 52.2802 36.8684 52.6843 36.8401 52.7971L35.6559 52.5663L34.4119 53.2639C33.7722 53.7307 33.6849 54.5023 33.9226 55.0312L34.0602 55.3307L34.2562 55.7541L34.6919 55.5755C34.6979 55.5734 34.7041 55.5714 34.7081 55.5681C34.5516 56.0649 34.6154 56.5371 34.8939 56.8465L35.1585 57.1766L35.5102 57.6182L35.8962 57.2061C36.0091 57.094 36.3782 56.6839 36.4911 56.333L36.5749 56.0649L36.3869 55.8588L36.3555 55.8215L36.5675 55.474L38.1129 55.8361L38.4614 55.9155L38.6459 55.612L38.7466 55.4474C38.7661 55.412 38.7702 55.4068 38.8419 55.4068C38.8971 55.4068 38.9514 55.412 39.0105 55.4253C39.5938 55.5347 40.1315 55.5888 40.6089 55.5888C41.0721 55.5888 41.3494 55.5714 41.6789 55.4627C41.6789 55.4627 42.5086 56.399 42.5375 56.4351L42.0286 57.993L42.0065 58.0869C41.0439 58.1643 40.5754 58.3744 40.0088 58.936C39.1864 58.1256 38.6036 58.0403 36.3931 58.0403C33.7466 58.0403 31.9529 56.4991 31.9529 54.0368V48.018H48.0611L48.0645 54.0368C48.0645 56.0322 46.8849 57.4254 45.0268 57.8795ZM35.1055 54.4764L35.1894 54.6844C35.1336 54.8664 34.5054 55.124 34.5054 55.124L34.3696 54.8285C34.2254 54.5137 34.2562 53.9829 34.6939 53.658L35.7129 53.0419L36.7938 53.2693C36.7736 53.61 36.9784 53.8648 36.9784 53.8648L35.8466 53.6487L35.1692 54.1136C35.0538 54.1935 35.0456 54.3403 35.1055 54.4764ZM44.8562 56.1777L44.5092 57.9776C44.2864 58.009 44.0526 58.025 43.8111 58.0342L44.1775 56.3043C44.2864 55.7901 42.8966 55.6302 42.2099 54.6191C41.8749 54.9932 41.2439 55.1053 40.6089 55.1053C40.0302 55.1053 39.4522 55.0139 39.1005 54.9445C39.0112 54.9305 38.9259 54.9206 38.8419 54.9206C38.6392 54.9206 38.4539 54.9832 38.3258 55.196L38.2251 55.3654L36.3312 54.9225L35.8601 55.6975C35.7942 55.8235 35.7888 55.9289 35.8962 56.0462L36.0238 56.1849C35.9359 56.459 35.5418 56.8739 35.5418 56.8739L35.2605 56.5244C35.0376 56.277 35.0739 55.8235 35.3062 55.4041L36.0574 54.1442L37.6618 54.3743L37.4128 53.8102C37.0778 53.0632 37.5886 52.1141 37.6431 51.5673C37.6242 51.7328 37.4712 51.77 37.2939 51.77C37.1322 51.77 36.9515 51.7394 36.8314 51.7394C36.7838 51.7394 36.7435 51.7441 36.7219 51.7601L36.2869 52.0222L35.9446 51.7207C35.9029 51.6633 35.8902 51.5273 35.9902 51.4259L36.7838 50.5416L35.8466 49.4532L37.1589 50.1088L37.5605 49.6259C37.6705 49.7333 37.6222 50.0134 37.6222 50.0134C38.0316 50.0234 39.1809 50.6543 39.2421 52.1282C39.2455 52.1735 39.2455 52.2235 39.2455 52.2722C39.2455 52.2722 39.2562 52.2909 39.2764 52.321C39.3569 52.4323 39.5818 52.7164 39.8658 52.7424L41.6804 52.9211H41.6876C41.8864 52.9211 42.2825 52.689 42.7906 52.689C43.0679 52.689 43.3754 52.7591 43.7036 52.9644C43.7036 52.9644 43.8695 52.8344 44.1366 52.821C44.1568 52.8184 44.1802 52.8184 44.1991 52.8184C45.0126 52.8184 45.3511 53.5494 45.7881 54.1563C46.1164 54.6191 46.5554 55.3046 46.5554 55.3046C46.3936 55.4954 46.2432 55.6021 45.9901 55.6021C45.9209 55.6021 45.8424 55.5967 45.7565 55.5794C44.8831 55.4194 44.7576 53.6368 44.2595 53.496C44.2326 53.4887 44.2058 53.486 44.1802 53.486C44.0198 53.486 43.9499 53.6274 43.9499 53.6274C44.1776 54.2356 44.0439 54.481 44.2896 54.9492C44.4722 55.2967 44.7979 55.5821 44.9315 55.7174C44.9315 55.7174 44.8952 55.9809 44.8562 56.1777ZM43.1861 58.0463C42.9416 58.0463 42.7168 58.0497 42.5148 58.0576L43.0464 56.413C43.1289 56.1849 42.7094 55.8922 42.5355 55.6354C42.7974 55.7989 43.4761 56.157 43.8024 56.2997C43.7694 56.3531 43.1861 58.0463 43.1861 58.0463ZM35.2826 43.2263L35.3585 40.3673L36.0044 39.6884L36.4098 40.532L35.6102 43.2763L35.2826 43.2263ZM35.7472 44.1119C35.8526 44.3321 36.0426 44.4787 36.1762 44.5622C36.1715 44.7689 36.1521 45.0883 36.0976 45.3711C36.0842 45.4344 36.0681 45.4925 36.0506 45.5504C36.0412 45.5871 36.0305 45.6172 36.0231 45.6412C35.8251 45.6412 35.4384 45.6172 35.1209 45.5024C34.7698 45.3738 34.2462 44.7341 34.3671 44.0286C34.5188 43.9366 34.8705 43.7398 35.2001 43.7398C35.4532 43.7398 35.6264 43.8585 35.7472 44.1119ZM43.2276 44.8802C42.7309 45.2437 41.4514 46.1721 40.9868 46.4942L36.5192 45.6965C36.5299 45.6572 36.5408 45.6172 36.5501 45.5785C36.6085 45.3477 36.6689 45.0336 36.6716 44.6635L40.4269 44.7235L40.4988 44.6509C40.5558 44.5942 41.7454 43.4524 42.3516 42.7954C42.4959 42.9755 42.6758 43.1469 42.9128 43.2969C42.8322 43.7346 42.8665 44.356 43.2276 44.8802ZM37.1522 38.3086C37.6894 38.8387 38.2149 39.1682 38.7144 39.3495C38.6499 39.6057 38.5648 40.1338 38.8051 40.6601C39.0018 41.0842 39.3582 41.4109 39.8738 41.6291C39.9302 42.154 40.2645 42.9429 41.1875 43.2903C40.7828 43.6959 40.3894 44.078 40.2302 44.2319L36.4829 44.1733C36.3984 44.1314 36.2528 44.0359 36.1882 43.9019C36.1809 43.8826 36.1688 43.8725 36.1608 43.8538L36.7724 43.9519C36.7851 43.9538 36.7985 43.9538 36.8112 43.9538C36.9294 43.9538 37.0321 43.8725 37.0516 43.7518C37.0718 43.6178 36.9818 43.4937 36.8495 43.473L36.0976 43.355L36.9314 40.4914L36.1412 38.8387L34.8745 40.1692L34.7966 43.1469L33.9454 43.0122C33.8138 42.9868 33.6884 43.0823 33.6648 43.2149C33.6446 43.3457 33.7346 43.4703 33.8682 43.4937L34.2254 43.5477C34.0978 43.6198 34.0132 43.6772 34.0032 43.6851L33.9314 43.7351L33.9112 43.8238C33.7044 44.6595 34.1724 45.4524 34.6785 45.8073L34.6604 45.9127C34.6395 46.0413 34.6691 46.1667 34.7469 46.2714C34.8208 46.3788 34.9329 46.4428 35.0605 46.4655C35.0866 46.4701 35.1148 46.4721 35.1391 46.4721C35.3585 46.4721 35.5499 46.3214 35.6035 46.1014C35.7915 46.1233 35.9641 46.128 36.0822 46.128H36.1829L41.0989 47.011L41.1828 46.9556C41.5742 46.6835 43.0679 45.6024 43.5572 45.2444C43.6922 45.3597 43.8426 45.4637 44.0245 45.5504C43.8654 46.078 43.8561 46.891 44.4824 47.5332H31.9529V40.35C31.9529 39.6544 31.7482 38.9547 31.5059 38.3086H37.1522ZM36.4749 27.47L39.7442 28.5717V33.6748L37.3369 32.4144L36.4749 27.47ZM44.4515 26.8544C44.4515 25.6093 42.3415 24.4889 40.0128 24.4889H39.9999C37.6712 24.4889 35.5612 25.6093 35.5612 26.8544L35.6076 27.1605L36.5374 32.4631L35.6035 33.002L33.1868 34.4038H33.1955C33.1955 34.4038 32.6518 34.6812 32.4001 34.8519C31.4796 35.4869 31.2844 36.4132 31.8186 36.796C31.9502 36.0403 32.5511 35.2514 33.6769 35.2514C34.4872 35.2514 35.1055 35.6669 35.6035 36.2898C35.7325 36.4472 35.8539 36.6152 35.9674 36.796C36.1071 37.0241 36.2481 37.2241 36.3869 37.4169H30.1619C30.6198 38.3305 31.0548 39.2983 31.0548 40.35V54.0368C31.0548 57.35 33.6192 58.9313 36.3931 58.9313C38.5372 58.9313 38.8259 58.834 40.0088 60.005C41.1862 58.834 41.4755 58.9313 43.6211 58.9313C46.3969 58.9313 48.9579 57.35 48.9579 54.0368V40.35C48.9579 39.2983 49.3924 38.3305 49.8522 37.4169H43.6251C43.7641 37.2241 43.9044 37.0241 44.0439 36.796C44.1595 36.6152 44.2802 36.4472 44.4065 36.2898C44.9094 35.6642 45.5255 35.2514 46.3365 35.2514C47.4609 35.2514 48.0611 36.0403 48.1946 36.796C48.7291 36.4132 48.5358 35.4869 47.6099 34.8519C47.3622 34.6812 46.8178 34.4038 46.8178 34.4038H46.8266L44.4065 33.002L43.4761 32.4631L44.4065 27.1605L44.4515 26.8544Z" fill="#1A1919"/>
</svg>
