<svg width="16" height="16" viewBox="0 0 16 16" fill="none" xmlns="http://www.w3.org/2000/svg">
<circle cx="8" cy="8" r="7.5" stroke="#B2B2B2"/>
<path d="M5.31641 5.85938H6.69336C6.74023 5.13281 7.22656 4.66992 7.98242 4.66992C8.7207 4.66992 9.21289 5.12109 9.21289 5.74219C9.21289 6.32227 8.9668 6.63867 8.24023 7.07812C7.43164 7.55273 7.0918 8.08008 7.14453 8.94727L7.15039 9.36328H8.50977V9.02344C8.50977 8.4375 8.72656 8.13281 9.49414 7.6875C10.291 7.21289 10.7363 6.58594 10.7363 5.68945C10.7363 4.40039 9.66406 3.47461 8.05859 3.47461C6.31836 3.47461 5.36328 4.48242 5.31641 5.85938ZM7.84766 12.1172C8.32227 12.1172 8.69727 11.748 8.69727 11.2852C8.69727 10.8223 8.32227 10.459 7.84766 10.459C7.37305 10.459 6.99219 10.8223 6.99219 11.2852C6.99219 11.748 7.37305 12.1172 7.84766 12.1172Z" fill="#B2B2B2"/>
</svg>
