<svg width="91" height="37" viewBox="0 0 91 37" fill="none" xmlns="http://www.w3.org/2000/svg">
<path d="M0 36.216V34.452H0.36C0.768 34.452 1.188 34.392 1.62 34.272C2.052 34.176 2.4 33.96 2.664 33.624C2.952 33.288 3.096 32.76 3.096 32.04V12.528C3.096 11.448 2.832 10.764 2.304 10.476C1.8 10.188 1.188 10.044 0.468 10.044H0.144V8.28H6.912L7.452 11.268H7.596C8.124 10.26 8.82 9.456 9.684 8.856C10.548 8.232 11.688 7.92 13.104 7.92C15.48 7.92 17.292 8.724 18.54 10.332C19.812 11.94 20.448 14.484 20.448 17.964C20.448 21.444 19.824 23.988 18.576 25.596C17.328 27.18 15.528 27.972 13.176 27.972C11.808 27.972 10.692 27.708 9.828 27.18C8.964 26.628 8.268 25.896 7.74 24.984H7.524C7.572 25.368 7.608 25.836 7.632 26.388C7.68 26.94 7.716 27.468 7.74 27.972C7.764 28.476 7.776 28.896 7.776 29.232V32.076C7.776 32.772 7.908 33.288 8.172 33.624C8.46 33.96 8.808 34.176 9.216 34.272C9.624 34.392 10.044 34.452 10.476 34.452H11.016V36.216H0ZM11.916 25.452C13.26 25.452 14.22 24.828 14.796 23.58C15.396 22.308 15.696 20.436 15.696 17.964C15.696 15.516 15.396 13.656 14.796 12.384C14.22 11.112 13.26 10.476 11.916 10.476C10.308 10.476 9.216 11.112 8.64 12.384C8.064 13.632 7.776 15.492 7.776 17.964C7.776 20.436 8.064 22.308 8.64 23.58C9.216 24.828 10.308 25.452 11.916 25.452Z" fill="#090C08"/>
<path d="M34.7692 27.936C31.9852 27.936 29.8012 27.108 28.2172 25.452C26.6332 23.772 25.8412 21.24 25.8412 17.856C25.8412 14.496 26.5972 11.988 28.1092 10.332C29.6452 8.676 31.9012 7.848 34.8773 7.848C37.6372 7.848 39.8092 8.676 41.3932 10.332C43.0013 11.988 43.8052 14.496 43.8052 17.856C43.8052 21.24 43.0372 23.772 41.5012 25.452C39.9892 27.108 37.7453 27.936 34.7692 27.936ZM34.8412 25.812C36.3772 25.812 37.4572 25.14 38.0812 23.796C38.7052 22.452 39.0173 20.472 39.0173 17.856C39.0173 15.24 38.7052 13.284 38.0812 11.988C37.4572 10.668 36.3652 10.008 34.8052 10.008C33.2452 10.008 32.1532 10.668 31.5292 11.988C30.9292 13.284 30.6292 15.24 30.6292 17.856C30.6292 20.472 30.9412 22.452 31.5653 23.796C32.2132 25.14 33.3052 25.812 34.8412 25.812Z" fill="#090C08"/>
<path d="M47.932 27.576V25.812H48.4C48.832 25.812 49.252 25.764 49.66 25.668C50.068 25.548 50.404 25.32 50.668 24.984C50.956 24.648 51.1 24.12 51.1 23.4V4.248C51.1 3.576 50.956 3.084 50.668 2.772C50.404 2.46 50.056 2.256 49.624 2.16C49.216 2.04 48.808 1.98 48.4 1.98H47.932V0.216H55.78V23.4C55.78 24.12 55.912 24.648 56.176 24.984C56.464 25.32 56.812 25.548 57.22 25.668C57.628 25.764 58.048 25.812 58.48 25.812H58.948V27.576H47.932Z" fill="#090C08"/>
<path d="M67.2978 4.896C66.5538 4.896 65.9178 4.704 65.3898 4.32C64.8858 3.936 64.6338 3.312 64.6338 2.448C64.6338 1.56 64.8858 0.936 65.3898 0.575999C65.9178 0.192 66.5538 0 67.2978 0C68.0418 0 68.6778 0.192 69.2058 0.575999C69.7338 0.936 69.9978 1.56 69.9978 2.448C69.9978 3.312 69.7338 3.936 69.2058 4.32C68.6778 4.704 68.0418 4.896 67.2978 4.896ZM61.9698 27.576V25.812H62.4378C62.8458 25.812 63.2538 25.764 63.6618 25.668C64.0938 25.548 64.4418 25.32 64.7058 24.984C64.9938 24.648 65.1378 24.132 65.1378 23.436V12.312C65.1378 11.64 64.9938 11.148 64.7058 10.836C64.4418 10.524 64.0938 10.32 63.6618 10.224C63.2538 10.104 62.8458 10.044 62.4378 10.044H62.1138V8.28H69.8178V23.4C69.8178 24.12 69.9498 24.648 70.2138 24.984C70.5018 25.32 70.8498 25.548 71.2578 25.668C71.6658 25.764 72.0858 25.812 72.5178 25.812H72.9498V27.576H61.9698Z" fill="#090C08"/>
<path d="M83.3482 27.936C81.0442 27.936 79.3401 27.564 78.2362 26.82C77.1562 26.076 76.6161 25.092 76.6161 23.868C76.6161 23.124 76.7842 22.572 77.1202 22.212C77.4562 21.828 77.8521 21.576 78.3082 21.456C78.7642 21.312 79.1721 21.24 79.5322 21.24C79.5322 22.632 79.8561 23.772 80.5042 24.66C81.1761 25.524 82.1481 25.956 83.4202 25.956C84.6922 25.956 85.6282 25.692 86.2281 25.164C86.8281 24.636 87.1282 23.976 87.1282 23.184C87.1282 22.656 86.9962 22.2 86.7322 21.816C86.4682 21.408 86.0122 21.024 85.3642 20.664C84.7402 20.304 83.8521 19.908 82.7001 19.476C80.8041 18.756 79.3642 17.964 78.3801 17.1C77.4202 16.212 76.9402 14.964 76.9402 13.356C76.9402 11.532 77.6122 10.164 78.9562 9.252C80.3002 8.34 82.0761 7.884 84.2841 7.884C86.3482 7.884 87.8482 8.232 88.7841 8.928C89.7201 9.6 90.1882 10.368 90.1882 11.232C90.1882 11.976 89.9242 12.552 89.3962 12.96C88.8922 13.368 88.0761 13.572 86.9482 13.572C86.9482 12.396 86.6842 11.472 86.1562 10.8C85.6282 10.128 84.8362 9.792 83.7802 9.792C82.8442 9.792 82.0882 10.02 81.5122 10.476C80.9602 10.908 80.6842 11.508 80.6842 12.276C80.6842 12.828 80.8281 13.296 81.1161 13.68C81.4042 14.064 81.8842 14.436 82.5562 14.796C83.2522 15.156 84.2122 15.552 85.4361 15.984C87.1402 16.632 88.4722 17.4 89.4322 18.288C90.3922 19.152 90.8722 20.34 90.8722 21.852C90.8722 23.82 90.2002 25.332 88.8562 26.388C87.5122 27.42 85.6762 27.936 83.3482 27.936Z" fill="#090C08"/>
</svg>
